solid OpenSCAD_Model
  facet normal -1 0 0
    outer loop
      vertex 3.35 3.35 4
      vertex 3.35 89.65 10
      vertex 3.35 89.65 4
    endloop
  endfacet
  facet normal -1 -0 0
    outer loop
      vertex 3.35 89.65 10
      vertex 3.35 3.35 4
      vertex 3.35 3.35 10
    endloop
  endfacet
  facet normal 0 0 1
    outer loop
      vertex 38.85 89.65 10
      vertex 6.35 86.65 10
      vertex 38.85 86.65 10
    endloop
  endfacet
  facet normal 0 0 1
    outer loop
      vertex 6.35 86.65 10
      vertex 3.35 89.65 10
      vertex 6.35 6.35 10
    endloop
  endfacet
  facet normal -0 0 1
    outer loop
      vertex 3.35 89.65 10
      vertex 6.35 86.65 10
      vertex 38.85 89.65 10
    endloop
  endfacet
  facet normal 0 0 1
    outer loop
      vertex 89.65 89.65 10
      vertex 86.65 86.65 10
      vertex 89.65 3.35 10
    endloop
  endfacet
  facet normal -0 0 1
    outer loop
      vertex 54.85 89.65 10
      vertex 86.65 86.65 10
      vertex 89.65 89.65 10
    endloop
  endfacet
  facet normal 0 0 1
    outer loop
      vertex 86.65 86.65 10
      vertex 54.85 89.65 10
      vertex 54.85 86.65 10
    endloop
  endfacet
  facet normal -0 0 1
    outer loop
      vertex 86.65 6.35 10
      vertex 89.65 3.35 10
      vertex 86.65 86.65 10
    endloop
  endfacet
  facet normal -0 0 1
    outer loop
      vertex 6.35 6.35 10
      vertex 89.65 3.35 10
      vertex 86.65 6.35 10
    endloop
  endfacet
  facet normal 0 0 1
    outer loop
      vertex 6.35 6.35 10
      vertex 3.35 3.35 10
      vertex 89.65 3.35 10
    endloop
  endfacet
  facet normal 0 0 1
    outer loop
      vertex 3.35 3.35 10
      vertex 6.35 6.35 10
      vertex 3.35 89.65 10
    endloop
  endfacet
  facet normal 1 -0 0
    outer loop
      vertex 89.65 3.35 10
      vertex 89.65 89.65 4
      vertex 89.65 89.65 10
    endloop
  endfacet
  facet normal 1 0 0
    outer loop
      vertex 89.65 89.65 4
      vertex 89.65 3.35 10
      vertex 89.65 3.35 4
    endloop
  endfacet
  facet normal 0 0 1
    outer loop
      vertex 93 93 4
      vertex 89.65 89.65 4
      vertex 93 0 4
    endloop
  endfacet
  facet normal 0 0 1
    outer loop
      vertex 93 93 4
      vertex 54.85 89.65 4
      vertex 89.65 89.65 4
    endloop
  endfacet
  facet normal 0 0 1
    outer loop
      vertex 54.85 89.65 4
      vertex 38.85 89.65 4
      vertex 54.85 86.65 4
    endloop
  endfacet
  facet normal 0 0 1
    outer loop
      vertex 93 93 4
      vertex 38.85 89.65 4
      vertex 54.85 89.65 4
    endloop
  endfacet
  facet normal -0 0 1
    outer loop
      vertex 0 93 4
      vertex 38.85 89.65 4
      vertex 93 93 4
    endloop
  endfacet
  facet normal 0 0 1
    outer loop
      vertex 3.35 89.65 4
      vertex 0 93 4
      vertex 3.35 3.35 4
    endloop
  endfacet
  facet normal 0 0 1
    outer loop
      vertex 38.85 89.65 4
      vertex 0 93 4
      vertex 3.35 89.65 4
    endloop
  endfacet
  facet normal -0 0 1
    outer loop
      vertex 89.65 3.35 4
      vertex 93 0 4
      vertex 89.65 89.65 4
    endloop
  endfacet
  facet normal -0 0 1
    outer loop
      vertex 3.35 3.35 4
      vertex 93 0 4
      vertex 89.65 3.35 4
    endloop
  endfacet
  facet normal 0 0 1
    outer loop
      vertex 3.35 3.35 4
      vertex 0 0 4
      vertex 93 0 4
    endloop
  endfacet
  facet normal 0 0 1
    outer loop
      vertex 0 0 4
      vertex 3.35 3.35 4
      vertex 0 93 4
    endloop
  endfacet
  facet normal -0 0 1
    outer loop
      vertex 54.85 86.65 4
      vertex 86.65 6.35 4
      vertex 86.65 86.65 4
    endloop
  endfacet
  facet normal 0 0 1
    outer loop
      vertex 38.85 86.65 4
      vertex 54.85 86.65 4
      vertex 38.85 89.65 4
    endloop
  endfacet
  facet normal 0 0 1
    outer loop
      vertex 54.85 86.65 4
      vertex 38.85 86.65 4
      vertex 86.65 6.35 4
    endloop
  endfacet
  facet normal 0 0 1
    outer loop
      vertex 6.35 6.35 4
      vertex 38.85 86.65 4
      vertex 6.35 86.65 4
    endloop
  endfacet
  facet normal 0 0 1
    outer loop
      vertex 38.85 86.65 4
      vertex 6.35 6.35 4
      vertex 86.65 6.35 4
    endloop
  endfacet
  facet normal 0 -1 0
    outer loop
      vertex 3.35 3.35 4
      vertex 89.65 3.35 10
      vertex 3.35 3.35 10
    endloop
  endfacet
  facet normal 0 -1 -0
    outer loop
      vertex 89.65 3.35 10
      vertex 3.35 3.35 4
      vertex 89.65 3.35 4
    endloop
  endfacet
  facet normal 0 1 -0
    outer loop
      vertex 89.65 89.65 4
      vertex 54.85 89.65 10
      vertex 89.65 89.65 10
    endloop
  endfacet
  facet normal 0 1 0
    outer loop
      vertex 54.85 89.65 10
      vertex 89.65 89.65 4
      vertex 54.85 89.65 4
    endloop
  endfacet
  facet normal 0 1 -0
    outer loop
      vertex 38.85 89.65 4
      vertex 3.35 89.65 10
      vertex 38.85 89.65 10
    endloop
  endfacet
  facet normal 0 1 0
    outer loop
      vertex 3.35 89.65 10
      vertex 38.85 89.65 4
      vertex 3.35 89.65 4
    endloop
  endfacet
  facet normal 1 -0 0
    outer loop
      vertex 6.35 6.35 10
      vertex 6.35 86.65 4
      vertex 6.35 86.65 10
    endloop
  endfacet
  facet normal 1 0 0
    outer loop
      vertex 6.35 86.65 4
      vertex 6.35 6.35 10
      vertex 6.35 6.35 4
    endloop
  endfacet
  facet normal -1 0 0
    outer loop
      vertex 86.65 6.35 4
      vertex 86.65 86.65 10
      vertex 86.65 86.65 4
    endloop
  endfacet
  facet normal -1 -0 0
    outer loop
      vertex 86.65 86.65 10
      vertex 86.65 6.35 4
      vertex 86.65 6.35 10
    endloop
  endfacet
  facet normal 0 1 -0
    outer loop
      vertex 86.65 6.35 4
      vertex 6.35 6.35 10
      vertex 86.65 6.35 10
    endloop
  endfacet
  facet normal 0 1 0
    outer loop
      vertex 6.35 6.35 10
      vertex 86.65 6.35 4
      vertex 6.35 6.35 4
    endloop
  endfacet
  facet normal 0 -1 0
    outer loop
      vertex 6.35 86.65 4
      vertex 38.85 86.65 10
      vertex 6.35 86.65 10
    endloop
  endfacet
  facet normal 0 -1 -0
    outer loop
      vertex 38.85 86.65 10
      vertex 6.35 86.65 4
      vertex 38.85 86.65 4
    endloop
  endfacet
  facet normal 0 -1 0
    outer loop
      vertex 54.85 86.65 4
      vertex 86.65 86.65 10
      vertex 54.85 86.65 10
    endloop
  endfacet
  facet normal 0 -1 -0
    outer loop
      vertex 86.65 86.65 10
      vertex 54.85 86.65 4
      vertex 86.65 86.65 4
    endloop
  endfacet
  facet normal 1 -0 0
    outer loop
      vertex 38.85 86.65 10
      vertex 38.85 89.65 4
      vertex 38.85 89.65 10
    endloop
  endfacet
  facet normal 1 0 0
    outer loop
      vertex 38.85 89.65 4
      vertex 38.85 86.65 10
      vertex 38.85 86.65 4
    endloop
  endfacet
  facet normal -1 0 0
    outer loop
      vertex 54.85 86.65 4
      vertex 54.85 89.65 10
      vertex 54.85 89.65 4
    endloop
  endfacet
  facet normal -1 -0 0
    outer loop
      vertex 54.85 89.65 10
      vertex 54.85 86.65 4
      vertex 54.85 86.65 10
    endloop
  endfacet
  facet normal -1 0 0
    outer loop
      vertex 0 0 0
      vertex 0 93 4
      vertex 0 93 0
    endloop
  endfacet
  facet normal -1 -0 0
    outer loop
      vertex 0 93 4
      vertex 0 0 0
      vertex 0 0 4
    endloop
  endfacet
  facet normal 1 -0 0
    outer loop
      vertex 93 0 4
      vertex 93 93 0
      vertex 93 93 4
    endloop
  endfacet
  facet normal 1 0 0
    outer loop
      vertex 93 93 0
      vertex 93 0 4
      vertex 93 0 0
    endloop
  endfacet
  facet normal 0 1 -0
    outer loop
      vertex 93 93 0
      vertex 0 93 4
      vertex 93 93 4
    endloop
  endfacet
  facet normal 0 1 0
    outer loop
      vertex 0 93 4
      vertex 93 93 0
      vertex 0 93 0
    endloop
  endfacet
  facet normal 0 0 -1
    outer loop
      vertex 0 0 0
      vertex 93 93 0
      vertex 93 0 0
    endloop
  endfacet
  facet normal -0 0 -1
    outer loop
      vertex 93 93 0
      vertex 0 0 0
      vertex 0 93 0
    endloop
  endfacet
  facet normal 0 -1 0
    outer loop
      vertex 0 0 0
      vertex 93 0 4
      vertex 0 0 4
    endloop
  endfacet
  facet normal 0 -1 -0
    outer loop
      vertex 93 0 4
      vertex 0 0 0
      vertex 93 0 0
    endloop
  endfacet
endsolid OpenSCAD_Model
