solid OpenSCAD_Model
  facet normal -1 0 0
    outer loop
      vertex 0 0 0
      vertex 0 93 108
      vertex 0 93 0
    endloop
  endfacet
  facet normal -1 -0 0
    outer loop
      vertex 0 93 108
      vertex 0 0 0
      vertex 0 0 108
    endloop
  endfacet
  facet normal 1 -0 0
    outer loop
      vertex 93 0 108
      vertex 93 93 0
      vertex 93 93 108
    endloop
  endfacet
  facet normal 1 0 0
    outer loop
      vertex 93 93 0
      vertex 93 0 108
      vertex 93 0 0
    endloop
  endfacet
  facet normal 0 1 -0
    outer loop
      vertex 93 93 0
      vertex 0 93 108
      vertex 93 93 108
    endloop
  endfacet
  facet normal 0 1 0
    outer loop
      vertex 0 93 108
      vertex 93 93 0
      vertex 0 93 0
    endloop
  endfacet
  facet normal 0 -1 0
    outer loop
      vertex 69.5 0 0
      vertex 72.5 0 15.5
      vertex 69.5 0 15.5
    endloop
  endfacet
  facet normal 0 -1 -0
    outer loop
      vertex 72.5 0 15.5
      vertex 69.5 0 0
      vertex 72.5 0 0
    endloop
  endfacet
  facet normal 0 -1 0
    outer loop
      vertex 62.5 0 0
      vertex 65.5 0 15.5
      vertex 62.5 0 15.5
    endloop
  endfacet
  facet normal 0 -1 -0
    outer loop
      vertex 65.5 0 15.5
      vertex 62.5 0 0
      vertex 65.5 0 0
    endloop
  endfacet
  facet normal 0 -1 0
    outer loop
      vertex 55.5 0 0
      vertex 58.5 0 15.5
      vertex 55.5 0 15.5
    endloop
  endfacet
  facet normal 0 -1 -0
    outer loop
      vertex 58.5 0 15.5
      vertex 55.5 0 0
      vertex 58.5 0 0
    endloop
  endfacet
  facet normal 0 -1 0
    outer loop
      vertex 48.5 0 0
      vertex 51.5 0 15.5
      vertex 48.5 0 15.5
    endloop
  endfacet
  facet normal 0 -1 -0
    outer loop
      vertex 51.5 0 15.5
      vertex 48.5 0 0
      vertex 51.5 0 0
    endloop
  endfacet
  facet normal 0 -1 0
    outer loop
      vertex 41.5 0 0
      vertex 44.5 0 15.5
      vertex 41.5 0 15.5
    endloop
  endfacet
  facet normal 0 -1 -0
    outer loop
      vertex 44.5 0 15.5
      vertex 41.5 0 0
      vertex 44.5 0 0
    endloop
  endfacet
  facet normal 0 -1 0
    outer loop
      vertex 34.5 0 0
      vertex 37.5 0 15.5
      vertex 34.5 0 15.5
    endloop
  endfacet
  facet normal 0 -1 -0
    outer loop
      vertex 37.5 0 15.5
      vertex 34.5 0 0
      vertex 37.5 0 0
    endloop
  endfacet
  facet normal 0 -1 0
    outer loop
      vertex 27.5 0 0
      vertex 30.5 0 15.5
      vertex 27.5 0 15.5
    endloop
  endfacet
  facet normal 0 -1 -0
    outer loop
      vertex 30.5 0 15.5
      vertex 27.5 0 0
      vertex 30.5 0 0
    endloop
  endfacet
  facet normal 0 -1 0
    outer loop
      vertex 20.5 0 0
      vertex 23.5 0 15.5
      vertex 20.5 0 15.5
    endloop
  endfacet
  facet normal 0 -1 -0
    outer loop
      vertex 23.5 0 15.5
      vertex 20.5 0 0
      vertex 23.5 0 0
    endloop
  endfacet
  facet normal 0 -1 0
    outer loop
      vertex 69.5 0 18.5
      vertex 72.5 0 72
      vertex 69.5 0 72
    endloop
  endfacet
  facet normal 0 -1 -0
    outer loop
      vertex 72.5 0 72
      vertex 69.5 0 18.5
      vertex 72.5 0 18.5
    endloop
  endfacet
  facet normal 0 -1 0
    outer loop
      vertex 62.5 0 18.5
      vertex 65.5 0 72
      vertex 62.5 0 72
    endloop
  endfacet
  facet normal 0 -1 -0
    outer loop
      vertex 65.5 0 72
      vertex 62.5 0 18.5
      vertex 65.5 0 18.5
    endloop
  endfacet
  facet normal 0 -1 0
    outer loop
      vertex 55.5 0 18.5
      vertex 58.5 0 72
      vertex 55.5 0 72
    endloop
  endfacet
  facet normal 0 -1 -0
    outer loop
      vertex 58.5 0 72
      vertex 55.5 0 18.5
      vertex 58.5 0 18.5
    endloop
  endfacet
  facet normal 0 -1 0
    outer loop
      vertex 48.5 0 18.5
      vertex 51.5 0 72
      vertex 48.5 0 72
    endloop
  endfacet
  facet normal 0 -1 -0
    outer loop
      vertex 51.5 0 72
      vertex 48.5 0 18.5
      vertex 51.5 0 18.5
    endloop
  endfacet
  facet normal 0 -1 0
    outer loop
      vertex 41.5 0 18.5
      vertex 44.5 0 72
      vertex 41.5 0 72
    endloop
  endfacet
  facet normal 0 -1 -0
    outer loop
      vertex 44.5 0 72
      vertex 41.5 0 18.5
      vertex 44.5 0 18.5
    endloop
  endfacet
  facet normal 0 -1 0
    outer loop
      vertex 34.5 0 18.5
      vertex 37.5 0 72
      vertex 34.5 0 72
    endloop
  endfacet
  facet normal 0 -1 -0
    outer loop
      vertex 37.5 0 72
      vertex 34.5 0 18.5
      vertex 37.5 0 18.5
    endloop
  endfacet
  facet normal 0 -1 0
    outer loop
      vertex 27.5 0 18.5
      vertex 30.5 0 72
      vertex 27.5 0 72
    endloop
  endfacet
  facet normal 0 -1 -0
    outer loop
      vertex 30.5 0 72
      vertex 27.5 0 18.5
      vertex 30.5 0 18.5
    endloop
  endfacet
  facet normal 0 -1 0
    outer loop
      vertex 20.5 0 18.5
      vertex 23.5 0 72
      vertex 20.5 0 72
    endloop
  endfacet
  facet normal 0 -1 -0
    outer loop
      vertex 23.5 0 72
      vertex 20.5 0 18.5
      vertex 23.5 0 18.5
    endloop
  endfacet
  facet normal 0 -1 0
    outer loop
      vertex 20.5 0 72
      vertex 0 0 108
      vertex 16.5 0 72
    endloop
  endfacet
  facet normal 0 -1 0
    outer loop
      vertex 0 0 0
      vertex 16.5 0 72
      vertex 0 0 108
    endloop
  endfacet
  facet normal 0 -1 0
    outer loop
      vertex 20.5 0 15.5
      vertex 20.5 0 18.5
      vertex 16.5 0 18.5
    endloop
  endfacet
  facet normal 0 -1 0
    outer loop
      vertex 20.5 0 18.5
      vertex 20.5 0 15.5
      vertex 23.5 0 18.5
    endloop
  endfacet
  facet normal 0 -1 0
    outer loop
      vertex 23.5 0 18.5
      vertex 23.5 0 15.5
      vertex 27.5 0 18.5
    endloop
  endfacet
  facet normal 0 -1 0
    outer loop
      vertex 27.5 0 15.5
      vertex 27.5 0 18.5
      vertex 23.5 0 15.5
    endloop
  endfacet
  facet normal 0 -1 0
    outer loop
      vertex 30.5 0 15.5
      vertex 30.5 0 18.5
      vertex 27.5 0 15.5
    endloop
  endfacet
  facet normal 0 -1 0
    outer loop
      vertex 30.5 0 18.5
      vertex 30.5 0 15.5
      vertex 34.5 0 18.5
    endloop
  endfacet
  facet normal 0 -1 0
    outer loop
      vertex 34.5 0 18.5
      vertex 34.5 0 15.5
      vertex 37.5 0 18.5
    endloop
  endfacet
  facet normal 0 -1 0
    outer loop
      vertex 37.5 0 15.5
      vertex 37.5 0 18.5
      vertex 34.5 0 15.5
    endloop
  endfacet
  facet normal 0 -1 0
    outer loop
      vertex 41.5 0 15.5
      vertex 41.5 0 18.5
      vertex 37.5 0 15.5
    endloop
  endfacet
  facet normal 0 -1 0
    outer loop
      vertex 41.5 0 18.5
      vertex 41.5 0 15.5
      vertex 44.5 0 18.5
    endloop
  endfacet
  facet normal 0 -1 0
    outer loop
      vertex 44.5 0 18.5
      vertex 44.5 0 15.5
      vertex 48.5 0 18.5
    endloop
  endfacet
  facet normal 0 -1 0
    outer loop
      vertex 48.5 0 15.5
      vertex 48.5 0 18.5
      vertex 44.5 0 15.5
    endloop
  endfacet
  facet normal 0 -1 0
    outer loop
      vertex 51.5 0 15.5
      vertex 51.5 0 18.5
      vertex 48.5 0 15.5
    endloop
  endfacet
  facet normal 0 -1 0
    outer loop
      vertex 51.5 0 18.5
      vertex 51.5 0 15.5
      vertex 55.5 0 18.5
    endloop
  endfacet
  facet normal 0 -1 0
    outer loop
      vertex 55.5 0 18.5
      vertex 55.5 0 15.5
      vertex 58.5 0 18.5
    endloop
  endfacet
  facet normal 0 -1 0
    outer loop
      vertex 58.5 0 15.5
      vertex 58.5 0 18.5
      vertex 55.5 0 15.5
    endloop
  endfacet
  facet normal 0 -1 0
    outer loop
      vertex 20.5 0 15.5
      vertex 16.5 0 18.5
      vertex 16.5 0 15.5
    endloop
  endfacet
  facet normal 0 -1 -0
    outer loop
      vertex 16.5 0 72
      vertex 0 0 0
      vertex 16.5 0 18.5
    endloop
  endfacet
  facet normal 0 -1 -0
    outer loop
      vertex 16.5 0 18.5
      vertex 0 0 0
      vertex 16.5 0 15.5
    endloop
  endfacet
  facet normal 0 -1 -0
    outer loop
      vertex 16.5 0 15.5
      vertex 0 0 0
      vertex 16.5 0 0
    endloop
  endfacet
  facet normal 0 -1 0
    outer loop
      vertex 23.5 0 72
      vertex 0 0 108
      vertex 20.5 0 72
    endloop
  endfacet
  facet normal 0 -1 0
    outer loop
      vertex 27.5 0 72
      vertex 0 0 108
      vertex 23.5 0 72
    endloop
  endfacet
  facet normal 0 -1 0
    outer loop
      vertex 30.5 0 72
      vertex 0 0 108
      vertex 27.5 0 72
    endloop
  endfacet
  facet normal 0 -1 0
    outer loop
      vertex 34.5 0 72
      vertex 0 0 108
      vertex 30.5 0 72
    endloop
  endfacet
  facet normal 0 -1 0
    outer loop
      vertex 37.5 0 72
      vertex 0 0 108
      vertex 34.5 0 72
    endloop
  endfacet
  facet normal 0 -1 0
    outer loop
      vertex 41.5 0 72
      vertex 0 0 108
      vertex 37.5 0 72
    endloop
  endfacet
  facet normal 0 -1 0
    outer loop
      vertex 44.5 0 72
      vertex 0 0 108
      vertex 41.5 0 72
    endloop
  endfacet
  facet normal 0 -1 0
    outer loop
      vertex 0 0 108
      vertex 44.5 0 72
      vertex 93 0 108
    endloop
  endfacet
  facet normal 0 -1 0
    outer loop
      vertex 48.5 0 72
      vertex 93 0 108
      vertex 44.5 0 72
    endloop
  endfacet
  facet normal 0 -1 0
    outer loop
      vertex 51.5 0 72
      vertex 93 0 108
      vertex 48.5 0 72
    endloop
  endfacet
  facet normal 0 -1 0
    outer loop
      vertex 55.5 0 72
      vertex 93 0 108
      vertex 51.5 0 72
    endloop
  endfacet
  facet normal 0 -1 0
    outer loop
      vertex 58.5 0 72
      vertex 93 0 108
      vertex 55.5 0 72
    endloop
  endfacet
  facet normal 0 -1 0
    outer loop
      vertex 62.5 0 72
      vertex 93 0 108
      vertex 58.5 0 72
    endloop
  endfacet
  facet normal 0 -1 0
    outer loop
      vertex 65.5 0 72
      vertex 93 0 108
      vertex 62.5 0 72
    endloop
  endfacet
  facet normal 0 -1 0
    outer loop
      vertex 69.5 0 72
      vertex 93 0 108
      vertex 65.5 0 72
    endloop
  endfacet
  facet normal 0 -1 0
    outer loop
      vertex 72.5 0 72
      vertex 93 0 108
      vertex 69.5 0 72
    endloop
  endfacet
  facet normal 0 -1 0
    outer loop
      vertex 76.5 0 72
      vertex 93 0 108
      vertex 72.5 0 72
    endloop
  endfacet
  facet normal 0 -1 0
    outer loop
      vertex 93 0 0
      vertex 76.5 0 72
      vertex 76.5 0 18.5
    endloop
  endfacet
  facet normal 0 -1 -0
    outer loop
      vertex 23.5 0 18.5
      vertex 20.5 0 15.5
      vertex 23.5 0 15.5
    endloop
  endfacet
  facet normal 0 -1 0
    outer loop
      vertex 27.5 0 18.5
      vertex 27.5 0 15.5
      vertex 30.5 0 18.5
    endloop
  endfacet
  facet normal 0 -1 0
    outer loop
      vertex 34.5 0 15.5
      vertex 34.5 0 18.5
      vertex 30.5 0 15.5
    endloop
  endfacet
  facet normal 0 -1 0
    outer loop
      vertex 37.5 0 18.5
      vertex 37.5 0 15.5
      vertex 41.5 0 18.5
    endloop
  endfacet
  facet normal 0 -1 0
    outer loop
      vertex 44.5 0 15.5
      vertex 44.5 0 18.5
      vertex 41.5 0 15.5
    endloop
  endfacet
  facet normal 0 -1 0
    outer loop
      vertex 48.5 0 18.5
      vertex 48.5 0 15.5
      vertex 51.5 0 18.5
    endloop
  endfacet
  facet normal 0 -1 0
    outer loop
      vertex 55.5 0 15.5
      vertex 55.5 0 18.5
      vertex 51.5 0 15.5
    endloop
  endfacet
  facet normal 0 -1 0
    outer loop
      vertex 58.5 0 18.5
      vertex 58.5 0 15.5
      vertex 62.5 0 18.5
    endloop
  endfacet
  facet normal 0 -1 0
    outer loop
      vertex 62.5 0 15.5
      vertex 62.5 0 18.5
      vertex 58.5 0 15.5
    endloop
  endfacet
  facet normal 0 -1 0
    outer loop
      vertex 62.5 0 18.5
      vertex 62.5 0 15.5
      vertex 65.5 0 18.5
    endloop
  endfacet
  facet normal 0 -1 0
    outer loop
      vertex 65.5 0 15.5
      vertex 65.5 0 18.5
      vertex 62.5 0 15.5
    endloop
  endfacet
  facet normal 0 -1 0
    outer loop
      vertex 65.5 0 18.5
      vertex 65.5 0 15.5
      vertex 69.5 0 18.5
    endloop
  endfacet
  facet normal 0 -1 0
    outer loop
      vertex 69.5 0 15.5
      vertex 69.5 0 18.5
      vertex 65.5 0 15.5
    endloop
  endfacet
  facet normal 0 -1 0
    outer loop
      vertex 69.5 0 18.5
      vertex 69.5 0 15.5
      vertex 72.5 0 18.5
    endloop
  endfacet
  facet normal 0 -1 0
    outer loop
      vertex 72.5 0 15.5
      vertex 72.5 0 18.5
      vertex 69.5 0 15.5
    endloop
  endfacet
  facet normal 0 -1 0
    outer loop
      vertex 72.5 0 18.5
      vertex 72.5 0 15.5
      vertex 76.5 0 18.5
    endloop
  endfacet
  facet normal 0 -1 0
    outer loop
      vertex 76.5 0 15.5
      vertex 76.5 0 18.5
      vertex 72.5 0 15.5
    endloop
  endfacet
  facet normal 0 -1 0
    outer loop
      vertex 93 0 0
      vertex 76.5 0 18.5
      vertex 76.5 0 15.5
    endloop
  endfacet
  facet normal 0 -1 0
    outer loop
      vertex 93 0 0
      vertex 76.5 0 15.5
      vertex 76.5 0 0
    endloop
  endfacet
  facet normal 0 -1 0
    outer loop
      vertex 76.5 0 72
      vertex 93 0 0
      vertex 93 0 108
    endloop
  endfacet
  facet normal 1 -0 0
    outer loop
      vertex 3 3 90
      vertex 3 90 0
      vertex 3 90 90
    endloop
  endfacet
  facet normal 1 0 0
    outer loop
      vertex 3 90 0
      vertex 3 3 90
      vertex 3 3 0
    endloop
  endfacet
  facet normal 0 0 -1
    outer loop
      vertex 3 3 90
      vertex 90 90 90
      vertex 90 3 90
    endloop
  endfacet
  facet normal -0 0 -1
    outer loop
      vertex 90 90 90
      vertex 3 3 90
      vertex 3 90 90
    endloop
  endfacet
  facet normal -1 0 0
    outer loop
      vertex 90 3 0
      vertex 90 90 90
      vertex 90 90 0
    endloop
  endfacet
  facet normal -1 -0 0
    outer loop
      vertex 90 90 90
      vertex 90 3 0
      vertex 90 3 90
    endloop
  endfacet
  facet normal 0 -1 0
    outer loop
      vertex 3 90 0
      vertex 90 90 90
      vertex 3 90 90
    endloop
  endfacet
  facet normal 0 -1 -0
    outer loop
      vertex 90 90 90
      vertex 3 90 0
      vertex 90 90 0
    endloop
  endfacet
  facet normal 0 1 0
    outer loop
      vertex 76.5 3 15.5
      vertex 76.5 3 18.5
      vertex 79 3 18.5
    endloop
  endfacet
  facet normal 0 1 0
    outer loop
      vertex 76.5 3 18.5
      vertex 76.5 3 15.5
      vertex 72.5 3 18.5
    endloop
  endfacet
  facet normal 0 1 0
    outer loop
      vertex 72.5 3 18.5
      vertex 72.5 3 15.5
      vertex 69.5 3 18.5
    endloop
  endfacet
  facet normal 0 1 0
    outer loop
      vertex 69.5 3 15.5
      vertex 69.5 3 18.5
      vertex 72.5 3 15.5
    endloop
  endfacet
  facet normal 0 1 0
    outer loop
      vertex 65.5 3 15.5
      vertex 65.5 3 18.5
      vertex 69.5 3 15.5
    endloop
  endfacet
  facet normal 0 1 0
    outer loop
      vertex 65.5 3 18.5
      vertex 65.5 3 15.5
      vertex 62.5 3 18.5
    endloop
  endfacet
  facet normal 0 1 0
    outer loop
      vertex 62.5 3 18.5
      vertex 62.5 3 15.5
      vertex 58.5 3 18.5
    endloop
  endfacet
  facet normal 0 1 0
    outer loop
      vertex 58.5 3 15.5
      vertex 58.5 3 18.5
      vertex 62.5 3 15.5
    endloop
  endfacet
  facet normal 0 1 0
    outer loop
      vertex 55.5 3 15.5
      vertex 55.5 3 18.5
      vertex 58.5 3 15.5
    endloop
  endfacet
  facet normal 0 1 0
    outer loop
      vertex 55.5 3 18.5
      vertex 55.5 3 15.5
      vertex 51.5 3 18.5
    endloop
  endfacet
  facet normal 0 1 0
    outer loop
      vertex 51.5 3 18.5
      vertex 51.5 3 15.5
      vertex 48.5 3 18.5
    endloop
  endfacet
  facet normal 0 1 0
    outer loop
      vertex 48.5 3 15.5
      vertex 48.5 3 18.5
      vertex 51.5 3 15.5
    endloop
  endfacet
  facet normal 0 1 0
    outer loop
      vertex 44.5 3 15.5
      vertex 44.5 3 18.5
      vertex 48.5 3 15.5
    endloop
  endfacet
  facet normal 0 1 0
    outer loop
      vertex 44.5 3 18.5
      vertex 44.5 3 15.5
      vertex 41.5 3 18.5
    endloop
  endfacet
  facet normal 0 1 0
    outer loop
      vertex 41.5 3 18.5
      vertex 41.5 3 15.5
      vertex 37.5 3 18.5
    endloop
  endfacet
  facet normal 0 1 0
    outer loop
      vertex 37.5 3 15.5
      vertex 37.5 3 18.5
      vertex 41.5 3 15.5
    endloop
  endfacet
  facet normal 0 1 0
    outer loop
      vertex 34.5 3 15.5
      vertex 34.5 3 18.5
      vertex 37.5 3 15.5
    endloop
  endfacet
  facet normal 0 1 0
    outer loop
      vertex 34.5 3 18.5
      vertex 34.5 3 15.5
      vertex 30.5 3 18.5
    endloop
  endfacet
  facet normal 0 1 0
    outer loop
      vertex 76.5 3 15.5
      vertex 79 3 18.5
      vertex 79 3 15.5
    endloop
  endfacet
  facet normal 0 1 0
    outer loop
      vertex 72.5 3 18.5
      vertex 76.5 3 15.5
      vertex 72.5 3 15.5
    endloop
  endfacet
  facet normal 0 1 0
    outer loop
      vertex 69.5 3 18.5
      vertex 69.5 3 15.5
      vertex 65.5 3 18.5
    endloop
  endfacet
  facet normal 0 1 0
    outer loop
      vertex 62.5 3 15.5
      vertex 62.5 3 18.5
      vertex 65.5 3 15.5
    endloop
  endfacet
  facet normal 0 1 0
    outer loop
      vertex 58.5 3 18.5
      vertex 58.5 3 15.5
      vertex 55.5 3 18.5
    endloop
  endfacet
  facet normal 0 1 0
    outer loop
      vertex 51.5 3 15.5
      vertex 51.5 3 18.5
      vertex 55.5 3 15.5
    endloop
  endfacet
  facet normal 0 1 0
    outer loop
      vertex 48.5 3 18.5
      vertex 48.5 3 15.5
      vertex 44.5 3 18.5
    endloop
  endfacet
  facet normal 0 1 0
    outer loop
      vertex 41.5 3 15.5
      vertex 41.5 3 18.5
      vertex 44.5 3 15.5
    endloop
  endfacet
  facet normal 0 1 0
    outer loop
      vertex 37.5 3 18.5
      vertex 37.5 3 15.5
      vertex 34.5 3 18.5
    endloop
  endfacet
  facet normal 0 1 0
    outer loop
      vertex 30.5 3 15.5
      vertex 30.5 3 18.5
      vertex 34.5 3 15.5
    endloop
  endfacet
  facet normal 0 1 0
    outer loop
      vertex 30.5 3 18.5
      vertex 30.5 3 15.5
      vertex 27.5 3 18.5
    endloop
  endfacet
  facet normal 0 1 0
    outer loop
      vertex 27.5 3 15.5
      vertex 27.5 3 18.5
      vertex 30.5 3 15.5
    endloop
  endfacet
  facet normal 0 1 0
    outer loop
      vertex 27.5 3 18.5
      vertex 27.5 3 15.5
      vertex 23.5 3 18.5
    endloop
  endfacet
  facet normal 0 1 0
    outer loop
      vertex 23.5 3 15.5
      vertex 23.5 3 18.5
      vertex 27.5 3 15.5
    endloop
  endfacet
  facet normal 0 1 0
    outer loop
      vertex 23.5 3 18.5
      vertex 23.5 3 15.5
      vertex 20.5 3 18.5
    endloop
  endfacet
  facet normal 0 1 0
    outer loop
      vertex 20.5 3 15.5
      vertex 20.5 3 18.5
      vertex 23.5 3 15.5
    endloop
  endfacet
  facet normal 0 1 0
    outer loop
      vertex 20.5 3 18.5
      vertex 20.5 3 15.5
      vertex 16.5 3 18.5
    endloop
  endfacet
  facet normal 0 1 0
    outer loop
      vertex 16.5 3 15.5
      vertex 16.5 3 18.5
      vertex 20.5 3 15.5
    endloop
  endfacet
  facet normal 0 1 0
    outer loop
      vertex 16.5 3 18.5
      vertex 16.5 3 15.5
      vertex 14 3 18.5
    endloop
  endfacet
  facet normal 0 1 0
    outer loop
      vertex 14 3 18.5
      vertex 16.5 3 15.5
      vertex 14 3 15.5
    endloop
  endfacet
  facet normal 0 1 0
    outer loop
      vertex 16.5 3 15.5
      vertex 16.5 3 0
      vertex 14 3 15.5
    endloop
  endfacet
  facet normal 0 1 -0
    outer loop
      vertex 23.5 3 18.5
      vertex 20.5 3 72
      vertex 23.5 3 72
    endloop
  endfacet
  facet normal 0 1 0
    outer loop
      vertex 20.5 3 72
      vertex 23.5 3 18.5
      vertex 20.5 3 18.5
    endloop
  endfacet
  facet normal 0 1 -0
    outer loop
      vertex 30.5 3 18.5
      vertex 27.5 3 72
      vertex 30.5 3 72
    endloop
  endfacet
  facet normal 0 1 0
    outer loop
      vertex 27.5 3 72
      vertex 30.5 3 18.5
      vertex 27.5 3 18.5
    endloop
  endfacet
  facet normal 0 1 -0
    outer loop
      vertex 37.5 3 18.5
      vertex 34.5 3 72
      vertex 37.5 3 72
    endloop
  endfacet
  facet normal 0 1 0
    outer loop
      vertex 34.5 3 72
      vertex 37.5 3 18.5
      vertex 34.5 3 18.5
    endloop
  endfacet
  facet normal 0 1 -0
    outer loop
      vertex 44.5 3 18.5
      vertex 41.5 3 72
      vertex 44.5 3 72
    endloop
  endfacet
  facet normal 0 1 0
    outer loop
      vertex 41.5 3 72
      vertex 44.5 3 18.5
      vertex 41.5 3 18.5
    endloop
  endfacet
  facet normal 0 1 -0
    outer loop
      vertex 51.5 3 18.5
      vertex 48.5 3 72
      vertex 51.5 3 72
    endloop
  endfacet
  facet normal 0 1 0
    outer loop
      vertex 48.5 3 72
      vertex 51.5 3 18.5
      vertex 48.5 3 18.5
    endloop
  endfacet
  facet normal 0 1 -0
    outer loop
      vertex 58.5 3 18.5
      vertex 55.5 3 72
      vertex 58.5 3 72
    endloop
  endfacet
  facet normal 0 1 0
    outer loop
      vertex 55.5 3 72
      vertex 58.5 3 18.5
      vertex 55.5 3 18.5
    endloop
  endfacet
  facet normal 0 1 -0
    outer loop
      vertex 65.5 3 18.5
      vertex 62.5 3 72
      vertex 65.5 3 72
    endloop
  endfacet
  facet normal 0 1 0
    outer loop
      vertex 62.5 3 72
      vertex 65.5 3 18.5
      vertex 62.5 3 18.5
    endloop
  endfacet
  facet normal 0 1 -0
    outer loop
      vertex 72.5 3 18.5
      vertex 69.5 3 72
      vertex 72.5 3 72
    endloop
  endfacet
  facet normal 0 1 0
    outer loop
      vertex 69.5 3 72
      vertex 72.5 3 18.5
      vertex 69.5 3 18.5
    endloop
  endfacet
  facet normal 0 1 0
    outer loop
      vertex 72.5 3 72
      vertex 90 3 90
      vertex 76.5 3 72
    endloop
  endfacet
  facet normal 0 1 0
    outer loop
      vertex 90 3 90
      vertex 79 3 18.5
      vertex 76.5 3 72
    endloop
  endfacet
  facet normal 0 1 -0
    outer loop
      vertex 90 3 0
      vertex 79 3 18.5
      vertex 90 3 90
    endloop
  endfacet
  facet normal 0 1 0
    outer loop
      vertex 79 3 18.5
      vertex 90 3 0
      vertex 79 3 15.5
    endloop
  endfacet
  facet normal 0 1 0
    outer loop
      vertex 76.5 3 0
      vertex 79 3 15.5
      vertex 90 3 0
    endloop
  endfacet
  facet normal 0 1 0
    outer loop
      vertex 79 3 15.5
      vertex 76.5 3 0
      vertex 76.5 3 15.5
    endloop
  endfacet
  facet normal 0 1 0
    outer loop
      vertex 69.5 3 72
      vertex 90 3 90
      vertex 72.5 3 72
    endloop
  endfacet
  facet normal 0 1 0
    outer loop
      vertex 65.5 3 72
      vertex 90 3 90
      vertex 69.5 3 72
    endloop
  endfacet
  facet normal 0 1 0
    outer loop
      vertex 62.5 3 72
      vertex 90 3 90
      vertex 65.5 3 72
    endloop
  endfacet
  facet normal 0 1 0
    outer loop
      vertex 58.5 3 72
      vertex 90 3 90
      vertex 62.5 3 72
    endloop
  endfacet
  facet normal 0 1 0
    outer loop
      vertex 55.5 3 72
      vertex 90 3 90
      vertex 58.5 3 72
    endloop
  endfacet
  facet normal 0 1 0
    outer loop
      vertex 51.5 3 72
      vertex 90 3 90
      vertex 55.5 3 72
    endloop
  endfacet
  facet normal 0 1 0
    outer loop
      vertex 48.5 3 72
      vertex 90 3 90
      vertex 51.5 3 72
    endloop
  endfacet
  facet normal 0 1 0
    outer loop
      vertex 90 3 90
      vertex 48.5 3 72
      vertex 3 3 90
    endloop
  endfacet
  facet normal 0 1 -0
    outer loop
      vertex 44.5 3 72
      vertex 3 3 90
      vertex 48.5 3 72
    endloop
  endfacet
  facet normal 0 1 -0
    outer loop
      vertex 41.5 3 72
      vertex 3 3 90
      vertex 44.5 3 72
    endloop
  endfacet
  facet normal 0 1 -0
    outer loop
      vertex 37.5 3 72
      vertex 3 3 90
      vertex 41.5 3 72
    endloop
  endfacet
  facet normal 0 1 -0
    outer loop
      vertex 34.5 3 72
      vertex 3 3 90
      vertex 37.5 3 72
    endloop
  endfacet
  facet normal 0 1 -0
    outer loop
      vertex 30.5 3 72
      vertex 3 3 90
      vertex 34.5 3 72
    endloop
  endfacet
  facet normal 0 1 -0
    outer loop
      vertex 27.5 3 72
      vertex 3 3 90
      vertex 30.5 3 72
    endloop
  endfacet
  facet normal 0 1 -0
    outer loop
      vertex 23.5 3 72
      vertex 3 3 90
      vertex 27.5 3 72
    endloop
  endfacet
  facet normal 0 1 -0
    outer loop
      vertex 20.5 3 72
      vertex 3 3 90
      vertex 23.5 3 72
    endloop
  endfacet
  facet normal 0 1 -0
    outer loop
      vertex 16.5 3 72
      vertex 3 3 90
      vertex 20.5 3 72
    endloop
  endfacet
  facet normal 0 1 0
    outer loop
      vertex 14 3 18.5
      vertex 16.5 3 72
      vertex 16.5 3 18.5
    endloop
  endfacet
  facet normal 0 1 0
    outer loop
      vertex 16.5 3 72
      vertex 14 3 18.5
      vertex 3 3 90
    endloop
  endfacet
  facet normal 0 1 0
    outer loop
      vertex 3 3 0
      vertex 14 3 18.5
      vertex 14 3 15.5
    endloop
  endfacet
  facet normal 0 1 0
    outer loop
      vertex 14 3 18.5
      vertex 3 3 0
      vertex 3 3 90
    endloop
  endfacet
  facet normal 0 1 0
    outer loop
      vertex 3 3 0
      vertex 14 3 15.5
      vertex 16.5 3 0
    endloop
  endfacet
  facet normal 0 1 0
    outer loop
      vertex 76.5 3 72
      vertex 79 3 18.5
      vertex 76.5 3 18.5
    endloop
  endfacet
  facet normal 0 1 -0
    outer loop
      vertex 23.5 3 0
      vertex 20.5 3 15.5
      vertex 23.5 3 15.5
    endloop
  endfacet
  facet normal 0 1 0
    outer loop
      vertex 20.5 3 15.5
      vertex 23.5 3 0
      vertex 20.5 3 0
    endloop
  endfacet
  facet normal 0 1 -0
    outer loop
      vertex 30.5 3 0
      vertex 27.5 3 15.5
      vertex 30.5 3 15.5
    endloop
  endfacet
  facet normal 0 1 0
    outer loop
      vertex 27.5 3 15.5
      vertex 30.5 3 0
      vertex 27.5 3 0
    endloop
  endfacet
  facet normal 0 1 -0
    outer loop
      vertex 37.5 3 0
      vertex 34.5 3 15.5
      vertex 37.5 3 15.5
    endloop
  endfacet
  facet normal 0 1 0
    outer loop
      vertex 34.5 3 15.5
      vertex 37.5 3 0
      vertex 34.5 3 0
    endloop
  endfacet
  facet normal 0 1 -0
    outer loop
      vertex 44.5 3 0
      vertex 41.5 3 15.5
      vertex 44.5 3 15.5
    endloop
  endfacet
  facet normal 0 1 0
    outer loop
      vertex 41.5 3 15.5
      vertex 44.5 3 0
      vertex 41.5 3 0
    endloop
  endfacet
  facet normal 0 1 -0
    outer loop
      vertex 51.5 3 0
      vertex 48.5 3 15.5
      vertex 51.5 3 15.5
    endloop
  endfacet
  facet normal 0 1 0
    outer loop
      vertex 48.5 3 15.5
      vertex 51.5 3 0
      vertex 48.5 3 0
    endloop
  endfacet
  facet normal 0 1 -0
    outer loop
      vertex 58.5 3 0
      vertex 55.5 3 15.5
      vertex 58.5 3 15.5
    endloop
  endfacet
  facet normal 0 1 0
    outer loop
      vertex 55.5 3 15.5
      vertex 58.5 3 0
      vertex 55.5 3 0
    endloop
  endfacet
  facet normal 0 1 -0
    outer loop
      vertex 65.5 3 0
      vertex 62.5 3 15.5
      vertex 65.5 3 15.5
    endloop
  endfacet
  facet normal 0 1 0
    outer loop
      vertex 62.5 3 15.5
      vertex 65.5 3 0
      vertex 62.5 3 0
    endloop
  endfacet
  facet normal 0 1 -0
    outer loop
      vertex 72.5 3 0
      vertex 69.5 3 15.5
      vertex 72.5 3 15.5
    endloop
  endfacet
  facet normal 0 1 0
    outer loop
      vertex 69.5 3 15.5
      vertex 72.5 3 0
      vertex 69.5 3 0
    endloop
  endfacet
  facet normal 0 0 1
    outer loop
      vertex 93 93 108
      vertex 86 86 108
      vertex 93 0 108
    endloop
  endfacet
  facet normal 0 0 1
    outer loop
      vertex 93 93 108
      vertex 7 86 108
      vertex 86 86 108
    endloop
  endfacet
  facet normal 0 0 1
    outer loop
      vertex 7 86 108
      vertex 0 93 108
      vertex 7 7 108
    endloop
  endfacet
  facet normal -0 0 1
    outer loop
      vertex 0 93 108
      vertex 7 86 108
      vertex 93 93 108
    endloop
  endfacet
  facet normal -0 0 1
    outer loop
      vertex 86 7 108
      vertex 93 0 108
      vertex 86 86 108
    endloop
  endfacet
  facet normal -0 0 1
    outer loop
      vertex 7 7 108
      vertex 93 0 108
      vertex 86 7 108
    endloop
  endfacet
  facet normal 0 0 1
    outer loop
      vertex 7 7 108
      vertex 0 0 108
      vertex 93 0 108
    endloop
  endfacet
  facet normal 0 0 1
    outer loop
      vertex 0 0 108
      vertex 7 7 108
      vertex 0 93 108
    endloop
  endfacet
  facet normal -1 0 0
    outer loop
      vertex 7 7 108
      vertex 7 86 120
      vertex 7 86 108
    endloop
  endfacet
  facet normal -1 -0 0
    outer loop
      vertex 7 86 120
      vertex 7 7 108
      vertex 7 7 120
    endloop
  endfacet
  facet normal 0 0 1
    outer loop
      vertex 86 86 120
      vertex 79 79 120
      vertex 86 7 120
    endloop
  endfacet
  facet normal 0 0 1
    outer loop
      vertex 86 86 120
      vertex 14 79 120
      vertex 79 79 120
    endloop
  endfacet
  facet normal 0 0 1
    outer loop
      vertex 14 79 120
      vertex 7 86 120
      vertex 14 14 120
    endloop
  endfacet
  facet normal -0 0 1
    outer loop
      vertex 7 86 120
      vertex 14 79 120
      vertex 86 86 120
    endloop
  endfacet
  facet normal -0 0 1
    outer loop
      vertex 79 14 120
      vertex 86 7 120
      vertex 79 79 120
    endloop
  endfacet
  facet normal -0 0 1
    outer loop
      vertex 14 14 120
      vertex 86 7 120
      vertex 79 14 120
    endloop
  endfacet
  facet normal 0 0 1
    outer loop
      vertex 14 14 120
      vertex 7 7 120
      vertex 86 7 120
    endloop
  endfacet
  facet normal 0 0 1
    outer loop
      vertex 7 7 120
      vertex 14 14 120
      vertex 7 86 120
    endloop
  endfacet
  facet normal 1 -0 0
    outer loop
      vertex 86 7 120
      vertex 86 86 108
      vertex 86 86 120
    endloop
  endfacet
  facet normal 1 0 0
    outer loop
      vertex 86 86 108
      vertex 86 7 120
      vertex 86 7 108
    endloop
  endfacet
  facet normal 0 1 -0
    outer loop
      vertex 86 86 108
      vertex 7 86 120
      vertex 86 86 120
    endloop
  endfacet
  facet normal 0 1 0
    outer loop
      vertex 7 86 120
      vertex 86 86 108
      vertex 7 86 108
    endloop
  endfacet
  facet normal 0 -1 0
    outer loop
      vertex 7 7 108
      vertex 86 7 120
      vertex 7 7 120
    endloop
  endfacet
  facet normal 0 -1 -0
    outer loop
      vertex 86 7 120
      vertex 7 7 108
      vertex 86 7 108
    endloop
  endfacet
  facet normal -1 0 0
    outer loop
      vertex 14 14 120
      vertex 14 79 132
      vertex 14 79 120
    endloop
  endfacet
  facet normal -1 -0 0
    outer loop
      vertex 14 79 132
      vertex 14 14 120
      vertex 14 14 132
    endloop
  endfacet
  facet normal 0 0 1
    outer loop
      vertex 79 79 132
      vertex 52.4247 46.5 132
      vertex 79 14 132
    endloop
  endfacet
  facet normal -0 0 1
    outer loop
      vertex 50.5 50.5 132
      vertex 52.4247 46.5 132
      vertex 79 79 132
    endloop
  endfacet
  facet normal 0 0 1
    outer loop
      vertex 50.5 50.5 132
      vertex 51.5 46.5 132
      vertex 51.5 47.4 132
    endloop
  endfacet
  facet normal 0 0 1
    outer loop
      vertex 50.5 42.5 132
      vertex 51.5 46.5 132
      vertex 50.5 50.5 132
    endloop
  endfacet
  facet normal 0 0 1
    outer loop
      vertex 52.4247 46.5 132
      vertex 50.5 50.5 132
      vertex 51.5 47.4 132
    endloop
  endfacet
  facet normal 0 0 1
    outer loop
      vertex 79 79 132
      vertex 42.5 50.5 132
      vertex 50.5 50.5 132
    endloop
  endfacet
  facet normal 0 0 1
    outer loop
      vertex 42.5 50.5 132
      vertex 14 79 132
      vertex 42.5 42.5 132
    endloop
  endfacet
  facet normal -0 0 1
    outer loop
      vertex 14 79 132
      vertex 42.5 50.5 132
      vertex 79 79 132
    endloop
  endfacet
  facet normal 0 0 1
    outer loop
      vertex 50.5 42.5 132
      vertex 52.4247 46.5 132
      vertex 51.5 45.6 132
    endloop
  endfacet
  facet normal 0 0 1
    outer loop
      vertex 51.5 46.5 132
      vertex 50.5 42.5 132
      vertex 51.5 45.6 132
    endloop
  endfacet
  facet normal 0 0 1
    outer loop
      vertex 52.4247 46.5 132
      vertex 50.5 42.5 132
      vertex 79 14 132
    endloop
  endfacet
  facet normal -0 0 1
    outer loop
      vertex 42.5 42.5 132
      vertex 79 14 132
      vertex 50.5 42.5 132
    endloop
  endfacet
  facet normal 0 0 1
    outer loop
      vertex 42.5 42.5 132
      vertex 14 14 132
      vertex 79 14 132
    endloop
  endfacet
  facet normal 0 0 1
    outer loop
      vertex 14 14 132
      vertex 42.5 42.5 132
      vertex 14 79 132
    endloop
  endfacet
  facet normal 1 -0 0
    outer loop
      vertex 79 14 132
      vertex 79 79 120
      vertex 79 79 132
    endloop
  endfacet
  facet normal 1 0 0
    outer loop
      vertex 79 79 120
      vertex 79 14 132
      vertex 79 14 120
    endloop
  endfacet
  facet normal 0 1 -0
    outer loop
      vertex 79 79 120
      vertex 14 79 132
      vertex 79 79 132
    endloop
  endfacet
  facet normal 0 1 0
    outer loop
      vertex 14 79 132
      vertex 79 79 120
      vertex 14 79 120
    endloop
  endfacet
  facet normal 0 -1 0
    outer loop
      vertex 14 14 120
      vertex 79 14 132
      vertex 14 14 132
    endloop
  endfacet
  facet normal 0 -1 -0
    outer loop
      vertex 79 14 132
      vertex 14 14 120
      vertex 79 14 120
    endloop
  endfacet
  facet normal -1 0 0
    outer loop
      vertex 42.5 42.5 132
      vertex 42.5 50.5 135
      vertex 42.5 50.5 132
    endloop
  endfacet
  facet normal -1 -0 0
    outer loop
      vertex 42.5 50.5 135
      vertex 42.5 42.5 132
      vertex 42.5 42.5 135
    endloop
  endfacet
  facet normal 0 0 1
    outer loop
      vertex 50.5 50.5 135
      vertex 47.6809 47.6809 135
      vertex 50.5 42.5 135
    endloop
  endfacet
  facet normal 0 0 1
    outer loop
      vertex 50.5 50.5 135
      vertex 45.3191 47.6809 135
      vertex 47.6809 47.6809 135
    endloop
  endfacet
  facet normal 0 0 1
    outer loop
      vertex 45.3191 47.6809 135
      vertex 42.5 50.5 135
      vertex 45.3191 45.3191 135
    endloop
  endfacet
  facet normal -0 0 1
    outer loop
      vertex 42.5 50.5 135
      vertex 45.3191 47.6809 135
      vertex 50.5 50.5 135
    endloop
  endfacet
  facet normal -0 0 1
    outer loop
      vertex 47.6809 45.3191 135
      vertex 50.5 42.5 135
      vertex 47.6809 47.6809 135
    endloop
  endfacet
  facet normal -0 0 1
    outer loop
      vertex 45.3191 45.3191 135
      vertex 50.5 42.5 135
      vertex 47.6809 45.3191 135
    endloop
  endfacet
  facet normal 0 0 1
    outer loop
      vertex 45.3191 45.3191 135
      vertex 42.5 42.5 135
      vertex 50.5 42.5 135
    endloop
  endfacet
  facet normal 0 0 1
    outer loop
      vertex 42.5 42.5 135
      vertex 45.3191 45.3191 135
      vertex 42.5 50.5 135
    endloop
  endfacet
  facet normal 1 -0 0
    outer loop
      vertex 50.5 42.5 135
      vertex 50.5 50.5 132
      vertex 50.5 50.5 135
    endloop
  endfacet
  facet normal 1 0 0
    outer loop
      vertex 50.5 50.5 132
      vertex 50.5 42.5 135
      vertex 50.5 42.5 132
    endloop
  endfacet
  facet normal 0 1 -0
    outer loop
      vertex 50.5 50.5 132
      vertex 42.5 50.5 135
      vertex 50.5 50.5 135
    endloop
  endfacet
  facet normal 0 1 0
    outer loop
      vertex 42.5 50.5 135
      vertex 50.5 50.5 132
      vertex 42.5 50.5 132
    endloop
  endfacet
  facet normal 0 -1 0
    outer loop
      vertex 42.5 42.5 132
      vertex 50.5 42.5 135
      vertex 42.5 42.5 135
    endloop
  endfacet
  facet normal 0 -1 -0
    outer loop
      vertex 50.5 42.5 135
      vertex 42.5 42.5 132
      vertex 50.5 42.5 132
    endloop
  endfacet
  facet normal 0 0.999531 0.0306228
    outer loop
      vertex 47.1998 47.1998 150.7
      vertex 46.1464 46.8536 162
      vertex 46.8536 46.8536 162
    endloop
  endfacet
  facet normal 0 0.999531 0.0306228
    outer loop
      vertex 46.1464 46.8536 162
      vertex 47.1998 47.1998 150.7
      vertex 45.8002 47.1998 150.7
    endloop
  endfacet
  facet normal 0 0.999531 0.030629
    outer loop
      vertex 47.2 47.2427 149.3
      vertex 47.6809 47.6809 135
      vertex 45.8 47.2427 149.3
    endloop
  endfacet
  facet normal 0.000294535 0.99953 0.0306389
    outer loop
      vertex 47.6809 47.6809 135
      vertex 47.2 47.2427 149.3
      vertex 47.2 47.2 150.693
    endloop
  endfacet
  facet normal -0.000294535 0.99953 0.0306389
    outer loop
      vertex 45.8 47.2427 149.3
      vertex 45.3191 47.6809 135
      vertex 45.8 47.2 150.693
    endloop
  endfacet
  facet normal -0 0.999531 0.030629
    outer loop
      vertex 45.3191 47.6809 135
      vertex 45.8 47.2427 149.3
      vertex 47.6809 47.6809 135
    endloop
  endfacet
  facet normal -0.999531 0 0.0306228
    outer loop
      vertex 45.8002 47.1998 150.7
      vertex 46.1464 46.1464 162
      vertex 46.1464 46.8536 162
    endloop
  endfacet
  facet normal -0.999531 0 0.0306228
    outer loop
      vertex 46.1464 46.1464 162
      vertex 45.8002 47.1998 150.7
      vertex 45.8002 45.8002 150.7
    endloop
  endfacet
  facet normal -0.999531 0 0.030629
    outer loop
      vertex 45.3191 47.6809 135
      vertex 45.7573 45.8 149.3
      vertex 45.7573 47.2 149.3
    endloop
  endfacet
  facet normal -0.99953 -0.000294535 0.0306389
    outer loop
      vertex 45.7573 45.8 149.3
      vertex 45.3191 45.3191 135
      vertex 45.8 45.8 150.693
    endloop
  endfacet
  facet normal -0.999531 0 0.030629
    outer loop
      vertex 45.3191 45.3191 135
      vertex 45.7573 45.8 149.3
      vertex 45.3191 47.6809 135
    endloop
  endfacet
  facet normal -0.99953 0.000294535 0.0306389
    outer loop
      vertex 45.3191 47.6809 135
      vertex 45.7573 47.2 149.3
      vertex 45.8 47.2 150.693
    endloop
  endfacet
  facet normal -0 0 1
    outer loop
      vertex 46.1464 46.8536 162
      vertex 46.8536 46.1464 162
      vertex 46.8536 46.8536 162
    endloop
  endfacet
  facet normal 0 0 1
    outer loop
      vertex 46.8536 46.1464 162
      vertex 46.1464 46.8536 162
      vertex 46.1464 46.1464 162
    endloop
  endfacet
  facet normal 0 -0.999531 0.0306228
    outer loop
      vertex 45.8002 45.8002 150.7
      vertex 46.8536 46.1464 162
      vertex 46.1464 46.1464 162
    endloop
  endfacet
  facet normal 0 -0.999531 0.0306228
    outer loop
      vertex 46.8536 46.1464 162
      vertex 45.8002 45.8002 150.7
      vertex 47.1998 45.8002 150.7
    endloop
  endfacet
  facet normal 0 -0.999531 0.030629
    outer loop
      vertex 45.8 45.7573 149.3
      vertex 45.3191 45.3191 135
      vertex 47.2 45.7573 149.3
    endloop
  endfacet
  facet normal -0.000294535 -0.99953 0.0306389
    outer loop
      vertex 45.3191 45.3191 135
      vertex 45.8 45.7573 149.3
      vertex 45.8 45.8 150.693
    endloop
  endfacet
  facet normal 0.000294535 -0.99953 0.0306389
    outer loop
      vertex 47.2 45.7573 149.3
      vertex 47.6809 45.3191 135
      vertex 47.2 45.8 150.693
    endloop
  endfacet
  facet normal 0 -0.999531 0.030629
    outer loop
      vertex 47.6809 45.3191 135
      vertex 47.2 45.7573 149.3
      vertex 45.3191 45.3191 135
    endloop
  endfacet
  facet normal 0.999531 -0 0.0306228
    outer loop
      vertex 46.8536 46.1464 162
      vertex 47.1998 47.1998 150.7
      vertex 46.8536 46.8536 162
    endloop
  endfacet
  facet normal 0.999531 0 0.0306228
    outer loop
      vertex 47.1998 47.1998 150.7
      vertex 46.8536 46.1464 162
      vertex 47.1998 45.8002 150.7
    endloop
  endfacet
  facet normal 0.99953 0.000294535 0.0306389
    outer loop
      vertex 47.2427 47.2 149.3
      vertex 47.6809 47.6809 135
      vertex 47.2 47.2 150.693
    endloop
  endfacet
  facet normal 0.999531 -0 0.030629
    outer loop
      vertex 47.2427 45.8 149.3
      vertex 47.6809 47.6809 135
      vertex 47.2427 47.2 149.3
    endloop
  endfacet
  facet normal 0.999531 0 0.030629
    outer loop
      vertex 47.6809 47.6809 135
      vertex 47.2427 45.8 149.3
      vertex 47.6809 45.3191 135
    endloop
  endfacet
  facet normal 0.99953 -0.000294535 0.0306389
    outer loop
      vertex 47.2 45.8 150.693
      vertex 47.6809 45.3191 135
      vertex 47.2427 45.8 149.3
    endloop
  endfacet
  facet normal -1 0 0
    outer loop
      vertex 39.5 45.8 149.3
      vertex 39.5 47.2 150.7
      vertex 39.5 47.2 149.3
    endloop
  endfacet
  facet normal -1 -0 0
    outer loop
      vertex 39.5 47.2 150.7
      vertex 39.5 45.8 149.3
      vertex 39.5 45.8 150.7
    endloop
  endfacet
  facet normal -0 0 1
    outer loop
      vertex 39.5 47.2 150.7
      vertex 45.8 45.8 150.7
      vertex 45.8 47.2 150.7
    endloop
  endfacet
  facet normal 0 0 1
    outer loop
      vertex 45.8 45.8 150.7
      vertex 39.5 47.2 150.7
      vertex 39.5 45.8 150.7
    endloop
  endfacet
  facet normal 0 0 1
    outer loop
      vertex 45.8 47.2 150.7
      vertex 47.2 47.2 150.7
      vertex 47.2 53.5 150.7
    endloop
  endfacet
  facet normal 0 0 1
    outer loop
      vertex 47.2 47.2 150.7
      vertex 47.1998 47.1998 150.7
      vertex 47.2 45.8 150.7
    endloop
  endfacet
  facet normal -0 0 1
    outer loop
      vertex 47.1998 45.8002 150.7
      vertex 47.2 45.8 150.7
      vertex 47.1998 47.1998 150.7
    endloop
  endfacet
  facet normal 0 0 1
    outer loop
      vertex 47.2 47.2 150.7
      vertex 45.8 47.2 150.7
      vertex 47.1998 47.1998 150.7
    endloop
  endfacet
  facet normal 0 0 1
    outer loop
      vertex 47.1998 47.1998 150.7
      vertex 45.8 47.2 150.7
      vertex 45.8002 47.1998 150.7
    endloop
  endfacet
  facet normal 0 0 1
    outer loop
      vertex 45.8 47.2 150.7
      vertex 47.2 53.5 150.7
      vertex 45.8 53.5 150.7
    endloop
  endfacet
  facet normal -0 0 1
    outer loop
      vertex 47.2 47.2 150.7
      vertex 53.5 45.8 150.7
      vertex 53.5 47.2 150.7
    endloop
  endfacet
  facet normal 0 0 1
    outer loop
      vertex 53.5 45.8 150.7
      vertex 47.2 47.2 150.7
      vertex 47.2 45.8 150.7
    endloop
  endfacet
  facet normal 0 0 1
    outer loop
      vertex 45.8 45.8 150.7
      vertex 47.2 45.8 150.7
      vertex 47.1998 45.8002 150.7
    endloop
  endfacet
  facet normal 0 0 1
    outer loop
      vertex 45.8 45.8 150.7
      vertex 47.1998 45.8002 150.7
      vertex 45.8002 45.8002 150.7
    endloop
  endfacet
  facet normal 0 0 1
    outer loop
      vertex 45.8002 47.1998 150.7
      vertex 45.8 47.2 150.7
      vertex 45.8002 45.8002 150.7
    endloop
  endfacet
  facet normal 0 0 1
    outer loop
      vertex 45.8 45.8 150.7
      vertex 45.8002 45.8002 150.7
      vertex 45.8 47.2 150.7
    endloop
  endfacet
  facet normal 0 0 1
    outer loop
      vertex 47.2 45.8 150.7
      vertex 45.8 45.8 150.7
      vertex 47.2 39.5 150.7
    endloop
  endfacet
  facet normal 0 0 1
    outer loop
      vertex 47.2 39.5 150.7
      vertex 45.8 45.8 150.7
      vertex 45.8 39.5 150.7
    endloop
  endfacet
  facet normal 1 -0 0
    outer loop
      vertex 53.5 45.8 150.7
      vertex 53.5 47.2 149.3
      vertex 53.5 47.2 150.7
    endloop
  endfacet
  facet normal 1 0 0
    outer loop
      vertex 53.5 47.2 149.3
      vertex 53.5 45.8 150.7
      vertex 53.5 45.8 149.3
    endloop
  endfacet
  facet normal 0 1 -0
    outer loop
      vertex 45.8 47.2 150.693
      vertex 39.5 47.2 150.7
      vertex 45.8 47.2 150.7
    endloop
  endfacet
  facet normal 0 1 -0
    outer loop
      vertex 45.7573 47.2 149.3
      vertex 39.5 47.2 150.7
      vertex 45.8 47.2 150.693
    endloop
  endfacet
  facet normal 0 1 0
    outer loop
      vertex 39.5 47.2 150.7
      vertex 45.7573 47.2 149.3
      vertex 39.5 47.2 149.3
    endloop
  endfacet
  facet normal 0 1 0
    outer loop
      vertex 53.5 47.2 150.7
      vertex 47.2 47.2 150.693
      vertex 47.2 47.2 150.7
    endloop
  endfacet
  facet normal 0 1 0
    outer loop
      vertex 47.2427 47.2 149.3
      vertex 53.5 47.2 150.7
      vertex 53.5 47.2 149.3
    endloop
  endfacet
  facet normal 0 1 0
    outer loop
      vertex 53.5 47.2 150.7
      vertex 47.2427 47.2 149.3
      vertex 47.2 47.2 150.693
    endloop
  endfacet
  facet normal 0 0 -1
    outer loop
      vertex 39.5 45.8 149.3
      vertex 45.7573 47.2 149.3
      vertex 45.7573 45.8 149.3
    endloop
  endfacet
  facet normal -0 0 -1
    outer loop
      vertex 45.7573 47.2 149.3
      vertex 39.5 45.8 149.3
      vertex 39.5 47.2 149.3
    endloop
  endfacet
  facet normal 0 0 -1
    outer loop
      vertex 47.2427 45.8 149.3
      vertex 53.5 47.2 149.3
      vertex 53.5 45.8 149.3
    endloop
  endfacet
  facet normal -0 0 -1
    outer loop
      vertex 53.5 47.2 149.3
      vertex 47.2427 45.8 149.3
      vertex 47.2427 47.2 149.3
    endloop
  endfacet
  facet normal 0 -1 0
    outer loop
      vertex 39.5 45.8 150.7
      vertex 45.8 45.8 150.693
      vertex 45.8 45.8 150.7
    endloop
  endfacet
  facet normal 0 -1 0
    outer loop
      vertex 45.7573 45.8 149.3
      vertex 39.5 45.8 150.7
      vertex 39.5 45.8 149.3
    endloop
  endfacet
  facet normal 0 -1 0
    outer loop
      vertex 39.5 45.8 150.7
      vertex 45.7573 45.8 149.3
      vertex 45.8 45.8 150.693
    endloop
  endfacet
  facet normal 0 -1 0
    outer loop
      vertex 47.2 45.8 150.693
      vertex 53.5 45.8 150.7
      vertex 47.2 45.8 150.7
    endloop
  endfacet
  facet normal 0 -1 0
    outer loop
      vertex 47.2427 45.8 149.3
      vertex 53.5 45.8 150.7
      vertex 47.2 45.8 150.693
    endloop
  endfacet
  facet normal 0 -1 -0
    outer loop
      vertex 53.5 45.8 150.7
      vertex 47.2427 45.8 149.3
      vertex 53.5 45.8 149.3
    endloop
  endfacet
  facet normal -1 0 0
    outer loop
      vertex 45.8 39.5 150.7
      vertex 45.8 45.8 150.693
      vertex 45.8 45.7573 149.3
    endloop
  endfacet
  facet normal -1 0 0
    outer loop
      vertex 45.8 39.5 150.7
      vertex 45.8 45.7573 149.3
      vertex 45.8 39.5 149.3
    endloop
  endfacet
  facet normal -1 0 0
    outer loop
      vertex 45.8 45.8 150.693
      vertex 45.8 39.5 150.7
      vertex 45.8 45.8 150.7
    endloop
  endfacet
  facet normal -1 0 0
    outer loop
      vertex 45.8 47.2427 149.3
      vertex 45.8 53.5 150.7
      vertex 45.8 53.5 149.3
    endloop
  endfacet
  facet normal -1 0 0
    outer loop
      vertex 45.8 47.2 150.693
      vertex 45.8 53.5 150.7
      vertex 45.8 47.2427 149.3
    endloop
  endfacet
  facet normal -1 -0 0
    outer loop
      vertex 45.8 53.5 150.7
      vertex 45.8 47.2 150.693
      vertex 45.8 47.2 150.7
    endloop
  endfacet
  facet normal 1 -0 0
    outer loop
      vertex 47.2 39.5 150.7
      vertex 47.2 45.8 150.693
      vertex 47.2 45.8 150.7
    endloop
  endfacet
  facet normal 1 0 0
    outer loop
      vertex 47.2 45.8 150.693
      vertex 47.2 39.5 150.7
      vertex 47.2 45.7573 149.3
    endloop
  endfacet
  facet normal 1 0 0
    outer loop
      vertex 47.2 45.7573 149.3
      vertex 47.2 39.5 150.7
      vertex 47.2 39.5 149.3
    endloop
  endfacet
  facet normal 1 0 0
    outer loop
      vertex 47.2 53.5 150.7
      vertex 47.2 47.2427 149.3
      vertex 47.2 53.5 149.3
    endloop
  endfacet
  facet normal 1 0 0
    outer loop
      vertex 47.2 47.2 150.693
      vertex 47.2 53.5 150.7
      vertex 47.2 47.2 150.7
    endloop
  endfacet
  facet normal 1 0 0
    outer loop
      vertex 47.2 53.5 150.7
      vertex 47.2 47.2 150.693
      vertex 47.2 47.2427 149.3
    endloop
  endfacet
  facet normal 0 1 -0
    outer loop
      vertex 47.2 53.5 149.3
      vertex 45.8 53.5 150.7
      vertex 47.2 53.5 150.7
    endloop
  endfacet
  facet normal 0 1 0
    outer loop
      vertex 45.8 53.5 150.7
      vertex 47.2 53.5 149.3
      vertex 45.8 53.5 149.3
    endloop
  endfacet
  facet normal 0 0 -1
    outer loop
      vertex 45.8 39.5 149.3
      vertex 47.2 45.7573 149.3
      vertex 47.2 39.5 149.3
    endloop
  endfacet
  facet normal -0 0 -1
    outer loop
      vertex 47.2 45.7573 149.3
      vertex 45.8 39.5 149.3
      vertex 45.8 45.7573 149.3
    endloop
  endfacet
  facet normal 0 0 -1
    outer loop
      vertex 45.8 47.2427 149.3
      vertex 47.2 53.5 149.3
      vertex 47.2 47.2427 149.3
    endloop
  endfacet
  facet normal -0 0 -1
    outer loop
      vertex 47.2 53.5 149.3
      vertex 45.8 47.2427 149.3
      vertex 45.8 53.5 149.3
    endloop
  endfacet
  facet normal 0 -1 0
    outer loop
      vertex 45.8 39.5 149.3
      vertex 47.2 39.5 150.7
      vertex 45.8 39.5 150.7
    endloop
  endfacet
  facet normal 0 -1 -0
    outer loop
      vertex 47.2 39.5 150.7
      vertex 45.8 39.5 149.3
      vertex 47.2 39.5 149.3
    endloop
  endfacet
  facet normal 0.687902 0.706781 -0.165083
    outer loop
      vertex 52.4247 46.5 132
      vertex 51.5 47.4 132
      vertex 56.1024 46.5 147.325
    endloop
  endfacet
  facet normal -0.670888 0.706746 0.224543
    outer loop
      vertex 51.5 47.4 132
      vertex 50.6349 46.5 132.248
      vertex 55.9102 46.7 147.38
    endloop
  endfacet
  facet normal 0.275118 0 0.961411
    outer loop
      vertex 55.9102 46.7 147.38
      vertex 55.9102 46.3 147.38
      vertex 56.1024 46.5 147.325
    endloop
  endfacet
  facet normal -0.275572 0 -0.96128
    outer loop
      vertex 51.5 46.5 132
      vertex 50.6349 46.5 132.248
      vertex 51.5 47.4 132
    endloop
  endfacet
  facet normal -0.670859 -0.706777 0.224532
    outer loop
      vertex 55.7179 46.5 147.435
      vertex 50.6349 46.5 132.248
      vertex 55.9102 46.3 147.38
    endloop
  endfacet
  facet normal 0.688048 0.706626 -0.165136
    outer loop
      vertex 56.1024 46.5 147.325
      vertex 51.5 47.4 132
      vertex 55.9102 46.7 147.38
    endloop
  endfacet
  facet normal -0.275572 0 -0.96128
    outer loop
      vertex 51.5 45.6 132
      vertex 50.6349 46.5 132.248
      vertex 51.5 46.5 132
    endloop
  endfacet
  facet normal 0.687902 -0.706781 -0.165083
    outer loop
      vertex 56.1024 46.5 147.325
      vertex 51.5 45.6 132
      vertex 52.4247 46.5 132
    endloop
  endfacet
  facet normal -0.670888 -0.706746 0.224543
    outer loop
      vertex 55.9102 46.3 147.38
      vertex 50.6349 46.5 132.248
      vertex 51.5 45.6 132
    endloop
  endfacet
  facet normal 0.688048 -0.706626 -0.165136
    outer loop
      vertex 55.9102 46.3 147.38
      vertex 51.5 45.6 132
      vertex 56.1024 46.5 147.325
    endloop
  endfacet
  facet normal 0.274985 0 0.961448
    outer loop
      vertex 55.9102 46.7 147.38
      vertex 55.7179 46.5 147.435
      vertex 55.9102 46.3 147.38
    endloop
  endfacet
  facet normal -0.670859 0.706777 0.224532
    outer loop
      vertex 55.9102 46.7 147.38
      vertex 50.6349 46.5 132.248
      vertex 55.7179 46.5 147.435
    endloop
  endfacet
  facet normal 1 -0 0
    outer loop
      vertex 16.5 0 72
      vertex 16.5 3 18.5
      vertex 16.5 3 72
    endloop
  endfacet
  facet normal 1 0 0
    outer loop
      vertex 16.5 3 18.5
      vertex 16.5 0 72
      vertex 16.5 0 18.5
    endloop
  endfacet
  facet normal 1 -0 0
    outer loop
      vertex 16.5 0 15.5
      vertex 16.5 3 0
      vertex 16.5 3 15.5
    endloop
  endfacet
  facet normal 1 0 0
    outer loop
      vertex 16.5 3 0
      vertex 16.5 0 15.5
      vertex 16.5 0 0
    endloop
  endfacet
  facet normal 0 0 -1
    outer loop
      vertex 16.5 0 72
      vertex 20.5 3 72
      vertex 20.5 0 72
    endloop
  endfacet
  facet normal -0 0 -1
    outer loop
      vertex 20.5 3 72
      vertex 16.5 0 72
      vertex 16.5 3 72
    endloop
  endfacet
  facet normal -1 0 0
    outer loop
      vertex 20.5 0 18.5
      vertex 20.5 3 72
      vertex 20.5 3 18.5
    endloop
  endfacet
  facet normal -1 -0 0
    outer loop
      vertex 20.5 3 72
      vertex 20.5 0 18.5
      vertex 20.5 0 72
    endloop
  endfacet
  facet normal -1 0 0
    outer loop
      vertex 20.5 0 0
      vertex 20.5 3 15.5
      vertex 20.5 3 0
    endloop
  endfacet
  facet normal -1 -0 0
    outer loop
      vertex 20.5 3 15.5
      vertex 20.5 0 0
      vertex 20.5 0 15.5
    endloop
  endfacet
  facet normal 1 -0 0
    outer loop
      vertex 23.5 0 72
      vertex 23.5 3 18.5
      vertex 23.5 3 72
    endloop
  endfacet
  facet normal 1 0 0
    outer loop
      vertex 23.5 3 18.5
      vertex 23.5 0 72
      vertex 23.5 0 18.5
    endloop
  endfacet
  facet normal 1 -0 0
    outer loop
      vertex 23.5 0 15.5
      vertex 23.5 3 0
      vertex 23.5 3 15.5
    endloop
  endfacet
  facet normal 1 0 0
    outer loop
      vertex 23.5 3 0
      vertex 23.5 0 15.5
      vertex 23.5 0 0
    endloop
  endfacet
  facet normal 0 0 -1
    outer loop
      vertex 23.5 0 72
      vertex 27.5 3 72
      vertex 27.5 0 72
    endloop
  endfacet
  facet normal -0 0 -1
    outer loop
      vertex 27.5 3 72
      vertex 23.5 0 72
      vertex 23.5 3 72
    endloop
  endfacet
  facet normal -1 0 0
    outer loop
      vertex 27.5 0 18.5
      vertex 27.5 3 72
      vertex 27.5 3 18.5
    endloop
  endfacet
  facet normal -1 -0 0
    outer loop
      vertex 27.5 3 72
      vertex 27.5 0 18.5
      vertex 27.5 0 72
    endloop
  endfacet
  facet normal -1 0 0
    outer loop
      vertex 27.5 0 0
      vertex 27.5 3 15.5
      vertex 27.5 3 0
    endloop
  endfacet
  facet normal -1 -0 0
    outer loop
      vertex 27.5 3 15.5
      vertex 27.5 0 0
      vertex 27.5 0 15.5
    endloop
  endfacet
  facet normal 1 -0 0
    outer loop
      vertex 30.5 0 72
      vertex 30.5 3 18.5
      vertex 30.5 3 72
    endloop
  endfacet
  facet normal 1 0 0
    outer loop
      vertex 30.5 3 18.5
      vertex 30.5 0 72
      vertex 30.5 0 18.5
    endloop
  endfacet
  facet normal 1 -0 0
    outer loop
      vertex 30.5 0 15.5
      vertex 30.5 3 0
      vertex 30.5 3 15.5
    endloop
  endfacet
  facet normal 1 0 0
    outer loop
      vertex 30.5 3 0
      vertex 30.5 0 15.5
      vertex 30.5 0 0
    endloop
  endfacet
  facet normal 0 0 -1
    outer loop
      vertex 30.5 0 72
      vertex 34.5 3 72
      vertex 34.5 0 72
    endloop
  endfacet
  facet normal -0 0 -1
    outer loop
      vertex 34.5 3 72
      vertex 30.5 0 72
      vertex 30.5 3 72
    endloop
  endfacet
  facet normal -1 0 0
    outer loop
      vertex 34.5 0 18.5
      vertex 34.5 3 72
      vertex 34.5 3 18.5
    endloop
  endfacet
  facet normal -1 -0 0
    outer loop
      vertex 34.5 3 72
      vertex 34.5 0 18.5
      vertex 34.5 0 72
    endloop
  endfacet
  facet normal -1 0 0
    outer loop
      vertex 34.5 0 0
      vertex 34.5 3 15.5
      vertex 34.5 3 0
    endloop
  endfacet
  facet normal -1 -0 0
    outer loop
      vertex 34.5 3 15.5
      vertex 34.5 0 0
      vertex 34.5 0 15.5
    endloop
  endfacet
  facet normal 1 -0 0
    outer loop
      vertex 37.5 0 72
      vertex 37.5 3 18.5
      vertex 37.5 3 72
    endloop
  endfacet
  facet normal 1 0 0
    outer loop
      vertex 37.5 3 18.5
      vertex 37.5 0 72
      vertex 37.5 0 18.5
    endloop
  endfacet
  facet normal 1 -0 0
    outer loop
      vertex 37.5 0 15.5
      vertex 37.5 3 0
      vertex 37.5 3 15.5
    endloop
  endfacet
  facet normal 1 0 0
    outer loop
      vertex 37.5 3 0
      vertex 37.5 0 15.5
      vertex 37.5 0 0
    endloop
  endfacet
  facet normal 0 0 -1
    outer loop
      vertex 37.5 0 72
      vertex 41.5 3 72
      vertex 41.5 0 72
    endloop
  endfacet
  facet normal -0 0 -1
    outer loop
      vertex 41.5 3 72
      vertex 37.5 0 72
      vertex 37.5 3 72
    endloop
  endfacet
  facet normal -1 0 0
    outer loop
      vertex 41.5 0 18.5
      vertex 41.5 3 72
      vertex 41.5 3 18.5
    endloop
  endfacet
  facet normal -1 -0 0
    outer loop
      vertex 41.5 3 72
      vertex 41.5 0 18.5
      vertex 41.5 0 72
    endloop
  endfacet
  facet normal -1 0 0
    outer loop
      vertex 41.5 0 0
      vertex 41.5 3 15.5
      vertex 41.5 3 0
    endloop
  endfacet
  facet normal -1 -0 0
    outer loop
      vertex 41.5 3 15.5
      vertex 41.5 0 0
      vertex 41.5 0 15.5
    endloop
  endfacet
  facet normal 1 -0 0
    outer loop
      vertex 44.5 0 72
      vertex 44.5 3 18.5
      vertex 44.5 3 72
    endloop
  endfacet
  facet normal 1 0 0
    outer loop
      vertex 44.5 3 18.5
      vertex 44.5 0 72
      vertex 44.5 0 18.5
    endloop
  endfacet
  facet normal 1 -0 0
    outer loop
      vertex 44.5 0 15.5
      vertex 44.5 3 0
      vertex 44.5 3 15.5
    endloop
  endfacet
  facet normal 1 0 0
    outer loop
      vertex 44.5 3 0
      vertex 44.5 0 15.5
      vertex 44.5 0 0
    endloop
  endfacet
  facet normal 0 0 -1
    outer loop
      vertex 44.5 0 72
      vertex 48.5 3 72
      vertex 48.5 0 72
    endloop
  endfacet
  facet normal -0 0 -1
    outer loop
      vertex 48.5 3 72
      vertex 44.5 0 72
      vertex 44.5 3 72
    endloop
  endfacet
  facet normal -1 0 0
    outer loop
      vertex 48.5 0 18.5
      vertex 48.5 3 72
      vertex 48.5 3 18.5
    endloop
  endfacet
  facet normal -1 -0 0
    outer loop
      vertex 48.5 3 72
      vertex 48.5 0 18.5
      vertex 48.5 0 72
    endloop
  endfacet
  facet normal -1 0 0
    outer loop
      vertex 48.5 0 0
      vertex 48.5 3 15.5
      vertex 48.5 3 0
    endloop
  endfacet
  facet normal -1 -0 0
    outer loop
      vertex 48.5 3 15.5
      vertex 48.5 0 0
      vertex 48.5 0 15.5
    endloop
  endfacet
  facet normal 1 -0 0
    outer loop
      vertex 51.5 0 72
      vertex 51.5 3 18.5
      vertex 51.5 3 72
    endloop
  endfacet
  facet normal 1 0 0
    outer loop
      vertex 51.5 3 18.5
      vertex 51.5 0 72
      vertex 51.5 0 18.5
    endloop
  endfacet
  facet normal 1 -0 0
    outer loop
      vertex 51.5 0 15.5
      vertex 51.5 3 0
      vertex 51.5 3 15.5
    endloop
  endfacet
  facet normal 1 0 0
    outer loop
      vertex 51.5 3 0
      vertex 51.5 0 15.5
      vertex 51.5 0 0
    endloop
  endfacet
  facet normal 0 0 -1
    outer loop
      vertex 51.5 0 72
      vertex 55.5 3 72
      vertex 55.5 0 72
    endloop
  endfacet
  facet normal -0 0 -1
    outer loop
      vertex 55.5 3 72
      vertex 51.5 0 72
      vertex 51.5 3 72
    endloop
  endfacet
  facet normal -1 0 0
    outer loop
      vertex 55.5 0 18.5
      vertex 55.5 3 72
      vertex 55.5 3 18.5
    endloop
  endfacet
  facet normal -1 -0 0
    outer loop
      vertex 55.5 3 72
      vertex 55.5 0 18.5
      vertex 55.5 0 72
    endloop
  endfacet
  facet normal -1 0 0
    outer loop
      vertex 55.5 0 0
      vertex 55.5 3 15.5
      vertex 55.5 3 0
    endloop
  endfacet
  facet normal -1 -0 0
    outer loop
      vertex 55.5 3 15.5
      vertex 55.5 0 0
      vertex 55.5 0 15.5
    endloop
  endfacet
  facet normal 1 -0 0
    outer loop
      vertex 58.5 0 72
      vertex 58.5 3 18.5
      vertex 58.5 3 72
    endloop
  endfacet
  facet normal 1 0 0
    outer loop
      vertex 58.5 3 18.5
      vertex 58.5 0 72
      vertex 58.5 0 18.5
    endloop
  endfacet
  facet normal 1 -0 0
    outer loop
      vertex 58.5 0 15.5
      vertex 58.5 3 0
      vertex 58.5 3 15.5
    endloop
  endfacet
  facet normal 1 0 0
    outer loop
      vertex 58.5 3 0
      vertex 58.5 0 15.5
      vertex 58.5 0 0
    endloop
  endfacet
  facet normal 0 0 -1
    outer loop
      vertex 58.5 0 72
      vertex 62.5 3 72
      vertex 62.5 0 72
    endloop
  endfacet
  facet normal -0 0 -1
    outer loop
      vertex 62.5 3 72
      vertex 58.5 0 72
      vertex 58.5 3 72
    endloop
  endfacet
  facet normal -1 0 0
    outer loop
      vertex 62.5 0 18.5
      vertex 62.5 3 72
      vertex 62.5 3 18.5
    endloop
  endfacet
  facet normal -1 -0 0
    outer loop
      vertex 62.5 3 72
      vertex 62.5 0 18.5
      vertex 62.5 0 72
    endloop
  endfacet
  facet normal -1 0 0
    outer loop
      vertex 62.5 0 0
      vertex 62.5 3 15.5
      vertex 62.5 3 0
    endloop
  endfacet
  facet normal -1 -0 0
    outer loop
      vertex 62.5 3 15.5
      vertex 62.5 0 0
      vertex 62.5 0 15.5
    endloop
  endfacet
  facet normal 1 -0 0
    outer loop
      vertex 65.5 0 72
      vertex 65.5 3 18.5
      vertex 65.5 3 72
    endloop
  endfacet
  facet normal 1 0 0
    outer loop
      vertex 65.5 3 18.5
      vertex 65.5 0 72
      vertex 65.5 0 18.5
    endloop
  endfacet
  facet normal 1 -0 0
    outer loop
      vertex 65.5 0 15.5
      vertex 65.5 3 0
      vertex 65.5 3 15.5
    endloop
  endfacet
  facet normal 1 0 0
    outer loop
      vertex 65.5 3 0
      vertex 65.5 0 15.5
      vertex 65.5 0 0
    endloop
  endfacet
  facet normal 0 0 -1
    outer loop
      vertex 65.5 0 72
      vertex 69.5 3 72
      vertex 69.5 0 72
    endloop
  endfacet
  facet normal -0 0 -1
    outer loop
      vertex 69.5 3 72
      vertex 65.5 0 72
      vertex 65.5 3 72
    endloop
  endfacet
  facet normal -1 0 0
    outer loop
      vertex 69.5 0 18.5
      vertex 69.5 3 72
      vertex 69.5 3 18.5
    endloop
  endfacet
  facet normal -1 -0 0
    outer loop
      vertex 69.5 3 72
      vertex 69.5 0 18.5
      vertex 69.5 0 72
    endloop
  endfacet
  facet normal -1 0 0
    outer loop
      vertex 69.5 0 0
      vertex 69.5 3 15.5
      vertex 69.5 3 0
    endloop
  endfacet
  facet normal -1 -0 0
    outer loop
      vertex 69.5 3 15.5
      vertex 69.5 0 0
      vertex 69.5 0 15.5
    endloop
  endfacet
  facet normal 1 -0 0
    outer loop
      vertex 72.5 0 72
      vertex 72.5 3 18.5
      vertex 72.5 3 72
    endloop
  endfacet
  facet normal 1 0 0
    outer loop
      vertex 72.5 3 18.5
      vertex 72.5 0 72
      vertex 72.5 0 18.5
    endloop
  endfacet
  facet normal 1 -0 0
    outer loop
      vertex 72.5 0 15.5
      vertex 72.5 3 0
      vertex 72.5 3 15.5
    endloop
  endfacet
  facet normal 1 0 0
    outer loop
      vertex 72.5 3 0
      vertex 72.5 0 15.5
      vertex 72.5 0 0
    endloop
  endfacet
  facet normal 0 0 -1
    outer loop
      vertex 72.5 0 72
      vertex 76.5 3 72
      vertex 76.5 0 72
    endloop
  endfacet
  facet normal -0 0 -1
    outer loop
      vertex 76.5 3 72
      vertex 72.5 0 72
      vertex 72.5 3 72
    endloop
  endfacet
  facet normal -1 0 0
    outer loop
      vertex 76.5 0 18.5
      vertex 76.5 3 72
      vertex 76.5 3 18.5
    endloop
  endfacet
  facet normal -1 -0 0
    outer loop
      vertex 76.5 3 72
      vertex 76.5 0 18.5
      vertex 76.5 0 72
    endloop
  endfacet
  facet normal -1 0 0
    outer loop
      vertex 76.5 0 0
      vertex 76.5 3 15.5
      vertex 76.5 3 0
    endloop
  endfacet
  facet normal -1 -0 0
    outer loop
      vertex 76.5 3 15.5
      vertex 76.5 0 0
      vertex 76.5 0 15.5
    endloop
  endfacet
  facet normal -0 0 1
    outer loop
      vertex 16.5 3 18.5
      vertex 20.5 0 18.5
      vertex 20.5 3 18.5
    endloop
  endfacet
  facet normal 0 0 1
    outer loop
      vertex 20.5 0 18.5
      vertex 16.5 3 18.5
      vertex 16.5 0 18.5
    endloop
  endfacet
  facet normal -0 0 1
    outer loop
      vertex 23.5 3 18.5
      vertex 27.5 0 18.5
      vertex 27.5 3 18.5
    endloop
  endfacet
  facet normal 0 0 1
    outer loop
      vertex 27.5 0 18.5
      vertex 23.5 3 18.5
      vertex 23.5 0 18.5
    endloop
  endfacet
  facet normal -0 0 1
    outer loop
      vertex 30.5 3 18.5
      vertex 34.5 0 18.5
      vertex 34.5 3 18.5
    endloop
  endfacet
  facet normal 0 0 1
    outer loop
      vertex 34.5 0 18.5
      vertex 30.5 3 18.5
      vertex 30.5 0 18.5
    endloop
  endfacet
  facet normal -0 0 1
    outer loop
      vertex 37.5 3 18.5
      vertex 41.5 0 18.5
      vertex 41.5 3 18.5
    endloop
  endfacet
  facet normal 0 0 1
    outer loop
      vertex 41.5 0 18.5
      vertex 37.5 3 18.5
      vertex 37.5 0 18.5
    endloop
  endfacet
  facet normal -0 0 1
    outer loop
      vertex 44.5 3 18.5
      vertex 48.5 0 18.5
      vertex 48.5 3 18.5
    endloop
  endfacet
  facet normal 0 0 1
    outer loop
      vertex 48.5 0 18.5
      vertex 44.5 3 18.5
      vertex 44.5 0 18.5
    endloop
  endfacet
  facet normal -0 0 1
    outer loop
      vertex 51.5 3 18.5
      vertex 55.5 0 18.5
      vertex 55.5 3 18.5
    endloop
  endfacet
  facet normal 0 0 1
    outer loop
      vertex 55.5 0 18.5
      vertex 51.5 3 18.5
      vertex 51.5 0 18.5
    endloop
  endfacet
  facet normal -0 0 1
    outer loop
      vertex 58.5 3 18.5
      vertex 62.5 0 18.5
      vertex 62.5 3 18.5
    endloop
  endfacet
  facet normal 0 0 1
    outer loop
      vertex 62.5 0 18.5
      vertex 58.5 3 18.5
      vertex 58.5 0 18.5
    endloop
  endfacet
  facet normal -0 0 1
    outer loop
      vertex 65.5 3 18.5
      vertex 69.5 0 18.5
      vertex 69.5 3 18.5
    endloop
  endfacet
  facet normal 0 0 1
    outer loop
      vertex 69.5 0 18.5
      vertex 65.5 3 18.5
      vertex 65.5 0 18.5
    endloop
  endfacet
  facet normal -0 0 1
    outer loop
      vertex 72.5 3 18.5
      vertex 76.5 0 18.5
      vertex 76.5 3 18.5
    endloop
  endfacet
  facet normal 0 0 1
    outer loop
      vertex 76.5 0 18.5
      vertex 72.5 3 18.5
      vertex 72.5 0 18.5
    endloop
  endfacet
  facet normal 0 0 -1
    outer loop
      vertex 16.5 0 15.5
      vertex 20.5 3 15.5
      vertex 20.5 0 15.5
    endloop
  endfacet
  facet normal -0 0 -1
    outer loop
      vertex 20.5 3 15.5
      vertex 16.5 0 15.5
      vertex 16.5 3 15.5
    endloop
  endfacet
  facet normal 0 0 -1
    outer loop
      vertex 23.5 0 15.5
      vertex 27.5 3 15.5
      vertex 27.5 0 15.5
    endloop
  endfacet
  facet normal -0 0 -1
    outer loop
      vertex 27.5 3 15.5
      vertex 23.5 0 15.5
      vertex 23.5 3 15.5
    endloop
  endfacet
  facet normal 0 0 -1
    outer loop
      vertex 30.5 0 15.5
      vertex 34.5 3 15.5
      vertex 34.5 0 15.5
    endloop
  endfacet
  facet normal -0 0 -1
    outer loop
      vertex 34.5 3 15.5
      vertex 30.5 0 15.5
      vertex 30.5 3 15.5
    endloop
  endfacet
  facet normal 0 0 -1
    outer loop
      vertex 37.5 0 15.5
      vertex 41.5 3 15.5
      vertex 41.5 0 15.5
    endloop
  endfacet
  facet normal -0 0 -1
    outer loop
      vertex 41.5 3 15.5
      vertex 37.5 0 15.5
      vertex 37.5 3 15.5
    endloop
  endfacet
  facet normal 0 0 -1
    outer loop
      vertex 44.5 0 15.5
      vertex 48.5 3 15.5
      vertex 48.5 0 15.5
    endloop
  endfacet
  facet normal -0 0 -1
    outer loop
      vertex 48.5 3 15.5
      vertex 44.5 0 15.5
      vertex 44.5 3 15.5
    endloop
  endfacet
  facet normal 0 0 -1
    outer loop
      vertex 51.5 0 15.5
      vertex 55.5 3 15.5
      vertex 55.5 0 15.5
    endloop
  endfacet
  facet normal -0 0 -1
    outer loop
      vertex 55.5 3 15.5
      vertex 51.5 0 15.5
      vertex 51.5 3 15.5
    endloop
  endfacet
  facet normal 0 0 -1
    outer loop
      vertex 58.5 0 15.5
      vertex 62.5 3 15.5
      vertex 62.5 0 15.5
    endloop
  endfacet
  facet normal -0 0 -1
    outer loop
      vertex 62.5 3 15.5
      vertex 58.5 0 15.5
      vertex 58.5 3 15.5
    endloop
  endfacet
  facet normal 0 0 -1
    outer loop
      vertex 65.5 0 15.5
      vertex 69.5 3 15.5
      vertex 69.5 0 15.5
    endloop
  endfacet
  facet normal -0 0 -1
    outer loop
      vertex 69.5 3 15.5
      vertex 65.5 0 15.5
      vertex 65.5 3 15.5
    endloop
  endfacet
  facet normal 0 0 -1
    outer loop
      vertex 72.5 0 15.5
      vertex 76.5 3 15.5
      vertex 76.5 0 15.5
    endloop
  endfacet
  facet normal -0 0 -1
    outer loop
      vertex 76.5 3 15.5
      vertex 72.5 0 15.5
      vertex 72.5 3 15.5
    endloop
  endfacet
  facet normal 0 0 -1
    outer loop
      vertex 16.5 0 0
      vertex 3 3 0
      vertex 16.5 3 0
    endloop
  endfacet
  facet normal -0 0 -1
    outer loop
      vertex 3 3 0
      vertex 0 0 0
      vertex 3 90 0
    endloop
  endfacet
  facet normal 0 0 -1
    outer loop
      vertex 0 0 0
      vertex 3 3 0
      vertex 16.5 0 0
    endloop
  endfacet
  facet normal 0 0 -1
    outer loop
      vertex 93 0 0
      vertex 90 3 0
      vertex 93 93 0
    endloop
  endfacet
  facet normal 0 0 -1
    outer loop
      vertex 76.5 0 0
      vertex 90 3 0
      vertex 93 0 0
    endloop
  endfacet
  facet normal -0 0 -1
    outer loop
      vertex 90 3 0
      vertex 76.5 0 0
      vertex 76.5 3 0
    endloop
  endfacet
  facet normal 0 0 -1
    outer loop
      vertex 90 90 0
      vertex 93 93 0
      vertex 90 3 0
    endloop
  endfacet
  facet normal 0 0 -1
    outer loop
      vertex 3 90 0
      vertex 93 93 0
      vertex 90 90 0
    endloop
  endfacet
  facet normal 0 0 -1
    outer loop
      vertex 3 90 0
      vertex 0 93 0
      vertex 93 93 0
    endloop
  endfacet
  facet normal 0 0 -1
    outer loop
      vertex 0 93 0
      vertex 3 90 0
      vertex 0 0 0
    endloop
  endfacet
  facet normal 0 0 -1
    outer loop
      vertex 20.5 0 0
      vertex 23.5 3 0
      vertex 23.5 0 0
    endloop
  endfacet
  facet normal -0 0 -1
    outer loop
      vertex 23.5 3 0
      vertex 20.5 0 0
      vertex 20.5 3 0
    endloop
  endfacet
  facet normal 0 0 -1
    outer loop
      vertex 27.5 0 0
      vertex 30.5 3 0
      vertex 30.5 0 0
    endloop
  endfacet
  facet normal -0 0 -1
    outer loop
      vertex 30.5 3 0
      vertex 27.5 0 0
      vertex 27.5 3 0
    endloop
  endfacet
  facet normal 0 0 -1
    outer loop
      vertex 34.5 0 0
      vertex 37.5 3 0
      vertex 37.5 0 0
    endloop
  endfacet
  facet normal -0 0 -1
    outer loop
      vertex 37.5 3 0
      vertex 34.5 0 0
      vertex 34.5 3 0
    endloop
  endfacet
  facet normal 0 0 -1
    outer loop
      vertex 41.5 0 0
      vertex 44.5 3 0
      vertex 44.5 0 0
    endloop
  endfacet
  facet normal -0 0 -1
    outer loop
      vertex 44.5 3 0
      vertex 41.5 0 0
      vertex 41.5 3 0
    endloop
  endfacet
  facet normal 0 0 -1
    outer loop
      vertex 48.5 0 0
      vertex 51.5 3 0
      vertex 51.5 0 0
    endloop
  endfacet
  facet normal -0 0 -1
    outer loop
      vertex 51.5 3 0
      vertex 48.5 0 0
      vertex 48.5 3 0
    endloop
  endfacet
  facet normal 0 0 -1
    outer loop
      vertex 55.5 0 0
      vertex 58.5 3 0
      vertex 58.5 0 0
    endloop
  endfacet
  facet normal -0 0 -1
    outer loop
      vertex 58.5 3 0
      vertex 55.5 0 0
      vertex 55.5 3 0
    endloop
  endfacet
  facet normal 0 0 -1
    outer loop
      vertex 62.5 0 0
      vertex 65.5 3 0
      vertex 65.5 0 0
    endloop
  endfacet
  facet normal -0 0 -1
    outer loop
      vertex 65.5 3 0
      vertex 62.5 0 0
      vertex 62.5 3 0
    endloop
  endfacet
  facet normal 0 0 -1
    outer loop
      vertex 69.5 0 0
      vertex 72.5 3 0
      vertex 72.5 0 0
    endloop
  endfacet
  facet normal -0 0 -1
    outer loop
      vertex 72.5 3 0
      vertex 69.5 0 0
      vertex 69.5 3 0
    endloop
  endfacet
endsolid OpenSCAD_Model
