solid OpenSCAD_Model
  facet normal -1 0 0
    outer loop
      vertex 0 0 0
      vertex 0 93 115
      vertex 0 93 0
    endloop
  endfacet
  facet normal -1 -0 0
    outer loop
      vertex 0 93 115
      vertex 0 0 0
      vertex 0 0 115
    endloop
  endfacet
  facet normal 1 -0 0
    outer loop
      vertex 93 0 115
      vertex 93 93 0
      vertex 93 93 115
    endloop
  endfacet
  facet normal 1 0 0
    outer loop
      vertex 93 93 0
      vertex 93 0 115
      vertex 93 0 0
    endloop
  endfacet
  facet normal 0 1 0
    outer loop
      vertex 93 93 115
      vertex 46.5 93 52
      vertex 0 93 115
    endloop
  endfacet
  facet normal 0 1 0
    outer loop
      vertex 93 93 115
      vertex 47.4137 93 51.9401
      vertex 46.5 93 52
    endloop
  endfacet
  facet normal 0 1 0
    outer loop
      vertex 93 93 115
      vertex 48.3117 93 51.7615
      vertex 47.4137 93 51.9401
    endloop
  endfacet
  facet normal 0 1 0
    outer loop
      vertex 93 93 115
      vertex 49.1788 93 51.4672
      vertex 48.3117 93 51.7615
    endloop
  endfacet
  facet normal 0 1 0
    outer loop
      vertex 93 93 115
      vertex 50 93 51.0622
      vertex 49.1788 93 51.4672
    endloop
  endfacet
  facet normal 0 1 0
    outer loop
      vertex 93 93 115
      vertex 50.7613 93 50.5535
      vertex 50 93 51.0622
    endloop
  endfacet
  facet normal 0 1 0
    outer loop
      vertex 93 93 115
      vertex 51.4497 93 49.9497
      vertex 50.7613 93 50.5535
    endloop
  endfacet
  facet normal 0 1 0
    outer loop
      vertex 93 93 115
      vertex 52.0535 93 49.2613
      vertex 51.4497 93 49.9497
    endloop
  endfacet
  facet normal 0 1 0
    outer loop
      vertex 93 93 115
      vertex 52.5622 93 48.5
      vertex 52.0535 93 49.2613
    endloop
  endfacet
  facet normal 0 1 0
    outer loop
      vertex 93 93 115
      vertex 52.9672 93 47.6788
      vertex 52.5622 93 48.5
    endloop
  endfacet
  facet normal 0 1 0
    outer loop
      vertex 93 93 115
      vertex 53.2615 93 46.8117
      vertex 52.9672 93 47.6788
    endloop
  endfacet
  facet normal 0 1 0
    outer loop
      vertex 93 93 115
      vertex 53.4401 93 45.9137
      vertex 53.2615 93 46.8117
    endloop
  endfacet
  facet normal 0 1 -0
    outer loop
      vertex 93 93 0
      vertex 53.4401 93 45.9137
      vertex 93 93 115
    endloop
  endfacet
  facet normal 0 1 0
    outer loop
      vertex 53.4401 93 45.9137
      vertex 93 93 0
      vertex 53.5 93 45
    endloop
  endfacet
  facet normal 0 1 0
    outer loop
      vertex 53.5 93 45
      vertex 93 93 0
      vertex 53.4401 93 44.0863
    endloop
  endfacet
  facet normal 0 1 0
    outer loop
      vertex 53.4401 93 44.0863
      vertex 93 93 0
      vertex 53.2615 93 43.1883
    endloop
  endfacet
  facet normal 0 1 0
    outer loop
      vertex 53.2615 93 43.1883
      vertex 93 93 0
      vertex 52.9672 93 42.3212
    endloop
  endfacet
  facet normal 0 1 0
    outer loop
      vertex 47.4137 93 38.0599
      vertex 93 93 0
      vertex 46.5 93 38
    endloop
  endfacet
  facet normal 0 1 0
    outer loop
      vertex 48.3117 93 38.2385
      vertex 93 93 0
      vertex 47.4137 93 38.0599
    endloop
  endfacet
  facet normal 0 1 0
    outer loop
      vertex 49.1788 93 38.5328
      vertex 93 93 0
      vertex 48.3117 93 38.2385
    endloop
  endfacet
  facet normal 0 1 0
    outer loop
      vertex 50 93 38.9378
      vertex 93 93 0
      vertex 49.1788 93 38.5328
    endloop
  endfacet
  facet normal 0 1 0
    outer loop
      vertex 50.7613 93 39.4465
      vertex 93 93 0
      vertex 50 93 38.9378
    endloop
  endfacet
  facet normal 0 1 0
    outer loop
      vertex 51.4497 93 40.0503
      vertex 93 93 0
      vertex 50.7613 93 39.4465
    endloop
  endfacet
  facet normal 0 1 0
    outer loop
      vertex 52.0535 93 40.7387
      vertex 93 93 0
      vertex 51.4497 93 40.0503
    endloop
  endfacet
  facet normal 0 1 0
    outer loop
      vertex 52.5622 93 41.5
      vertex 93 93 0
      vertex 52.0535 93 40.7387
    endloop
  endfacet
  facet normal 0 1 0
    outer loop
      vertex 52.9672 93 42.3212
      vertex 93 93 0
      vertex 52.5622 93 41.5
    endloop
  endfacet
  facet normal 0 1 -0
    outer loop
      vertex 45.5863 93 51.9401
      vertex 0 93 115
      vertex 46.5 93 52
    endloop
  endfacet
  facet normal 0 1 -0
    outer loop
      vertex 44.6883 93 51.7615
      vertex 0 93 115
      vertex 45.5863 93 51.9401
    endloop
  endfacet
  facet normal 0 1 -0
    outer loop
      vertex 43.8212 93 51.4672
      vertex 0 93 115
      vertex 44.6883 93 51.7615
    endloop
  endfacet
  facet normal 0 1 -0
    outer loop
      vertex 43 93 51.0622
      vertex 0 93 115
      vertex 43.8212 93 51.4672
    endloop
  endfacet
  facet normal 0 1 -0
    outer loop
      vertex 42.2387 93 50.5535
      vertex 0 93 115
      vertex 43 93 51.0622
    endloop
  endfacet
  facet normal 0 1 -0
    outer loop
      vertex 41.5503 93 49.9497
      vertex 0 93 115
      vertex 42.2387 93 50.5535
    endloop
  endfacet
  facet normal 0 1 -0
    outer loop
      vertex 40.9465 93 49.2613
      vertex 0 93 115
      vertex 41.5503 93 49.9497
    endloop
  endfacet
  facet normal 0 1 -0
    outer loop
      vertex 40.4378 93 48.5
      vertex 0 93 115
      vertex 40.9465 93 49.2613
    endloop
  endfacet
  facet normal 0 1 -0
    outer loop
      vertex 40.0328 93 47.6788
      vertex 0 93 115
      vertex 40.4378 93 48.5
    endloop
  endfacet
  facet normal 0 1 -0
    outer loop
      vertex 39.7385 93 46.8117
      vertex 0 93 115
      vertex 40.0328 93 47.6788
    endloop
  endfacet
  facet normal 0 1 -0
    outer loop
      vertex 39.5599 93 45.9137
      vertex 0 93 115
      vertex 39.7385 93 46.8117
    endloop
  endfacet
  facet normal 0 1 0
    outer loop
      vertex 0 93 0
      vertex 39.5599 93 45.9137
      vertex 39.5 93 45
    endloop
  endfacet
  facet normal 0 1 0
    outer loop
      vertex 0 93 0
      vertex 39.5 93 45
      vertex 39.5599 93 44.0863
    endloop
  endfacet
  facet normal 0 1 0
    outer loop
      vertex 0 93 0
      vertex 39.5599 93 44.0863
      vertex 39.7385 93 43.1883
    endloop
  endfacet
  facet normal 0 1 0
    outer loop
      vertex 0 93 0
      vertex 39.7385 93 43.1883
      vertex 40.0328 93 42.3212
    endloop
  endfacet
  facet normal 0 1 0
    outer loop
      vertex 0 93 0
      vertex 40.0328 93 42.3212
      vertex 40.4378 93 41.5
    endloop
  endfacet
  facet normal 0 1 0
    outer loop
      vertex 0 93 0
      vertex 46.5 93 38
      vertex 93 93 0
    endloop
  endfacet
  facet normal 0 1 0
    outer loop
      vertex 46.5 93 38
      vertex 0 93 0
      vertex 45.5863 93 38.0599
    endloop
  endfacet
  facet normal 0 1 0
    outer loop
      vertex 45.5863 93 38.0599
      vertex 0 93 0
      vertex 44.6883 93 38.2385
    endloop
  endfacet
  facet normal 0 1 0
    outer loop
      vertex 44.6883 93 38.2385
      vertex 0 93 0
      vertex 43.8212 93 38.5328
    endloop
  endfacet
  facet normal 0 1 0
    outer loop
      vertex 43.8212 93 38.5328
      vertex 0 93 0
      vertex 43 93 38.9378
    endloop
  endfacet
  facet normal 0 1 0
    outer loop
      vertex 39.5599 93 45.9137
      vertex 0 93 0
      vertex 0 93 115
    endloop
  endfacet
  facet normal 0 1 0
    outer loop
      vertex 40.9465 93 40.7387
      vertex 0 93 0
      vertex 40.4378 93 41.5
    endloop
  endfacet
  facet normal 0 1 0
    outer loop
      vertex 41.5503 93 40.0503
      vertex 0 93 0
      vertex 40.9465 93 40.7387
    endloop
  endfacet
  facet normal 0 1 0
    outer loop
      vertex 42.2387 93 39.4465
      vertex 0 93 0
      vertex 41.5503 93 40.0503
    endloop
  endfacet
  facet normal 0 1 0
    outer loop
      vertex 43 93 38.9378
      vertex 0 93 0
      vertex 42.2387 93 39.4465
    endloop
  endfacet
  facet normal 0 0 -1
    outer loop
      vertex 93 0 0
      vertex 90 3 0
      vertex 93 93 0
    endloop
  endfacet
  facet normal 0 0 -1
    outer loop
      vertex 93 0 0
      vertex 3 3 0
      vertex 90 3 0
    endloop
  endfacet
  facet normal -0 0 -1
    outer loop
      vertex 3 3 0
      vertex 0 0 0
      vertex 3 90 0
    endloop
  endfacet
  facet normal 0 0 -1
    outer loop
      vertex 0 0 0
      vertex 3 3 0
      vertex 93 0 0
    endloop
  endfacet
  facet normal 0 0 -1
    outer loop
      vertex 90 90 0
      vertex 93 93 0
      vertex 90 3 0
    endloop
  endfacet
  facet normal 0 0 -1
    outer loop
      vertex 3 90 0
      vertex 93 93 0
      vertex 90 90 0
    endloop
  endfacet
  facet normal 0 0 -1
    outer loop
      vertex 3 90 0
      vertex 0 93 0
      vertex 93 93 0
    endloop
  endfacet
  facet normal 0 0 -1
    outer loop
      vertex 0 93 0
      vertex 3 90 0
      vertex 0 0 0
    endloop
  endfacet
  facet normal 0 -1 0
    outer loop
      vertex 69.5 0 22
      vertex 72.5 0 75.5
      vertex 69.5 0 75.5
    endloop
  endfacet
  facet normal 0 -1 -0
    outer loop
      vertex 72.5 0 75.5
      vertex 69.5 0 22
      vertex 72.5 0 22
    endloop
  endfacet
  facet normal 0 -1 0
    outer loop
      vertex 62.5 0 22
      vertex 65.5 0 75.5
      vertex 62.5 0 75.5
    endloop
  endfacet
  facet normal 0 -1 -0
    outer loop
      vertex 65.5 0 75.5
      vertex 62.5 0 22
      vertex 65.5 0 22
    endloop
  endfacet
  facet normal 0 -1 0
    outer loop
      vertex 55.5 0 22
      vertex 58.5 0 75.5
      vertex 55.5 0 75.5
    endloop
  endfacet
  facet normal 0 -1 -0
    outer loop
      vertex 58.5 0 75.5
      vertex 55.5 0 22
      vertex 58.5 0 22
    endloop
  endfacet
  facet normal 0 -1 0
    outer loop
      vertex 48.5 0 22
      vertex 51.5 0 75.5
      vertex 48.5 0 75.5
    endloop
  endfacet
  facet normal 0 -1 -0
    outer loop
      vertex 51.5 0 75.5
      vertex 48.5 0 22
      vertex 51.5 0 22
    endloop
  endfacet
  facet normal 0 -1 0
    outer loop
      vertex 41.5 0 22
      vertex 44.5 0 75.5
      vertex 41.5 0 75.5
    endloop
  endfacet
  facet normal 0 -1 -0
    outer loop
      vertex 44.5 0 75.5
      vertex 41.5 0 22
      vertex 44.5 0 22
    endloop
  endfacet
  facet normal 0 -1 0
    outer loop
      vertex 34.5 0 22
      vertex 37.5 0 75.5
      vertex 34.5 0 75.5
    endloop
  endfacet
  facet normal 0 -1 -0
    outer loop
      vertex 37.5 0 75.5
      vertex 34.5 0 22
      vertex 37.5 0 22
    endloop
  endfacet
  facet normal 0 -1 0
    outer loop
      vertex 27.5 0 22
      vertex 30.5 0 75.5
      vertex 27.5 0 75.5
    endloop
  endfacet
  facet normal 0 -1 -0
    outer loop
      vertex 30.5 0 75.5
      vertex 27.5 0 22
      vertex 30.5 0 22
    endloop
  endfacet
  facet normal 0 -1 0
    outer loop
      vertex 20.5 0 22
      vertex 23.5 0 75.5
      vertex 20.5 0 75.5
    endloop
  endfacet
  facet normal 0 -1 -0
    outer loop
      vertex 23.5 0 75.5
      vertex 20.5 0 22
      vertex 23.5 0 22
    endloop
  endfacet
  facet normal 0 -1 0
    outer loop
      vertex 0 0 115
      vertex 16.5 0 78.5
      vertex 16.5 0 115
    endloop
  endfacet
  facet normal 0 -1 0
    outer loop
      vertex 20.5 0 75.5
      vertex 20.5 0 78.5
      vertex 16.5 0 78.5
    endloop
  endfacet
  facet normal 0 -1 0
    outer loop
      vertex 20.5 0 78.5
      vertex 20.5 0 75.5
      vertex 23.5 0 78.5
    endloop
  endfacet
  facet normal 0 -1 0
    outer loop
      vertex 23.5 0 78.5
      vertex 23.5 0 75.5
      vertex 27.5 0 78.5
    endloop
  endfacet
  facet normal 0 -1 0
    outer loop
      vertex 27.5 0 75.5
      vertex 27.5 0 78.5
      vertex 23.5 0 75.5
    endloop
  endfacet
  facet normal 0 -1 0
    outer loop
      vertex 30.5 0 75.5
      vertex 30.5 0 78.5
      vertex 27.5 0 75.5
    endloop
  endfacet
  facet normal 0 -1 0
    outer loop
      vertex 30.5 0 78.5
      vertex 30.5 0 75.5
      vertex 34.5 0 78.5
    endloop
  endfacet
  facet normal 0 -1 0
    outer loop
      vertex 34.5 0 78.5
      vertex 34.5 0 75.5
      vertex 37.5 0 78.5
    endloop
  endfacet
  facet normal 0 -1 0
    outer loop
      vertex 37.5 0 75.5
      vertex 37.5 0 78.5
      vertex 34.5 0 75.5
    endloop
  endfacet
  facet normal 0 -1 0
    outer loop
      vertex 41.5 0 75.5
      vertex 41.5 0 78.5
      vertex 37.5 0 75.5
    endloop
  endfacet
  facet normal 0 -1 0
    outer loop
      vertex 41.5 0 78.5
      vertex 41.5 0 75.5
      vertex 44.5 0 78.5
    endloop
  endfacet
  facet normal 0 -1 0
    outer loop
      vertex 44.5 0 78.5
      vertex 44.5 0 75.5
      vertex 48.5 0 78.5
    endloop
  endfacet
  facet normal 0 -1 0
    outer loop
      vertex 48.5 0 75.5
      vertex 48.5 0 78.5
      vertex 44.5 0 75.5
    endloop
  endfacet
  facet normal 0 -1 0
    outer loop
      vertex 51.5 0 75.5
      vertex 51.5 0 78.5
      vertex 48.5 0 75.5
    endloop
  endfacet
  facet normal 0 -1 0
    outer loop
      vertex 51.5 0 78.5
      vertex 51.5 0 75.5
      vertex 55.5 0 78.5
    endloop
  endfacet
  facet normal 0 -1 0
    outer loop
      vertex 55.5 0 78.5
      vertex 55.5 0 75.5
      vertex 58.5 0 78.5
    endloop
  endfacet
  facet normal 0 -1 0
    outer loop
      vertex 58.5 0 75.5
      vertex 58.5 0 78.5
      vertex 55.5 0 75.5
    endloop
  endfacet
  facet normal 0 -1 0
    outer loop
      vertex 20.5 0 75.5
      vertex 16.5 0 78.5
      vertex 16.5 0 75.5
    endloop
  endfacet
  facet normal 0 -1 0
    outer loop
      vertex 0 0 115
      vertex 16.5 0 75.5
      vertex 16.5 0 78.5
    endloop
  endfacet
  facet normal 0 -1 0
    outer loop
      vertex 0 0 0
      vertex 16.5 0 75.5
      vertex 0 0 115
    endloop
  endfacet
  facet normal 0 -1 0
    outer loop
      vertex 0 0 0
      vertex 20.5 0 22
      vertex 16.5 0 22
    endloop
  endfacet
  facet normal 0 -1 -0
    outer loop
      vertex 20.5 0 22
      vertex 0 0 0
      vertex 23.5 0 22
    endloop
  endfacet
  facet normal 0 -1 -0
    outer loop
      vertex 23.5 0 22
      vertex 0 0 0
      vertex 27.5 0 22
    endloop
  endfacet
  facet normal 0 -1 -0
    outer loop
      vertex 27.5 0 22
      vertex 0 0 0
      vertex 30.5 0 22
    endloop
  endfacet
  facet normal 0 -1 -0
    outer loop
      vertex 30.5 0 22
      vertex 0 0 0
      vertex 34.5 0 22
    endloop
  endfacet
  facet normal 0 -1 -0
    outer loop
      vertex 34.5 0 22
      vertex 0 0 0
      vertex 37.5 0 22
    endloop
  endfacet
  facet normal 0 -1 -0
    outer loop
      vertex 37.5 0 22
      vertex 0 0 0
      vertex 41.5 0 22
    endloop
  endfacet
  facet normal 0 -1 -0
    outer loop
      vertex 41.5 0 22
      vertex 0 0 0
      vertex 44.5 0 22
    endloop
  endfacet
  facet normal 0 -1 -0
    outer loop
      vertex 44.5 0 22
      vertex 0 0 0
      vertex 48.5 0 22
    endloop
  endfacet
  facet normal 0 -1 0
    outer loop
      vertex 93 0 0
      vertex 48.5 0 22
      vertex 0 0 0
    endloop
  endfacet
  facet normal 0 -1 0
    outer loop
      vertex 48.5 0 22
      vertex 93 0 0
      vertex 51.5 0 22
    endloop
  endfacet
  facet normal 0 -1 0
    outer loop
      vertex 51.5 0 22
      vertex 93 0 0
      vertex 55.5 0 22
    endloop
  endfacet
  facet normal 0 -1 0
    outer loop
      vertex 55.5 0 22
      vertex 93 0 0
      vertex 58.5 0 22
    endloop
  endfacet
  facet normal 0 -1 0
    outer loop
      vertex 58.5 0 22
      vertex 93 0 0
      vertex 62.5 0 22
    endloop
  endfacet
  facet normal 0 -1 0
    outer loop
      vertex 62.5 0 22
      vertex 93 0 0
      vertex 65.5 0 22
    endloop
  endfacet
  facet normal 0 -1 0
    outer loop
      vertex 65.5 0 22
      vertex 93 0 0
      vertex 69.5 0 22
    endloop
  endfacet
  facet normal 0 -1 0
    outer loop
      vertex 69.5 0 22
      vertex 93 0 0
      vertex 72.5 0 22
    endloop
  endfacet
  facet normal 0 -1 -0
    outer loop
      vertex 16.5 0 75.5
      vertex 0 0 0
      vertex 16.5 0 22
    endloop
  endfacet
  facet normal 0 -1 0
    outer loop
      vertex 20.5 0 78.5
      vertex 23.5 0 115
      vertex 20.5 0 115
    endloop
  endfacet
  facet normal 0 -1 -0
    outer loop
      vertex 23.5 0 115
      vertex 20.5 0 78.5
      vertex 23.5 0 78.5
    endloop
  endfacet
  facet normal 0 -1 0
    outer loop
      vertex 27.5 0 78.5
      vertex 30.5 0 115
      vertex 27.5 0 115
    endloop
  endfacet
  facet normal 0 -1 -0
    outer loop
      vertex 30.5 0 115
      vertex 27.5 0 78.5
      vertex 30.5 0 78.5
    endloop
  endfacet
  facet normal 0 -1 0
    outer loop
      vertex 34.5 0 78.5
      vertex 37.5 0 115
      vertex 34.5 0 115
    endloop
  endfacet
  facet normal 0 -1 -0
    outer loop
      vertex 37.5 0 115
      vertex 34.5 0 78.5
      vertex 37.5 0 78.5
    endloop
  endfacet
  facet normal 0 -1 0
    outer loop
      vertex 41.5 0 78.5
      vertex 44.5 0 115
      vertex 41.5 0 115
    endloop
  endfacet
  facet normal 0 -1 -0
    outer loop
      vertex 44.5 0 115
      vertex 41.5 0 78.5
      vertex 44.5 0 78.5
    endloop
  endfacet
  facet normal 0 -1 0
    outer loop
      vertex 48.5 0 78.5
      vertex 51.5 0 115
      vertex 48.5 0 115
    endloop
  endfacet
  facet normal 0 -1 -0
    outer loop
      vertex 51.5 0 115
      vertex 48.5 0 78.5
      vertex 51.5 0 78.5
    endloop
  endfacet
  facet normal 0 -1 0
    outer loop
      vertex 55.5 0 78.5
      vertex 58.5 0 115
      vertex 55.5 0 115
    endloop
  endfacet
  facet normal 0 -1 -0
    outer loop
      vertex 58.5 0 115
      vertex 55.5 0 78.5
      vertex 58.5 0 78.5
    endloop
  endfacet
  facet normal 0 -1 0
    outer loop
      vertex 62.5 0 78.5
      vertex 65.5 0 115
      vertex 62.5 0 115
    endloop
  endfacet
  facet normal 0 -1 -0
    outer loop
      vertex 65.5 0 115
      vertex 62.5 0 78.5
      vertex 65.5 0 78.5
    endloop
  endfacet
  facet normal 0 -1 0
    outer loop
      vertex 69.5 0 78.5
      vertex 72.5 0 115
      vertex 69.5 0 115
    endloop
  endfacet
  facet normal 0 -1 -0
    outer loop
      vertex 72.5 0 115
      vertex 69.5 0 78.5
      vertex 72.5 0 78.5
    endloop
  endfacet
  facet normal 0 -1 0
    outer loop
      vertex 76.5 0 78.5
      vertex 93 0 115
      vertex 76.5 0 115
    endloop
  endfacet
  facet normal 0 -1 -0
    outer loop
      vertex 23.5 0 78.5
      vertex 20.5 0 75.5
      vertex 23.5 0 75.5
    endloop
  endfacet
  facet normal 0 -1 0
    outer loop
      vertex 27.5 0 78.5
      vertex 27.5 0 75.5
      vertex 30.5 0 78.5
    endloop
  endfacet
  facet normal 0 -1 0
    outer loop
      vertex 34.5 0 75.5
      vertex 34.5 0 78.5
      vertex 30.5 0 75.5
    endloop
  endfacet
  facet normal 0 -1 0
    outer loop
      vertex 37.5 0 78.5
      vertex 37.5 0 75.5
      vertex 41.5 0 78.5
    endloop
  endfacet
  facet normal 0 -1 0
    outer loop
      vertex 44.5 0 75.5
      vertex 44.5 0 78.5
      vertex 41.5 0 75.5
    endloop
  endfacet
  facet normal 0 -1 0
    outer loop
      vertex 48.5 0 78.5
      vertex 48.5 0 75.5
      vertex 51.5 0 78.5
    endloop
  endfacet
  facet normal 0 -1 0
    outer loop
      vertex 55.5 0 75.5
      vertex 55.5 0 78.5
      vertex 51.5 0 75.5
    endloop
  endfacet
  facet normal 0 -1 0
    outer loop
      vertex 58.5 0 78.5
      vertex 58.5 0 75.5
      vertex 62.5 0 78.5
    endloop
  endfacet
  facet normal 0 -1 0
    outer loop
      vertex 62.5 0 75.5
      vertex 62.5 0 78.5
      vertex 58.5 0 75.5
    endloop
  endfacet
  facet normal 0 -1 0
    outer loop
      vertex 62.5 0 78.5
      vertex 62.5 0 75.5
      vertex 65.5 0 78.5
    endloop
  endfacet
  facet normal 0 -1 0
    outer loop
      vertex 65.5 0 75.5
      vertex 65.5 0 78.5
      vertex 62.5 0 75.5
    endloop
  endfacet
  facet normal 0 -1 0
    outer loop
      vertex 65.5 0 78.5
      vertex 65.5 0 75.5
      vertex 69.5 0 78.5
    endloop
  endfacet
  facet normal 0 -1 0
    outer loop
      vertex 69.5 0 75.5
      vertex 69.5 0 78.5
      vertex 65.5 0 75.5
    endloop
  endfacet
  facet normal 0 -1 0
    outer loop
      vertex 69.5 0 78.5
      vertex 69.5 0 75.5
      vertex 72.5 0 78.5
    endloop
  endfacet
  facet normal 0 -1 0
    outer loop
      vertex 72.5 0 75.5
      vertex 72.5 0 78.5
      vertex 69.5 0 75.5
    endloop
  endfacet
  facet normal 0 -1 0
    outer loop
      vertex 72.5 0 78.5
      vertex 72.5 0 75.5
      vertex 76.5 0 78.5
    endloop
  endfacet
  facet normal 0 -1 0
    outer loop
      vertex 76.5 0 75.5
      vertex 76.5 0 78.5
      vertex 72.5 0 75.5
    endloop
  endfacet
  facet normal 0 -1 0
    outer loop
      vertex 76.5 0 75.5
      vertex 93 0 115
      vertex 76.5 0 78.5
    endloop
  endfacet
  facet normal 0 -1 0
    outer loop
      vertex 93 0 0
      vertex 76.5 0 75.5
      vertex 76.5 0 22
    endloop
  endfacet
  facet normal 0 -1 0
    outer loop
      vertex 76.5 0 75.5
      vertex 93 0 0
      vertex 93 0 115
    endloop
  endfacet
  facet normal 0 -1 0
    outer loop
      vertex 72.5 0 22
      vertex 93 0 0
      vertex 76.5 0 22
    endloop
  endfacet
  facet normal 1 -0 0
    outer loop
      vertex 3 3 115
      vertex 3 90 0
      vertex 3 90 115
    endloop
  endfacet
  facet normal 1 0 0
    outer loop
      vertex 3 90 0
      vertex 3 3 115
      vertex 3 3 0
    endloop
  endfacet
  facet normal -1 0 0
    outer loop
      vertex 90 3 0
      vertex 90 90 115
      vertex 90 90 0
    endloop
  endfacet
  facet normal -1 -0 0
    outer loop
      vertex 90 90 115
      vertex 90 3 0
      vertex 90 3 115
    endloop
  endfacet
  facet normal 0 -1 0
    outer loop
      vertex 3 90 115
      vertex 46.5 90 52
      vertex 90 90 115
    endloop
  endfacet
  facet normal 0 -1 0
    outer loop
      vertex 3 90 115
      vertex 45.5863 90 51.9401
      vertex 46.5 90 52
    endloop
  endfacet
  facet normal 0 -1 0
    outer loop
      vertex 3 90 115
      vertex 44.6883 90 51.7615
      vertex 45.5863 90 51.9401
    endloop
  endfacet
  facet normal 0 -1 0
    outer loop
      vertex 3 90 115
      vertex 43.8212 90 51.4672
      vertex 44.6883 90 51.7615
    endloop
  endfacet
  facet normal 0 -1 0
    outer loop
      vertex 3 90 115
      vertex 43 90 51.0622
      vertex 43.8212 90 51.4672
    endloop
  endfacet
  facet normal 0 -1 0
    outer loop
      vertex 3 90 115
      vertex 42.2387 90 50.5535
      vertex 43 90 51.0622
    endloop
  endfacet
  facet normal 0 -1 0
    outer loop
      vertex 3 90 115
      vertex 41.5503 90 49.9497
      vertex 42.2387 90 50.5535
    endloop
  endfacet
  facet normal 0 -1 0
    outer loop
      vertex 3 90 115
      vertex 40.9465 90 49.2613
      vertex 41.5503 90 49.9497
    endloop
  endfacet
  facet normal 0 -1 0
    outer loop
      vertex 3 90 115
      vertex 40.4378 90 48.5
      vertex 40.9465 90 49.2613
    endloop
  endfacet
  facet normal 0 -1 0
    outer loop
      vertex 3 90 115
      vertex 40.0328 90 47.6788
      vertex 40.4378 90 48.5
    endloop
  endfacet
  facet normal 0 -1 0
    outer loop
      vertex 3 90 115
      vertex 39.7385 90 46.8117
      vertex 40.0328 90 47.6788
    endloop
  endfacet
  facet normal 0 -1 0
    outer loop
      vertex 3 90 115
      vertex 39.5599 90 45.9137
      vertex 39.7385 90 46.8117
    endloop
  endfacet
  facet normal 0 -1 0
    outer loop
      vertex 3 90 0
      vertex 39.5599 90 45.9137
      vertex 3 90 115
    endloop
  endfacet
  facet normal 0 -1 0
    outer loop
      vertex 39.5599 90 45.9137
      vertex 3 90 0
      vertex 39.5 90 45
    endloop
  endfacet
  facet normal 0 -1 -0
    outer loop
      vertex 39.5 90 45
      vertex 3 90 0
      vertex 39.5599 90 44.0863
    endloop
  endfacet
  facet normal 0 -1 -0
    outer loop
      vertex 39.5599 90 44.0863
      vertex 3 90 0
      vertex 39.7385 90 43.1883
    endloop
  endfacet
  facet normal 0 -1 -0
    outer loop
      vertex 39.7385 90 43.1883
      vertex 3 90 0
      vertex 40.0328 90 42.3212
    endloop
  endfacet
  facet normal 0 -1 -0
    outer loop
      vertex 45.5863 90 38.0599
      vertex 3 90 0
      vertex 46.5 90 38
    endloop
  endfacet
  facet normal 0 -1 -0
    outer loop
      vertex 44.6883 90 38.2385
      vertex 3 90 0
      vertex 45.5863 90 38.0599
    endloop
  endfacet
  facet normal 0 -1 -0
    outer loop
      vertex 43.8212 90 38.5328
      vertex 3 90 0
      vertex 44.6883 90 38.2385
    endloop
  endfacet
  facet normal 0 -1 -0
    outer loop
      vertex 43 90 38.9378
      vertex 3 90 0
      vertex 43.8212 90 38.5328
    endloop
  endfacet
  facet normal 0 -1 -0
    outer loop
      vertex 42.2387 90 39.4465
      vertex 3 90 0
      vertex 43 90 38.9378
    endloop
  endfacet
  facet normal 0 -1 -0
    outer loop
      vertex 41.5503 90 40.0503
      vertex 3 90 0
      vertex 42.2387 90 39.4465
    endloop
  endfacet
  facet normal 0 -1 -0
    outer loop
      vertex 40.9465 90 40.7387
      vertex 3 90 0
      vertex 41.5503 90 40.0503
    endloop
  endfacet
  facet normal 0 -1 -0
    outer loop
      vertex 40.4378 90 41.5
      vertex 3 90 0
      vertex 40.9465 90 40.7387
    endloop
  endfacet
  facet normal 0 -1 -0
    outer loop
      vertex 40.0328 90 42.3212
      vertex 3 90 0
      vertex 40.4378 90 41.5
    endloop
  endfacet
  facet normal 0 -1 0
    outer loop
      vertex 47.4137 90 51.9401
      vertex 90 90 115
      vertex 46.5 90 52
    endloop
  endfacet
  facet normal 0 -1 0
    outer loop
      vertex 48.3117 90 51.7615
      vertex 90 90 115
      vertex 47.4137 90 51.9401
    endloop
  endfacet
  facet normal 0 -1 0
    outer loop
      vertex 49.1788 90 51.4672
      vertex 90 90 115
      vertex 48.3117 90 51.7615
    endloop
  endfacet
  facet normal 0 -1 0
    outer loop
      vertex 50 90 51.0622
      vertex 90 90 115
      vertex 49.1788 90 51.4672
    endloop
  endfacet
  facet normal 0 -1 0
    outer loop
      vertex 50.7613 90 50.5535
      vertex 90 90 115
      vertex 50 90 51.0622
    endloop
  endfacet
  facet normal 0 -1 0
    outer loop
      vertex 51.4497 90 49.9497
      vertex 90 90 115
      vertex 50.7613 90 50.5535
    endloop
  endfacet
  facet normal 0 -1 0
    outer loop
      vertex 52.0535 90 49.2613
      vertex 90 90 115
      vertex 51.4497 90 49.9497
    endloop
  endfacet
  facet normal 0 -1 0
    outer loop
      vertex 52.5622 90 48.5
      vertex 90 90 115
      vertex 52.0535 90 49.2613
    endloop
  endfacet
  facet normal 0 -1 0
    outer loop
      vertex 52.9672 90 47.6788
      vertex 90 90 115
      vertex 52.5622 90 48.5
    endloop
  endfacet
  facet normal 0 -1 0
    outer loop
      vertex 53.2615 90 46.8117
      vertex 90 90 115
      vertex 52.9672 90 47.6788
    endloop
  endfacet
  facet normal 0 -1 0
    outer loop
      vertex 53.4401 90 45.9137
      vertex 90 90 115
      vertex 53.2615 90 46.8117
    endloop
  endfacet
  facet normal 0 -1 0
    outer loop
      vertex 90 90 0
      vertex 53.4401 90 45.9137
      vertex 53.5 90 45
    endloop
  endfacet
  facet normal 0 -1 0
    outer loop
      vertex 90 90 0
      vertex 53.5 90 45
      vertex 53.4401 90 44.0863
    endloop
  endfacet
  facet normal 0 -1 0
    outer loop
      vertex 90 90 0
      vertex 53.4401 90 44.0863
      vertex 53.2615 90 43.1883
    endloop
  endfacet
  facet normal 0 -1 0
    outer loop
      vertex 90 90 0
      vertex 53.2615 90 43.1883
      vertex 52.9672 90 42.3212
    endloop
  endfacet
  facet normal 0 -1 0
    outer loop
      vertex 90 90 0
      vertex 52.9672 90 42.3212
      vertex 52.5622 90 41.5
    endloop
  endfacet
  facet normal 0 -1 0
    outer loop
      vertex 90 90 0
      vertex 46.5 90 38
      vertex 3 90 0
    endloop
  endfacet
  facet normal 0 -1 0
    outer loop
      vertex 46.5 90 38
      vertex 90 90 0
      vertex 47.4137 90 38.0599
    endloop
  endfacet
  facet normal 0 -1 0
    outer loop
      vertex 47.4137 90 38.0599
      vertex 90 90 0
      vertex 48.3117 90 38.2385
    endloop
  endfacet
  facet normal 0 -1 0
    outer loop
      vertex 48.3117 90 38.2385
      vertex 90 90 0
      vertex 49.1788 90 38.5328
    endloop
  endfacet
  facet normal 0 -1 0
    outer loop
      vertex 49.1788 90 38.5328
      vertex 90 90 0
      vertex 50 90 38.9378
    endloop
  endfacet
  facet normal 0 -1 0
    outer loop
      vertex 53.4401 90 45.9137
      vertex 90 90 0
      vertex 90 90 115
    endloop
  endfacet
  facet normal 0 -1 0
    outer loop
      vertex 52.0535 90 40.7387
      vertex 90 90 0
      vertex 52.5622 90 41.5
    endloop
  endfacet
  facet normal 0 -1 0
    outer loop
      vertex 51.4497 90 40.0503
      vertex 90 90 0
      vertex 52.0535 90 40.7387
    endloop
  endfacet
  facet normal 0 -1 0
    outer loop
      vertex 50.7613 90 39.4465
      vertex 90 90 0
      vertex 51.4497 90 40.0503
    endloop
  endfacet
  facet normal 0 -1 0
    outer loop
      vertex 50 90 38.9378
      vertex 90 90 0
      vertex 50.7613 90 39.4465
    endloop
  endfacet
  facet normal 0 1 0
    outer loop
      vertex 76.5 3 75.5
      vertex 76.5 3 78.5
      vertex 79 3 78.5
    endloop
  endfacet
  facet normal 0 1 0
    outer loop
      vertex 76.5 3 78.5
      vertex 76.5 3 75.5
      vertex 72.5 3 78.5
    endloop
  endfacet
  facet normal 0 1 0
    outer loop
      vertex 72.5 3 78.5
      vertex 72.5 3 75.5
      vertex 69.5 3 78.5
    endloop
  endfacet
  facet normal 0 1 0
    outer loop
      vertex 69.5 3 75.5
      vertex 69.5 3 78.5
      vertex 72.5 3 75.5
    endloop
  endfacet
  facet normal 0 1 0
    outer loop
      vertex 65.5 3 75.5
      vertex 65.5 3 78.5
      vertex 69.5 3 75.5
    endloop
  endfacet
  facet normal 0 1 0
    outer loop
      vertex 65.5 3 78.5
      vertex 65.5 3 75.5
      vertex 62.5 3 78.5
    endloop
  endfacet
  facet normal 0 1 0
    outer loop
      vertex 62.5 3 78.5
      vertex 62.5 3 75.5
      vertex 58.5 3 78.5
    endloop
  endfacet
  facet normal 0 1 0
    outer loop
      vertex 58.5 3 75.5
      vertex 58.5 3 78.5
      vertex 62.5 3 75.5
    endloop
  endfacet
  facet normal 0 1 0
    outer loop
      vertex 55.5 3 75.5
      vertex 55.5 3 78.5
      vertex 58.5 3 75.5
    endloop
  endfacet
  facet normal 0 1 0
    outer loop
      vertex 55.5 3 78.5
      vertex 55.5 3 75.5
      vertex 51.5 3 78.5
    endloop
  endfacet
  facet normal 0 1 0
    outer loop
      vertex 51.5 3 78.5
      vertex 51.5 3 75.5
      vertex 48.5 3 78.5
    endloop
  endfacet
  facet normal 0 1 0
    outer loop
      vertex 48.5 3 75.5
      vertex 48.5 3 78.5
      vertex 51.5 3 75.5
    endloop
  endfacet
  facet normal 0 1 0
    outer loop
      vertex 44.5 3 75.5
      vertex 44.5 3 78.5
      vertex 48.5 3 75.5
    endloop
  endfacet
  facet normal 0 1 0
    outer loop
      vertex 44.5 3 78.5
      vertex 44.5 3 75.5
      vertex 41.5 3 78.5
    endloop
  endfacet
  facet normal 0 1 0
    outer loop
      vertex 41.5 3 78.5
      vertex 41.5 3 75.5
      vertex 37.5 3 78.5
    endloop
  endfacet
  facet normal 0 1 0
    outer loop
      vertex 37.5 3 75.5
      vertex 37.5 3 78.5
      vertex 41.5 3 75.5
    endloop
  endfacet
  facet normal 0 1 0
    outer loop
      vertex 34.5 3 75.5
      vertex 34.5 3 78.5
      vertex 37.5 3 75.5
    endloop
  endfacet
  facet normal 0 1 0
    outer loop
      vertex 34.5 3 78.5
      vertex 34.5 3 75.5
      vertex 30.5 3 78.5
    endloop
  endfacet
  facet normal 0 1 0
    outer loop
      vertex 76.5 3 75.5
      vertex 79 3 78.5
      vertex 79 3 75.5
    endloop
  endfacet
  facet normal 0 1 0
    outer loop
      vertex 72.5 3 78.5
      vertex 76.5 3 75.5
      vertex 72.5 3 75.5
    endloop
  endfacet
  facet normal 0 1 0
    outer loop
      vertex 69.5 3 78.5
      vertex 69.5 3 75.5
      vertex 65.5 3 78.5
    endloop
  endfacet
  facet normal 0 1 0
    outer loop
      vertex 62.5 3 75.5
      vertex 62.5 3 78.5
      vertex 65.5 3 75.5
    endloop
  endfacet
  facet normal 0 1 0
    outer loop
      vertex 58.5 3 78.5
      vertex 58.5 3 75.5
      vertex 55.5 3 78.5
    endloop
  endfacet
  facet normal 0 1 0
    outer loop
      vertex 51.5 3 75.5
      vertex 51.5 3 78.5
      vertex 55.5 3 75.5
    endloop
  endfacet
  facet normal 0 1 0
    outer loop
      vertex 48.5 3 78.5
      vertex 48.5 3 75.5
      vertex 44.5 3 78.5
    endloop
  endfacet
  facet normal 0 1 0
    outer loop
      vertex 41.5 3 75.5
      vertex 41.5 3 78.5
      vertex 44.5 3 75.5
    endloop
  endfacet
  facet normal 0 1 0
    outer loop
      vertex 37.5 3 78.5
      vertex 37.5 3 75.5
      vertex 34.5 3 78.5
    endloop
  endfacet
  facet normal 0 1 0
    outer loop
      vertex 30.5 3 75.5
      vertex 30.5 3 78.5
      vertex 34.5 3 75.5
    endloop
  endfacet
  facet normal 0 1 0
    outer loop
      vertex 30.5 3 78.5
      vertex 30.5 3 75.5
      vertex 27.5 3 78.5
    endloop
  endfacet
  facet normal 0 1 0
    outer loop
      vertex 27.5 3 75.5
      vertex 27.5 3 78.5
      vertex 30.5 3 75.5
    endloop
  endfacet
  facet normal 0 1 0
    outer loop
      vertex 27.5 3 78.5
      vertex 27.5 3 75.5
      vertex 23.5 3 78.5
    endloop
  endfacet
  facet normal 0 1 0
    outer loop
      vertex 23.5 3 75.5
      vertex 23.5 3 78.5
      vertex 27.5 3 75.5
    endloop
  endfacet
  facet normal 0 1 0
    outer loop
      vertex 23.5 3 78.5
      vertex 23.5 3 75.5
      vertex 20.5 3 78.5
    endloop
  endfacet
  facet normal 0 1 0
    outer loop
      vertex 20.5 3 75.5
      vertex 20.5 3 78.5
      vertex 23.5 3 75.5
    endloop
  endfacet
  facet normal 0 1 0
    outer loop
      vertex 20.5 3 78.5
      vertex 20.5 3 75.5
      vertex 16.5 3 78.5
    endloop
  endfacet
  facet normal 0 1 0
    outer loop
      vertex 16.5 3 75.5
      vertex 16.5 3 78.5
      vertex 20.5 3 75.5
    endloop
  endfacet
  facet normal 0 1 0
    outer loop
      vertex 16.5 3 78.5
      vertex 16.5 3 75.5
      vertex 14 3 78.5
    endloop
  endfacet
  facet normal 0 1 0
    outer loop
      vertex 14 3 78.5
      vertex 16.5 3 75.5
      vertex 14 3 75.5
    endloop
  endfacet
  facet normal 0 1 0
    outer loop
      vertex 90 3 115
      vertex 79 3 78.5
      vertex 76.5 3 115
    endloop
  endfacet
  facet normal 0 1 0
    outer loop
      vertex 90 3 115
      vertex 79 3 75.5
      vertex 79 3 78.5
    endloop
  endfacet
  facet normal 0 1 0
    outer loop
      vertex 79 3 75.5
      vertex 76.5 3 22
      vertex 76.5 3 75.5
    endloop
  endfacet
  facet normal 0 1 -0
    outer loop
      vertex 90 3 0
      vertex 79 3 75.5
      vertex 90 3 115
    endloop
  endfacet
  facet normal 0 1 0
    outer loop
      vertex 90 3 0
      vertex 72.5 3 22
      vertex 76.5 3 22
    endloop
  endfacet
  facet normal 0 1 0
    outer loop
      vertex 72.5 3 22
      vertex 90 3 0
      vertex 69.5 3 22
    endloop
  endfacet
  facet normal 0 1 0
    outer loop
      vertex 69.5 3 22
      vertex 90 3 0
      vertex 65.5 3 22
    endloop
  endfacet
  facet normal 0 1 0
    outer loop
      vertex 65.5 3 22
      vertex 90 3 0
      vertex 62.5 3 22
    endloop
  endfacet
  facet normal 0 1 0
    outer loop
      vertex 62.5 3 22
      vertex 90 3 0
      vertex 58.5 3 22
    endloop
  endfacet
  facet normal 0 1 0
    outer loop
      vertex 58.5 3 22
      vertex 90 3 0
      vertex 55.5 3 22
    endloop
  endfacet
  facet normal 0 1 0
    outer loop
      vertex 55.5 3 22
      vertex 90 3 0
      vertex 51.5 3 22
    endloop
  endfacet
  facet normal 0 1 0
    outer loop
      vertex 51.5 3 22
      vertex 90 3 0
      vertex 48.5 3 22
    endloop
  endfacet
  facet normal 0 1 0
    outer loop
      vertex 48.5 3 22
      vertex 90 3 0
      vertex 44.5 3 22
    endloop
  endfacet
  facet normal 0 1 0
    outer loop
      vertex 3 3 0
      vertex 44.5 3 22
      vertex 90 3 0
    endloop
  endfacet
  facet normal 0 1 0
    outer loop
      vertex 44.5 3 22
      vertex 3 3 0
      vertex 41.5 3 22
    endloop
  endfacet
  facet normal 0 1 0
    outer loop
      vertex 41.5 3 22
      vertex 3 3 0
      vertex 37.5 3 22
    endloop
  endfacet
  facet normal 0 1 0
    outer loop
      vertex 37.5 3 22
      vertex 3 3 0
      vertex 34.5 3 22
    endloop
  endfacet
  facet normal 0 1 0
    outer loop
      vertex 34.5 3 22
      vertex 3 3 0
      vertex 30.5 3 22
    endloop
  endfacet
  facet normal 0 1 0
    outer loop
      vertex 30.5 3 22
      vertex 3 3 0
      vertex 27.5 3 22
    endloop
  endfacet
  facet normal 0 1 0
    outer loop
      vertex 27.5 3 22
      vertex 3 3 0
      vertex 23.5 3 22
    endloop
  endfacet
  facet normal 0 1 0
    outer loop
      vertex 23.5 3 22
      vertex 3 3 0
      vertex 20.5 3 22
    endloop
  endfacet
  facet normal 0 1 0
    outer loop
      vertex 79 3 75.5
      vertex 90 3 0
      vertex 76.5 3 22
    endloop
  endfacet
  facet normal 0 1 0
    outer loop
      vertex 76.5 3 115
      vertex 79 3 78.5
      vertex 76.5 3 78.5
    endloop
  endfacet
  facet normal 0 1 -0
    outer loop
      vertex 72.5 3 22
      vertex 69.5 3 75.5
      vertex 72.5 3 75.5
    endloop
  endfacet
  facet normal 0 1 0
    outer loop
      vertex 69.5 3 75.5
      vertex 72.5 3 22
      vertex 69.5 3 22
    endloop
  endfacet
  facet normal 0 1 -0
    outer loop
      vertex 65.5 3 22
      vertex 62.5 3 75.5
      vertex 65.5 3 75.5
    endloop
  endfacet
  facet normal 0 1 0
    outer loop
      vertex 62.5 3 75.5
      vertex 65.5 3 22
      vertex 62.5 3 22
    endloop
  endfacet
  facet normal 0 1 -0
    outer loop
      vertex 58.5 3 22
      vertex 55.5 3 75.5
      vertex 58.5 3 75.5
    endloop
  endfacet
  facet normal 0 1 0
    outer loop
      vertex 55.5 3 75.5
      vertex 58.5 3 22
      vertex 55.5 3 22
    endloop
  endfacet
  facet normal 0 1 -0
    outer loop
      vertex 51.5 3 22
      vertex 48.5 3 75.5
      vertex 51.5 3 75.5
    endloop
  endfacet
  facet normal 0 1 0
    outer loop
      vertex 48.5 3 75.5
      vertex 51.5 3 22
      vertex 48.5 3 22
    endloop
  endfacet
  facet normal 0 1 -0
    outer loop
      vertex 44.5 3 22
      vertex 41.5 3 75.5
      vertex 44.5 3 75.5
    endloop
  endfacet
  facet normal 0 1 0
    outer loop
      vertex 41.5 3 75.5
      vertex 44.5 3 22
      vertex 41.5 3 22
    endloop
  endfacet
  facet normal 0 1 -0
    outer loop
      vertex 37.5 3 22
      vertex 34.5 3 75.5
      vertex 37.5 3 75.5
    endloop
  endfacet
  facet normal 0 1 0
    outer loop
      vertex 34.5 3 75.5
      vertex 37.5 3 22
      vertex 34.5 3 22
    endloop
  endfacet
  facet normal 0 1 -0
    outer loop
      vertex 30.5 3 22
      vertex 27.5 3 75.5
      vertex 30.5 3 75.5
    endloop
  endfacet
  facet normal 0 1 0
    outer loop
      vertex 27.5 3 75.5
      vertex 30.5 3 22
      vertex 27.5 3 22
    endloop
  endfacet
  facet normal 0 1 -0
    outer loop
      vertex 23.5 3 22
      vertex 20.5 3 75.5
      vertex 23.5 3 75.5
    endloop
  endfacet
  facet normal 0 1 0
    outer loop
      vertex 20.5 3 75.5
      vertex 23.5 3 22
      vertex 20.5 3 22
    endloop
  endfacet
  facet normal 0 1 0
    outer loop
      vertex 16.5 3 75.5
      vertex 16.5 3 22
      vertex 14 3 75.5
    endloop
  endfacet
  facet normal 0 1 0
    outer loop
      vertex 14 3 78.5
      vertex 16.5 3 115
      vertex 16.5 3 78.5
    endloop
  endfacet
  facet normal 0 1 0
    outer loop
      vertex 16.5 3 115
      vertex 14 3 78.5
      vertex 3 3 115
    endloop
  endfacet
  facet normal 0 1 -0
    outer loop
      vertex 14 3 75.5
      vertex 3 3 115
      vertex 14 3 78.5
    endloop
  endfacet
  facet normal 0 1 0
    outer loop
      vertex 3 3 0
      vertex 14 3 75.5
      vertex 16.5 3 22
    endloop
  endfacet
  facet normal 0 1 0
    outer loop
      vertex 14 3 75.5
      vertex 3 3 0
      vertex 3 3 115
    endloop
  endfacet
  facet normal 0 1 0
    outer loop
      vertex 20.5 3 22
      vertex 3 3 0
      vertex 16.5 3 22
    endloop
  endfacet
  facet normal 0 1 -0
    outer loop
      vertex 23.5 3 78.5
      vertex 20.5 3 115
      vertex 23.5 3 115
    endloop
  endfacet
  facet normal 0 1 0
    outer loop
      vertex 20.5 3 115
      vertex 23.5 3 78.5
      vertex 20.5 3 78.5
    endloop
  endfacet
  facet normal 0 1 -0
    outer loop
      vertex 30.5 3 78.5
      vertex 27.5 3 115
      vertex 30.5 3 115
    endloop
  endfacet
  facet normal 0 1 0
    outer loop
      vertex 27.5 3 115
      vertex 30.5 3 78.5
      vertex 27.5 3 78.5
    endloop
  endfacet
  facet normal 0 1 -0
    outer loop
      vertex 37.5 3 78.5
      vertex 34.5 3 115
      vertex 37.5 3 115
    endloop
  endfacet
  facet normal 0 1 0
    outer loop
      vertex 34.5 3 115
      vertex 37.5 3 78.5
      vertex 34.5 3 78.5
    endloop
  endfacet
  facet normal 0 1 -0
    outer loop
      vertex 44.5 3 78.5
      vertex 41.5 3 115
      vertex 44.5 3 115
    endloop
  endfacet
  facet normal 0 1 0
    outer loop
      vertex 41.5 3 115
      vertex 44.5 3 78.5
      vertex 41.5 3 78.5
    endloop
  endfacet
  facet normal 0 1 -0
    outer loop
      vertex 51.5 3 78.5
      vertex 48.5 3 115
      vertex 51.5 3 115
    endloop
  endfacet
  facet normal 0 1 0
    outer loop
      vertex 48.5 3 115
      vertex 51.5 3 78.5
      vertex 48.5 3 78.5
    endloop
  endfacet
  facet normal 0 1 -0
    outer loop
      vertex 58.5 3 78.5
      vertex 55.5 3 115
      vertex 58.5 3 115
    endloop
  endfacet
  facet normal 0 1 0
    outer loop
      vertex 55.5 3 115
      vertex 58.5 3 78.5
      vertex 55.5 3 78.5
    endloop
  endfacet
  facet normal 0 1 -0
    outer loop
      vertex 65.5 3 78.5
      vertex 62.5 3 115
      vertex 65.5 3 115
    endloop
  endfacet
  facet normal 0 1 0
    outer loop
      vertex 62.5 3 115
      vertex 65.5 3 78.5
      vertex 62.5 3 78.5
    endloop
  endfacet
  facet normal 0 1 -0
    outer loop
      vertex 72.5 3 78.5
      vertex 69.5 3 115
      vertex 72.5 3 115
    endloop
  endfacet
  facet normal 0 1 0
    outer loop
      vertex 69.5 3 115
      vertex 72.5 3 78.5
      vertex 69.5 3 78.5
    endloop
  endfacet
  facet normal 1 -0 0
    outer loop
      vertex 16.5 0 75.5
      vertex 16.5 3 22
      vertex 16.5 3 75.5
    endloop
  endfacet
  facet normal 1 0 0
    outer loop
      vertex 16.5 3 22
      vertex 16.5 0 75.5
      vertex 16.5 0 22
    endloop
  endfacet
  facet normal 1 -0 0
    outer loop
      vertex 16.5 0 115
      vertex 16.5 3 78.5
      vertex 16.5 3 115
    endloop
  endfacet
  facet normal 1 0 0
    outer loop
      vertex 16.5 3 78.5
      vertex 16.5 0 115
      vertex 16.5 0 78.5
    endloop
  endfacet
  facet normal -1 0 0
    outer loop
      vertex 20.5 0 22
      vertex 20.5 3 75.5
      vertex 20.5 3 22
    endloop
  endfacet
  facet normal -1 -0 0
    outer loop
      vertex 20.5 3 75.5
      vertex 20.5 0 22
      vertex 20.5 0 75.5
    endloop
  endfacet
  facet normal -1 0 0
    outer loop
      vertex 20.5 0 78.5
      vertex 20.5 3 115
      vertex 20.5 3 78.5
    endloop
  endfacet
  facet normal -1 -0 0
    outer loop
      vertex 20.5 3 115
      vertex 20.5 0 78.5
      vertex 20.5 0 115
    endloop
  endfacet
  facet normal -0 0 1
    outer loop
      vertex 16.5 3 22
      vertex 20.5 0 22
      vertex 20.5 3 22
    endloop
  endfacet
  facet normal 0 0 1
    outer loop
      vertex 20.5 0 22
      vertex 16.5 3 22
      vertex 16.5 0 22
    endloop
  endfacet
  facet normal 1 -0 0
    outer loop
      vertex 23.5 0 75.5
      vertex 23.5 3 22
      vertex 23.5 3 75.5
    endloop
  endfacet
  facet normal 1 0 0
    outer loop
      vertex 23.5 3 22
      vertex 23.5 0 75.5
      vertex 23.5 0 22
    endloop
  endfacet
  facet normal 1 -0 0
    outer loop
      vertex 23.5 0 115
      vertex 23.5 3 78.5
      vertex 23.5 3 115
    endloop
  endfacet
  facet normal 1 0 0
    outer loop
      vertex 23.5 3 78.5
      vertex 23.5 0 115
      vertex 23.5 0 78.5
    endloop
  endfacet
  facet normal -1 0 0
    outer loop
      vertex 27.5 0 22
      vertex 27.5 3 75.5
      vertex 27.5 3 22
    endloop
  endfacet
  facet normal -1 -0 0
    outer loop
      vertex 27.5 3 75.5
      vertex 27.5 0 22
      vertex 27.5 0 75.5
    endloop
  endfacet
  facet normal -1 0 0
    outer loop
      vertex 27.5 0 78.5
      vertex 27.5 3 115
      vertex 27.5 3 78.5
    endloop
  endfacet
  facet normal -1 -0 0
    outer loop
      vertex 27.5 3 115
      vertex 27.5 0 78.5
      vertex 27.5 0 115
    endloop
  endfacet
  facet normal -0 0 1
    outer loop
      vertex 23.5 3 22
      vertex 27.5 0 22
      vertex 27.5 3 22
    endloop
  endfacet
  facet normal 0 0 1
    outer loop
      vertex 27.5 0 22
      vertex 23.5 3 22
      vertex 23.5 0 22
    endloop
  endfacet
  facet normal 1 -0 0
    outer loop
      vertex 30.5 0 75.5
      vertex 30.5 3 22
      vertex 30.5 3 75.5
    endloop
  endfacet
  facet normal 1 0 0
    outer loop
      vertex 30.5 3 22
      vertex 30.5 0 75.5
      vertex 30.5 0 22
    endloop
  endfacet
  facet normal 1 -0 0
    outer loop
      vertex 30.5 0 115
      vertex 30.5 3 78.5
      vertex 30.5 3 115
    endloop
  endfacet
  facet normal 1 0 0
    outer loop
      vertex 30.5 3 78.5
      vertex 30.5 0 115
      vertex 30.5 0 78.5
    endloop
  endfacet
  facet normal -1 0 0
    outer loop
      vertex 34.5 0 22
      vertex 34.5 3 75.5
      vertex 34.5 3 22
    endloop
  endfacet
  facet normal -1 -0 0
    outer loop
      vertex 34.5 3 75.5
      vertex 34.5 0 22
      vertex 34.5 0 75.5
    endloop
  endfacet
  facet normal -1 0 0
    outer loop
      vertex 34.5 0 78.5
      vertex 34.5 3 115
      vertex 34.5 3 78.5
    endloop
  endfacet
  facet normal -1 -0 0
    outer loop
      vertex 34.5 3 115
      vertex 34.5 0 78.5
      vertex 34.5 0 115
    endloop
  endfacet
  facet normal -0 0 1
    outer loop
      vertex 30.5 3 22
      vertex 34.5 0 22
      vertex 34.5 3 22
    endloop
  endfacet
  facet normal 0 0 1
    outer loop
      vertex 34.5 0 22
      vertex 30.5 3 22
      vertex 30.5 0 22
    endloop
  endfacet
  facet normal 1 -0 0
    outer loop
      vertex 37.5 0 75.5
      vertex 37.5 3 22
      vertex 37.5 3 75.5
    endloop
  endfacet
  facet normal 1 0 0
    outer loop
      vertex 37.5 3 22
      vertex 37.5 0 75.5
      vertex 37.5 0 22
    endloop
  endfacet
  facet normal 1 -0 0
    outer loop
      vertex 37.5 0 115
      vertex 37.5 3 78.5
      vertex 37.5 3 115
    endloop
  endfacet
  facet normal 1 0 0
    outer loop
      vertex 37.5 3 78.5
      vertex 37.5 0 115
      vertex 37.5 0 78.5
    endloop
  endfacet
  facet normal -1 0 0
    outer loop
      vertex 41.5 0 22
      vertex 41.5 3 75.5
      vertex 41.5 3 22
    endloop
  endfacet
  facet normal -1 -0 0
    outer loop
      vertex 41.5 3 75.5
      vertex 41.5 0 22
      vertex 41.5 0 75.5
    endloop
  endfacet
  facet normal -1 0 0
    outer loop
      vertex 41.5 0 78.5
      vertex 41.5 3 115
      vertex 41.5 3 78.5
    endloop
  endfacet
  facet normal -1 -0 0
    outer loop
      vertex 41.5 3 115
      vertex 41.5 0 78.5
      vertex 41.5 0 115
    endloop
  endfacet
  facet normal -0 0 1
    outer loop
      vertex 37.5 3 22
      vertex 41.5 0 22
      vertex 41.5 3 22
    endloop
  endfacet
  facet normal 0 0 1
    outer loop
      vertex 41.5 0 22
      vertex 37.5 3 22
      vertex 37.5 0 22
    endloop
  endfacet
  facet normal 1 -0 0
    outer loop
      vertex 44.5 0 75.5
      vertex 44.5 3 22
      vertex 44.5 3 75.5
    endloop
  endfacet
  facet normal 1 0 0
    outer loop
      vertex 44.5 3 22
      vertex 44.5 0 75.5
      vertex 44.5 0 22
    endloop
  endfacet
  facet normal 1 -0 0
    outer loop
      vertex 44.5 0 115
      vertex 44.5 3 78.5
      vertex 44.5 3 115
    endloop
  endfacet
  facet normal 1 0 0
    outer loop
      vertex 44.5 3 78.5
      vertex 44.5 0 115
      vertex 44.5 0 78.5
    endloop
  endfacet
  facet normal -1 0 0
    outer loop
      vertex 48.5 0 22
      vertex 48.5 3 75.5
      vertex 48.5 3 22
    endloop
  endfacet
  facet normal -1 -0 0
    outer loop
      vertex 48.5 3 75.5
      vertex 48.5 0 22
      vertex 48.5 0 75.5
    endloop
  endfacet
  facet normal -1 0 0
    outer loop
      vertex 48.5 0 78.5
      vertex 48.5 3 115
      vertex 48.5 3 78.5
    endloop
  endfacet
  facet normal -1 -0 0
    outer loop
      vertex 48.5 3 115
      vertex 48.5 0 78.5
      vertex 48.5 0 115
    endloop
  endfacet
  facet normal -0 0 1
    outer loop
      vertex 44.5 3 22
      vertex 48.5 0 22
      vertex 48.5 3 22
    endloop
  endfacet
  facet normal 0 0 1
    outer loop
      vertex 48.5 0 22
      vertex 44.5 3 22
      vertex 44.5 0 22
    endloop
  endfacet
  facet normal 1 -0 0
    outer loop
      vertex 51.5 0 75.5
      vertex 51.5 3 22
      vertex 51.5 3 75.5
    endloop
  endfacet
  facet normal 1 0 0
    outer loop
      vertex 51.5 3 22
      vertex 51.5 0 75.5
      vertex 51.5 0 22
    endloop
  endfacet
  facet normal 1 -0 0
    outer loop
      vertex 51.5 0 115
      vertex 51.5 3 78.5
      vertex 51.5 3 115
    endloop
  endfacet
  facet normal 1 0 0
    outer loop
      vertex 51.5 3 78.5
      vertex 51.5 0 115
      vertex 51.5 0 78.5
    endloop
  endfacet
  facet normal -1 0 0
    outer loop
      vertex 55.5 0 22
      vertex 55.5 3 75.5
      vertex 55.5 3 22
    endloop
  endfacet
  facet normal -1 -0 0
    outer loop
      vertex 55.5 3 75.5
      vertex 55.5 0 22
      vertex 55.5 0 75.5
    endloop
  endfacet
  facet normal -1 0 0
    outer loop
      vertex 55.5 0 78.5
      vertex 55.5 3 115
      vertex 55.5 3 78.5
    endloop
  endfacet
  facet normal -1 -0 0
    outer loop
      vertex 55.5 3 115
      vertex 55.5 0 78.5
      vertex 55.5 0 115
    endloop
  endfacet
  facet normal -0 0 1
    outer loop
      vertex 51.5 3 22
      vertex 55.5 0 22
      vertex 55.5 3 22
    endloop
  endfacet
  facet normal 0 0 1
    outer loop
      vertex 55.5 0 22
      vertex 51.5 3 22
      vertex 51.5 0 22
    endloop
  endfacet
  facet normal 1 -0 0
    outer loop
      vertex 58.5 0 75.5
      vertex 58.5 3 22
      vertex 58.5 3 75.5
    endloop
  endfacet
  facet normal 1 0 0
    outer loop
      vertex 58.5 3 22
      vertex 58.5 0 75.5
      vertex 58.5 0 22
    endloop
  endfacet
  facet normal 1 -0 0
    outer loop
      vertex 58.5 0 115
      vertex 58.5 3 78.5
      vertex 58.5 3 115
    endloop
  endfacet
  facet normal 1 0 0
    outer loop
      vertex 58.5 3 78.5
      vertex 58.5 0 115
      vertex 58.5 0 78.5
    endloop
  endfacet
  facet normal -1 0 0
    outer loop
      vertex 62.5 0 22
      vertex 62.5 3 75.5
      vertex 62.5 3 22
    endloop
  endfacet
  facet normal -1 -0 0
    outer loop
      vertex 62.5 3 75.5
      vertex 62.5 0 22
      vertex 62.5 0 75.5
    endloop
  endfacet
  facet normal -1 0 0
    outer loop
      vertex 62.5 0 78.5
      vertex 62.5 3 115
      vertex 62.5 3 78.5
    endloop
  endfacet
  facet normal -1 -0 0
    outer loop
      vertex 62.5 3 115
      vertex 62.5 0 78.5
      vertex 62.5 0 115
    endloop
  endfacet
  facet normal -0 0 1
    outer loop
      vertex 58.5 3 22
      vertex 62.5 0 22
      vertex 62.5 3 22
    endloop
  endfacet
  facet normal 0 0 1
    outer loop
      vertex 62.5 0 22
      vertex 58.5 3 22
      vertex 58.5 0 22
    endloop
  endfacet
  facet normal 1 -0 0
    outer loop
      vertex 65.5 0 75.5
      vertex 65.5 3 22
      vertex 65.5 3 75.5
    endloop
  endfacet
  facet normal 1 0 0
    outer loop
      vertex 65.5 3 22
      vertex 65.5 0 75.5
      vertex 65.5 0 22
    endloop
  endfacet
  facet normal 1 -0 0
    outer loop
      vertex 65.5 0 115
      vertex 65.5 3 78.5
      vertex 65.5 3 115
    endloop
  endfacet
  facet normal 1 0 0
    outer loop
      vertex 65.5 3 78.5
      vertex 65.5 0 115
      vertex 65.5 0 78.5
    endloop
  endfacet
  facet normal -1 0 0
    outer loop
      vertex 69.5 0 22
      vertex 69.5 3 75.5
      vertex 69.5 3 22
    endloop
  endfacet
  facet normal -1 -0 0
    outer loop
      vertex 69.5 3 75.5
      vertex 69.5 0 22
      vertex 69.5 0 75.5
    endloop
  endfacet
  facet normal -1 0 0
    outer loop
      vertex 69.5 0 78.5
      vertex 69.5 3 115
      vertex 69.5 3 78.5
    endloop
  endfacet
  facet normal -1 -0 0
    outer loop
      vertex 69.5 3 115
      vertex 69.5 0 78.5
      vertex 69.5 0 115
    endloop
  endfacet
  facet normal -0 0 1
    outer loop
      vertex 65.5 3 22
      vertex 69.5 0 22
      vertex 69.5 3 22
    endloop
  endfacet
  facet normal 0 0 1
    outer loop
      vertex 69.5 0 22
      vertex 65.5 3 22
      vertex 65.5 0 22
    endloop
  endfacet
  facet normal 1 -0 0
    outer loop
      vertex 72.5 0 75.5
      vertex 72.5 3 22
      vertex 72.5 3 75.5
    endloop
  endfacet
  facet normal 1 0 0
    outer loop
      vertex 72.5 3 22
      vertex 72.5 0 75.5
      vertex 72.5 0 22
    endloop
  endfacet
  facet normal 1 -0 0
    outer loop
      vertex 72.5 0 115
      vertex 72.5 3 78.5
      vertex 72.5 3 115
    endloop
  endfacet
  facet normal 1 0 0
    outer loop
      vertex 72.5 3 78.5
      vertex 72.5 0 115
      vertex 72.5 0 78.5
    endloop
  endfacet
  facet normal -1 0 0
    outer loop
      vertex 76.5 0 22
      vertex 76.5 3 75.5
      vertex 76.5 3 22
    endloop
  endfacet
  facet normal -1 -0 0
    outer loop
      vertex 76.5 3 75.5
      vertex 76.5 0 22
      vertex 76.5 0 75.5
    endloop
  endfacet
  facet normal -1 0 0
    outer loop
      vertex 76.5 0 78.5
      vertex 76.5 3 115
      vertex 76.5 3 78.5
    endloop
  endfacet
  facet normal -1 -0 0
    outer loop
      vertex 76.5 3 115
      vertex 76.5 0 78.5
      vertex 76.5 0 115
    endloop
  endfacet
  facet normal -0 0 1
    outer loop
      vertex 72.5 3 22
      vertex 76.5 0 22
      vertex 76.5 3 22
    endloop
  endfacet
  facet normal 0 0 1
    outer loop
      vertex 76.5 0 22
      vertex 72.5 3 22
      vertex 72.5 0 22
    endloop
  endfacet
  facet normal -0.997858 0 0.0654172
    outer loop
      vertex 53.4401 90 44.0863
      vertex 53.5 93 45
      vertex 53.4401 93 44.0863
    endloop
  endfacet
  facet normal -0.997858 0 0.0654172
    outer loop
      vertex 53.5 93 45
      vertex 53.4401 90 44.0863
      vertex 53.5 90 45
    endloop
  endfacet
  facet normal 0.0654172 0 0.997858
    outer loop
      vertex 45.5863 93 38.0599
      vertex 46.5 90 38
      vertex 46.5 93 38
    endloop
  endfacet
  facet normal 0.0654172 0 0.997858
    outer loop
      vertex 46.5 90 38
      vertex 45.5863 93 38.0599
      vertex 45.5863 90 38.0599
    endloop
  endfacet
  facet normal -0.659401 0 0.751791
    outer loop
      vertex 50.7613 93 39.4465
      vertex 51.4497 90 40.0503
      vertex 51.4497 93 40.0503
    endloop
  endfacet
  facet normal -0.659401 0 0.751791
    outer loop
      vertex 51.4497 90 40.0503
      vertex 50.7613 93 39.4465
      vertex 50.7613 90 39.4465
    endloop
  endfacet
  facet normal 0.751791 -0 0.659401
    outer loop
      vertex 40.9465 90 40.7387
      vertex 41.5503 93 40.0503
      vertex 40.9465 93 40.7387
    endloop
  endfacet
  facet normal 0.751791 0 0.659401
    outer loop
      vertex 41.5503 93 40.0503
      vertex 40.9465 90 40.7387
      vertex 41.5503 90 40.0503
    endloop
  endfacet
  facet normal 0.442314 0 0.89686
    outer loop
      vertex 43 93 38.9378
      vertex 43.8212 90 38.5328
      vertex 43.8212 93 38.5328
    endloop
  endfacet
  facet normal 0.442314 0 0.89686
    outer loop
      vertex 43.8212 90 38.5328
      vertex 43 93 38.9378
      vertex 43 90 38.9378
    endloop
  endfacet
  facet normal -0.89686 0 0.442314
    outer loop
      vertex 52.5622 90 41.5
      vertex 52.9672 93 42.3212
      vertex 52.5622 93 41.5
    endloop
  endfacet
  facet normal -0.89686 0 0.442314
    outer loop
      vertex 52.9672 93 42.3212
      vertex 52.5622 90 41.5
      vertex 52.9672 90 42.3212
    endloop
  endfacet
  facet normal -0.3214 0 0.946944
    outer loop
      vertex 48.3117 93 38.2385
      vertex 49.1788 90 38.5328
      vertex 49.1788 93 38.5328
    endloop
  endfacet
  facet normal -0.3214 0 0.946944
    outer loop
      vertex 49.1788 90 38.5328
      vertex 48.3117 93 38.2385
      vertex 48.3117 90 38.2385
    endloop
  endfacet
  facet normal -0.195066 0 0.98079
    outer loop
      vertex 47.4137 93 38.0599
      vertex 48.3117 90 38.2385
      vertex 48.3117 93 38.2385
    endloop
  endfacet
  facet normal -0.195066 0 0.98079
    outer loop
      vertex 48.3117 90 38.2385
      vertex 47.4137 93 38.0599
      vertex 47.4137 90 38.0599
    endloop
  endfacet
  facet normal -0.555582 0 0.831462
    outer loop
      vertex 50 93 38.9378
      vertex 50.7613 90 39.4465
      vertex 50.7613 93 39.4465
    endloop
  endfacet
  facet normal -0.555582 0 0.831462
    outer loop
      vertex 50.7613 90 39.4465
      vertex 50 93 38.9378
      vertex 50 90 38.9378
    endloop
  endfacet
  facet normal 0.89686 -0 0.442314
    outer loop
      vertex 40.0328 90 42.3212
      vertex 40.4378 93 41.5
      vertex 40.0328 93 42.3212
    endloop
  endfacet
  facet normal 0.89686 0 0.442314
    outer loop
      vertex 40.4378 93 41.5
      vertex 40.0328 90 42.3212
      vertex 40.4378 90 41.5
    endloop
  endfacet
  facet normal 0.831462 -0 0.555582
    outer loop
      vertex 40.4378 90 41.5
      vertex 40.9465 93 40.7387
      vertex 40.4378 93 41.5
    endloop
  endfacet
  facet normal 0.831462 0 0.555582
    outer loop
      vertex 40.9465 93 40.7387
      vertex 40.4378 90 41.5
      vertex 40.9465 90 40.7387
    endloop
  endfacet
  facet normal 0.98079 -0 0.195066
    outer loop
      vertex 39.5599 90 44.0863
      vertex 39.7385 93 43.1883
      vertex 39.5599 93 44.0863
    endloop
  endfacet
  facet normal 0.98079 0 0.195066
    outer loop
      vertex 39.7385 93 43.1883
      vertex 39.5599 90 44.0863
      vertex 39.7385 90 43.1883
    endloop
  endfacet
  facet normal 0.997858 0 -0.0654172
    outer loop
      vertex 39.5599 90 45.9137
      vertex 39.5 93 45
      vertex 39.5599 93 45.9137
    endloop
  endfacet
  facet normal 0.997858 0 -0.0654172
    outer loop
      vertex 39.5 93 45
      vertex 39.5599 90 45.9137
      vertex 39.5 90 45
    endloop
  endfacet
  facet normal 0.659401 0 0.751791
    outer loop
      vertex 41.5503 93 40.0503
      vertex 42.2387 90 39.4465
      vertex 42.2387 93 39.4465
    endloop
  endfacet
  facet normal 0.659401 0 0.751791
    outer loop
      vertex 42.2387 90 39.4465
      vertex 41.5503 93 40.0503
      vertex 41.5503 90 40.0503
    endloop
  endfacet
  facet normal 0.195066 0 0.98079
    outer loop
      vertex 44.6883 93 38.2385
      vertex 45.5863 90 38.0599
      vertex 45.5863 93 38.0599
    endloop
  endfacet
  facet normal 0.195066 0 0.98079
    outer loop
      vertex 45.5863 90 38.0599
      vertex 44.6883 93 38.2385
      vertex 44.6883 90 38.2385
    endloop
  endfacet
  facet normal 0.195066 0 -0.98079
    outer loop
      vertex 44.6883 90 51.7615
      vertex 45.5863 93 51.9401
      vertex 45.5863 90 51.9401
    endloop
  endfacet
  facet normal 0.195066 0 -0.98079
    outer loop
      vertex 45.5863 93 51.9401
      vertex 44.6883 90 51.7615
      vertex 44.6883 93 51.7615
    endloop
  endfacet
  facet normal -0.195066 0 -0.98079
    outer loop
      vertex 47.4137 90 51.9401
      vertex 48.3117 93 51.7615
      vertex 48.3117 90 51.7615
    endloop
  endfacet
  facet normal -0.195066 0 -0.98079
    outer loop
      vertex 48.3117 93 51.7615
      vertex 47.4137 90 51.9401
      vertex 47.4137 93 51.9401
    endloop
  endfacet
  facet normal -0.946944 0 0.3214
    outer loop
      vertex 52.9672 90 42.3212
      vertex 53.2615 93 43.1883
      vertex 52.9672 93 42.3212
    endloop
  endfacet
  facet normal -0.946944 0 0.3214
    outer loop
      vertex 53.2615 93 43.1883
      vertex 52.9672 90 42.3212
      vertex 53.2615 90 43.1883
    endloop
  endfacet
  facet normal -0.98079 0 0.195066
    outer loop
      vertex 53.2615 90 43.1883
      vertex 53.4401 93 44.0863
      vertex 53.2615 93 43.1883
    endloop
  endfacet
  facet normal -0.98079 0 0.195066
    outer loop
      vertex 53.4401 93 44.0863
      vertex 53.2615 90 43.1883
      vertex 53.4401 90 44.0863
    endloop
  endfacet
  facet normal -0.751791 0 0.659401
    outer loop
      vertex 51.4497 90 40.0503
      vertex 52.0535 93 40.7387
      vertex 51.4497 93 40.0503
    endloop
  endfacet
  facet normal -0.751791 0 0.659401
    outer loop
      vertex 52.0535 93 40.7387
      vertex 51.4497 90 40.0503
      vertex 52.0535 90 40.7387
    endloop
  endfacet
  facet normal -0.831462 0 0.555582
    outer loop
      vertex 52.0535 90 40.7387
      vertex 52.5622 93 41.5
      vertex 52.0535 93 40.7387
    endloop
  endfacet
  facet normal -0.831462 0 0.555582
    outer loop
      vertex 52.5622 93 41.5
      vertex 52.0535 90 40.7387
      vertex 52.5622 90 41.5
    endloop
  endfacet
  facet normal -0.0654172 0 0.997858
    outer loop
      vertex 46.5 93 38
      vertex 47.4137 90 38.0599
      vertex 47.4137 93 38.0599
    endloop
  endfacet
  facet normal -0.0654172 0 0.997858
    outer loop
      vertex 47.4137 90 38.0599
      vertex 46.5 93 38
      vertex 46.5 90 38
    endloop
  endfacet
  facet normal 0.946944 -0 0.3214
    outer loop
      vertex 39.7385 90 43.1883
      vertex 40.0328 93 42.3212
      vertex 39.7385 93 43.1883
    endloop
  endfacet
  facet normal 0.946944 0 0.3214
    outer loop
      vertex 40.0328 93 42.3212
      vertex 39.7385 90 43.1883
      vertex 40.0328 90 42.3212
    endloop
  endfacet
  facet normal 0.997858 -0 0.0654172
    outer loop
      vertex 39.5 90 45
      vertex 39.5599 93 44.0863
      vertex 39.5 93 45
    endloop
  endfacet
  facet normal 0.997858 0 0.0654172
    outer loop
      vertex 39.5599 93 44.0863
      vertex 39.5 90 45
      vertex 39.5599 90 44.0863
    endloop
  endfacet
  facet normal 0.555582 0 0.831462
    outer loop
      vertex 42.2387 93 39.4465
      vertex 43 90 38.9378
      vertex 43 93 38.9378
    endloop
  endfacet
  facet normal 0.555582 0 0.831462
    outer loop
      vertex 43 90 38.9378
      vertex 42.2387 93 39.4465
      vertex 42.2387 90 39.4465
    endloop
  endfacet
  facet normal 0.3214 0 0.946944
    outer loop
      vertex 43.8212 93 38.5328
      vertex 44.6883 90 38.2385
      vertex 44.6883 93 38.2385
    endloop
  endfacet
  facet normal 0.3214 0 0.946944
    outer loop
      vertex 44.6883 90 38.2385
      vertex 43.8212 93 38.5328
      vertex 43.8212 90 38.5328
    endloop
  endfacet
  facet normal -0.997858 0 -0.0654172
    outer loop
      vertex 53.5 90 45
      vertex 53.4401 93 45.9137
      vertex 53.5 93 45
    endloop
  endfacet
  facet normal -0.997858 -0 -0.0654172
    outer loop
      vertex 53.4401 93 45.9137
      vertex 53.5 90 45
      vertex 53.4401 90 45.9137
    endloop
  endfacet
  facet normal -0.98079 0 -0.195066
    outer loop
      vertex 53.4401 90 45.9137
      vertex 53.2615 93 46.8117
      vertex 53.4401 93 45.9137
    endloop
  endfacet
  facet normal -0.98079 -0 -0.195066
    outer loop
      vertex 53.2615 93 46.8117
      vertex 53.4401 90 45.9137
      vertex 53.2615 90 46.8117
    endloop
  endfacet
  facet normal 0.0654172 0 -0.997858
    outer loop
      vertex 45.5863 90 51.9401
      vertex 46.5 93 52
      vertex 46.5 90 52
    endloop
  endfacet
  facet normal 0.0654172 0 -0.997858
    outer loop
      vertex 46.5 93 52
      vertex 45.5863 90 51.9401
      vertex 45.5863 93 51.9401
    endloop
  endfacet
  facet normal 0.98079 0 -0.195066
    outer loop
      vertex 39.7385 90 46.8117
      vertex 39.5599 93 45.9137
      vertex 39.7385 93 46.8117
    endloop
  endfacet
  facet normal 0.98079 0 -0.195066
    outer loop
      vertex 39.5599 93 45.9137
      vertex 39.7385 90 46.8117
      vertex 39.5599 90 45.9137
    endloop
  endfacet
  facet normal 0.89686 0 -0.442314
    outer loop
      vertex 40.4378 90 48.5
      vertex 40.0328 93 47.6788
      vertex 40.4378 93 48.5
    endloop
  endfacet
  facet normal 0.89686 0 -0.442314
    outer loop
      vertex 40.0328 93 47.6788
      vertex 40.4378 90 48.5
      vertex 40.0328 90 47.6788
    endloop
  endfacet
  facet normal -0.442314 0 -0.89686
    outer loop
      vertex 49.1788 90 51.4672
      vertex 50 93 51.0622
      vertex 50 90 51.0622
    endloop
  endfacet
  facet normal -0.442314 0 -0.89686
    outer loop
      vertex 50 93 51.0622
      vertex 49.1788 90 51.4672
      vertex 49.1788 93 51.4672
    endloop
  endfacet
  facet normal -0.3214 0 -0.946944
    outer loop
      vertex 48.3117 90 51.7615
      vertex 49.1788 93 51.4672
      vertex 49.1788 90 51.4672
    endloop
  endfacet
  facet normal -0.3214 0 -0.946944
    outer loop
      vertex 49.1788 93 51.4672
      vertex 48.3117 90 51.7615
      vertex 48.3117 93 51.7615
    endloop
  endfacet
  facet normal -0.442314 0 0.89686
    outer loop
      vertex 49.1788 93 38.5328
      vertex 50 90 38.9378
      vertex 50 93 38.9378
    endloop
  endfacet
  facet normal -0.442314 0 0.89686
    outer loop
      vertex 50 90 38.9378
      vertex 49.1788 93 38.5328
      vertex 49.1788 90 38.5328
    endloop
  endfacet
  facet normal -0.946944 0 -0.3214
    outer loop
      vertex 53.2615 90 46.8117
      vertex 52.9672 93 47.6788
      vertex 53.2615 93 46.8117
    endloop
  endfacet
  facet normal -0.946944 -0 -0.3214
    outer loop
      vertex 52.9672 93 47.6788
      vertex 53.2615 90 46.8117
      vertex 52.9672 90 47.6788
    endloop
  endfacet
  facet normal -0.831462 0 -0.555582
    outer loop
      vertex 52.5622 90 48.5
      vertex 52.0535 93 49.2613
      vertex 52.5622 93 48.5
    endloop
  endfacet
  facet normal -0.831462 -0 -0.555582
    outer loop
      vertex 52.0535 93 49.2613
      vertex 52.5622 90 48.5
      vertex 52.0535 90 49.2613
    endloop
  endfacet
  facet normal -0.555582 0 -0.831462
    outer loop
      vertex 50 90 51.0622
      vertex 50.7613 93 50.5535
      vertex 50.7613 90 50.5535
    endloop
  endfacet
  facet normal -0.555582 0 -0.831462
    outer loop
      vertex 50.7613 93 50.5535
      vertex 50 90 51.0622
      vertex 50 93 51.0622
    endloop
  endfacet
  facet normal -0.751791 0 -0.659401
    outer loop
      vertex 52.0535 90 49.2613
      vertex 51.4497 93 49.9497
      vertex 52.0535 93 49.2613
    endloop
  endfacet
  facet normal -0.751791 -0 -0.659401
    outer loop
      vertex 51.4497 93 49.9497
      vertex 52.0535 90 49.2613
      vertex 51.4497 90 49.9497
    endloop
  endfacet
  facet normal -0.89686 0 -0.442314
    outer loop
      vertex 52.9672 90 47.6788
      vertex 52.5622 93 48.5
      vertex 52.9672 93 47.6788
    endloop
  endfacet
  facet normal -0.89686 -0 -0.442314
    outer loop
      vertex 52.5622 93 48.5
      vertex 52.9672 90 47.6788
      vertex 52.5622 90 48.5
    endloop
  endfacet
  facet normal 0.659401 0 -0.751791
    outer loop
      vertex 41.5503 90 49.9497
      vertex 42.2387 93 50.5535
      vertex 42.2387 90 50.5535
    endloop
  endfacet
  facet normal 0.659401 0 -0.751791
    outer loop
      vertex 42.2387 93 50.5535
      vertex 41.5503 90 49.9497
      vertex 41.5503 93 49.9497
    endloop
  endfacet
  facet normal 0.831462 0 -0.555582
    outer loop
      vertex 40.9465 90 49.2613
      vertex 40.4378 93 48.5
      vertex 40.9465 93 49.2613
    endloop
  endfacet
  facet normal 0.831462 0 -0.555582
    outer loop
      vertex 40.4378 93 48.5
      vertex 40.9465 90 49.2613
      vertex 40.4378 90 48.5
    endloop
  endfacet
  facet normal 0.946944 0 -0.3214
    outer loop
      vertex 40.0328 90 47.6788
      vertex 39.7385 93 46.8117
      vertex 40.0328 93 47.6788
    endloop
  endfacet
  facet normal 0.946944 0 -0.3214
    outer loop
      vertex 39.7385 93 46.8117
      vertex 40.0328 90 47.6788
      vertex 39.7385 90 46.8117
    endloop
  endfacet
  facet normal -0.659401 0 -0.751791
    outer loop
      vertex 50.7613 90 50.5535
      vertex 51.4497 93 49.9497
      vertex 51.4497 90 49.9497
    endloop
  endfacet
  facet normal -0.659401 0 -0.751791
    outer loop
      vertex 51.4497 93 49.9497
      vertex 50.7613 90 50.5535
      vertex 50.7613 93 50.5535
    endloop
  endfacet
  facet normal -0.0654172 0 -0.997858
    outer loop
      vertex 46.5 90 52
      vertex 47.4137 93 51.9401
      vertex 47.4137 90 51.9401
    endloop
  endfacet
  facet normal -0.0654172 0 -0.997858
    outer loop
      vertex 47.4137 93 51.9401
      vertex 46.5 90 52
      vertex 46.5 93 52
    endloop
  endfacet
  facet normal 0.751791 0 -0.659401
    outer loop
      vertex 41.5503 90 49.9497
      vertex 40.9465 93 49.2613
      vertex 41.5503 93 49.9497
    endloop
  endfacet
  facet normal 0.751791 0 -0.659401
    outer loop
      vertex 40.9465 93 49.2613
      vertex 41.5503 90 49.9497
      vertex 40.9465 90 49.2613
    endloop
  endfacet
  facet normal 0.555582 0 -0.831462
    outer loop
      vertex 42.2387 90 50.5535
      vertex 43 93 51.0622
      vertex 43 90 51.0622
    endloop
  endfacet
  facet normal 0.555582 0 -0.831462
    outer loop
      vertex 43 93 51.0622
      vertex 42.2387 90 50.5535
      vertex 42.2387 93 50.5535
    endloop
  endfacet
  facet normal 0.3214 0 -0.946944
    outer loop
      vertex 43.8212 90 51.4672
      vertex 44.6883 93 51.7615
      vertex 44.6883 90 51.7615
    endloop
  endfacet
  facet normal 0.3214 0 -0.946944
    outer loop
      vertex 44.6883 93 51.7615
      vertex 43.8212 90 51.4672
      vertex 43.8212 93 51.4672
    endloop
  endfacet
  facet normal 0.442314 0 -0.89686
    outer loop
      vertex 43 90 51.0622
      vertex 43.8212 93 51.4672
      vertex 43.8212 90 51.4672
    endloop
  endfacet
  facet normal 0.442314 0 -0.89686
    outer loop
      vertex 43.8212 93 51.4672
      vertex 43 90 51.0622
      vertex 43 93 51.0622
    endloop
  endfacet
  facet normal -0 0 1
    outer loop
      vertex 16.5 3 78.5
      vertex 20.5 0 78.5
      vertex 20.5 3 78.5
    endloop
  endfacet
  facet normal 0 0 1
    outer loop
      vertex 20.5 0 78.5
      vertex 16.5 3 78.5
      vertex 16.5 0 78.5
    endloop
  endfacet
  facet normal -0 0 1
    outer loop
      vertex 23.5 3 78.5
      vertex 27.5 0 78.5
      vertex 27.5 3 78.5
    endloop
  endfacet
  facet normal 0 0 1
    outer loop
      vertex 27.5 0 78.5
      vertex 23.5 3 78.5
      vertex 23.5 0 78.5
    endloop
  endfacet
  facet normal -0 0 1
    outer loop
      vertex 30.5 3 78.5
      vertex 34.5 0 78.5
      vertex 34.5 3 78.5
    endloop
  endfacet
  facet normal 0 0 1
    outer loop
      vertex 34.5 0 78.5
      vertex 30.5 3 78.5
      vertex 30.5 0 78.5
    endloop
  endfacet
  facet normal -0 0 1
    outer loop
      vertex 37.5 3 78.5
      vertex 41.5 0 78.5
      vertex 41.5 3 78.5
    endloop
  endfacet
  facet normal 0 0 1
    outer loop
      vertex 41.5 0 78.5
      vertex 37.5 3 78.5
      vertex 37.5 0 78.5
    endloop
  endfacet
  facet normal -0 0 1
    outer loop
      vertex 44.5 3 78.5
      vertex 48.5 0 78.5
      vertex 48.5 3 78.5
    endloop
  endfacet
  facet normal 0 0 1
    outer loop
      vertex 48.5 0 78.5
      vertex 44.5 3 78.5
      vertex 44.5 0 78.5
    endloop
  endfacet
  facet normal -0 0 1
    outer loop
      vertex 51.5 3 78.5
      vertex 55.5 0 78.5
      vertex 55.5 3 78.5
    endloop
  endfacet
  facet normal 0 0 1
    outer loop
      vertex 55.5 0 78.5
      vertex 51.5 3 78.5
      vertex 51.5 0 78.5
    endloop
  endfacet
  facet normal -0 0 1
    outer loop
      vertex 58.5 3 78.5
      vertex 62.5 0 78.5
      vertex 62.5 3 78.5
    endloop
  endfacet
  facet normal 0 0 1
    outer loop
      vertex 62.5 0 78.5
      vertex 58.5 3 78.5
      vertex 58.5 0 78.5
    endloop
  endfacet
  facet normal -0 0 1
    outer loop
      vertex 65.5 3 78.5
      vertex 69.5 0 78.5
      vertex 69.5 3 78.5
    endloop
  endfacet
  facet normal 0 0 1
    outer loop
      vertex 69.5 0 78.5
      vertex 65.5 3 78.5
      vertex 65.5 0 78.5
    endloop
  endfacet
  facet normal -0 0 1
    outer loop
      vertex 72.5 3 78.5
      vertex 76.5 0 78.5
      vertex 76.5 3 78.5
    endloop
  endfacet
  facet normal 0 0 1
    outer loop
      vertex 76.5 0 78.5
      vertex 72.5 3 78.5
      vertex 72.5 0 78.5
    endloop
  endfacet
  facet normal 0 0 -1
    outer loop
      vertex 16.5 0 75.5
      vertex 20.5 3 75.5
      vertex 20.5 0 75.5
    endloop
  endfacet
  facet normal -0 0 -1
    outer loop
      vertex 20.5 3 75.5
      vertex 16.5 0 75.5
      vertex 16.5 3 75.5
    endloop
  endfacet
  facet normal 0 0 -1
    outer loop
      vertex 23.5 0 75.5
      vertex 27.5 3 75.5
      vertex 27.5 0 75.5
    endloop
  endfacet
  facet normal -0 0 -1
    outer loop
      vertex 27.5 3 75.5
      vertex 23.5 0 75.5
      vertex 23.5 3 75.5
    endloop
  endfacet
  facet normal 0 0 -1
    outer loop
      vertex 30.5 0 75.5
      vertex 34.5 3 75.5
      vertex 34.5 0 75.5
    endloop
  endfacet
  facet normal -0 0 -1
    outer loop
      vertex 34.5 3 75.5
      vertex 30.5 0 75.5
      vertex 30.5 3 75.5
    endloop
  endfacet
  facet normal 0 0 -1
    outer loop
      vertex 37.5 0 75.5
      vertex 41.5 3 75.5
      vertex 41.5 0 75.5
    endloop
  endfacet
  facet normal -0 0 -1
    outer loop
      vertex 41.5 3 75.5
      vertex 37.5 0 75.5
      vertex 37.5 3 75.5
    endloop
  endfacet
  facet normal 0 0 -1
    outer loop
      vertex 44.5 0 75.5
      vertex 48.5 3 75.5
      vertex 48.5 0 75.5
    endloop
  endfacet
  facet normal -0 0 -1
    outer loop
      vertex 48.5 3 75.5
      vertex 44.5 0 75.5
      vertex 44.5 3 75.5
    endloop
  endfacet
  facet normal 0 0 -1
    outer loop
      vertex 51.5 0 75.5
      vertex 55.5 3 75.5
      vertex 55.5 0 75.5
    endloop
  endfacet
  facet normal -0 0 -1
    outer loop
      vertex 55.5 3 75.5
      vertex 51.5 0 75.5
      vertex 51.5 3 75.5
    endloop
  endfacet
  facet normal 0 0 -1
    outer loop
      vertex 58.5 0 75.5
      vertex 62.5 3 75.5
      vertex 62.5 0 75.5
    endloop
  endfacet
  facet normal -0 0 -1
    outer loop
      vertex 62.5 3 75.5
      vertex 58.5 0 75.5
      vertex 58.5 3 75.5
    endloop
  endfacet
  facet normal 0 0 -1
    outer loop
      vertex 65.5 0 75.5
      vertex 69.5 3 75.5
      vertex 69.5 0 75.5
    endloop
  endfacet
  facet normal -0 0 -1
    outer loop
      vertex 69.5 3 75.5
      vertex 65.5 0 75.5
      vertex 65.5 3 75.5
    endloop
  endfacet
  facet normal 0 0 -1
    outer loop
      vertex 72.5 0 75.5
      vertex 76.5 3 75.5
      vertex 76.5 0 75.5
    endloop
  endfacet
  facet normal -0 0 -1
    outer loop
      vertex 76.5 3 75.5
      vertex 72.5 0 75.5
      vertex 72.5 3 75.5
    endloop
  endfacet
  facet normal 0 0 1
    outer loop
      vertex 93 93 115
      vertex 90 90 115
      vertex 93 0 115
    endloop
  endfacet
  facet normal 0 0 1
    outer loop
      vertex 93 93 115
      vertex 3 90 115
      vertex 90 90 115
    endloop
  endfacet
  facet normal 0 0 1
    outer loop
      vertex 3 90 115
      vertex 0 93 115
      vertex 3 3 115
    endloop
  endfacet
  facet normal -0 0 1
    outer loop
      vertex 0 93 115
      vertex 3 90 115
      vertex 93 93 115
    endloop
  endfacet
  facet normal -0 0 1
    outer loop
      vertex 90 3 115
      vertex 93 0 115
      vertex 90 90 115
    endloop
  endfacet
  facet normal 0 0 1
    outer loop
      vertex 76.5 0 115
      vertex 90 3 115
      vertex 76.5 3 115
    endloop
  endfacet
  facet normal 0 0 1
    outer loop
      vertex 90 3 115
      vertex 76.5 0 115
      vertex 93 0 115
    endloop
  endfacet
  facet normal -0 0 1
    outer loop
      vertex 3 3 115
      vertex 16.5 0 115
      vertex 16.5 3 115
    endloop
  endfacet
  facet normal 0 0 1
    outer loop
      vertex 3 3 115
      vertex 0 0 115
      vertex 16.5 0 115
    endloop
  endfacet
  facet normal 0 0 1
    outer loop
      vertex 0 0 115
      vertex 3 3 115
      vertex 0 93 115
    endloop
  endfacet
  facet normal -0 0 1
    outer loop
      vertex 20.5 3 115
      vertex 23.5 0 115
      vertex 23.5 3 115
    endloop
  endfacet
  facet normal 0 0 1
    outer loop
      vertex 23.5 0 115
      vertex 20.5 3 115
      vertex 20.5 0 115
    endloop
  endfacet
  facet normal -0 0 1
    outer loop
      vertex 27.5 3 115
      vertex 30.5 0 115
      vertex 30.5 3 115
    endloop
  endfacet
  facet normal 0 0 1
    outer loop
      vertex 30.5 0 115
      vertex 27.5 3 115
      vertex 27.5 0 115
    endloop
  endfacet
  facet normal -0 0 1
    outer loop
      vertex 34.5 3 115
      vertex 37.5 0 115
      vertex 37.5 3 115
    endloop
  endfacet
  facet normal 0 0 1
    outer loop
      vertex 37.5 0 115
      vertex 34.5 3 115
      vertex 34.5 0 115
    endloop
  endfacet
  facet normal -0 0 1
    outer loop
      vertex 41.5 3 115
      vertex 44.5 0 115
      vertex 44.5 3 115
    endloop
  endfacet
  facet normal 0 0 1
    outer loop
      vertex 44.5 0 115
      vertex 41.5 3 115
      vertex 41.5 0 115
    endloop
  endfacet
  facet normal -0 0 1
    outer loop
      vertex 48.5 3 115
      vertex 51.5 0 115
      vertex 51.5 3 115
    endloop
  endfacet
  facet normal 0 0 1
    outer loop
      vertex 51.5 0 115
      vertex 48.5 3 115
      vertex 48.5 0 115
    endloop
  endfacet
  facet normal -0 0 1
    outer loop
      vertex 55.5 3 115
      vertex 58.5 0 115
      vertex 58.5 3 115
    endloop
  endfacet
  facet normal 0 0 1
    outer loop
      vertex 58.5 0 115
      vertex 55.5 3 115
      vertex 55.5 0 115
    endloop
  endfacet
  facet normal -0 0 1
    outer loop
      vertex 62.5 3 115
      vertex 65.5 0 115
      vertex 65.5 3 115
    endloop
  endfacet
  facet normal 0 0 1
    outer loop
      vertex 65.5 0 115
      vertex 62.5 3 115
      vertex 62.5 0 115
    endloop
  endfacet
  facet normal -0 0 1
    outer loop
      vertex 69.5 3 115
      vertex 72.5 0 115
      vertex 72.5 3 115
    endloop
  endfacet
  facet normal 0 0 1
    outer loop
      vertex 72.5 0 115
      vertex 69.5 3 115
      vertex 69.5 0 115
    endloop
  endfacet
  facet normal -1 0 0
    outer loop
      vertex 3.35 3.35 115
      vertex 3.35 89.65 129
      vertex 3.35 89.65 115
    endloop
  endfacet
  facet normal -1 -0 0
    outer loop
      vertex 3.35 89.65 129
      vertex 3.35 3.35 115
      vertex 3.35 3.35 129
    endloop
  endfacet
  facet normal 0 0 1
    outer loop
      vertex 89.65 89.65 129
      vertex 86.65 86.65 129
      vertex 89.65 3.35 129
    endloop
  endfacet
  facet normal 0 0 1
    outer loop
      vertex 89.65 89.65 129
      vertex 6.35 86.65 129
      vertex 86.65 86.65 129
    endloop
  endfacet
  facet normal 0 0 1
    outer loop
      vertex 6.35 86.65 129
      vertex 3.35 89.65 129
      vertex 6.35 6.35 129
    endloop
  endfacet
  facet normal -0 0 1
    outer loop
      vertex 3.35 89.65 129
      vertex 6.35 86.65 129
      vertex 89.65 89.65 129
    endloop
  endfacet
  facet normal -0 0 1
    outer loop
      vertex 86.65 6.35 129
      vertex 89.65 3.35 129
      vertex 86.65 86.65 129
    endloop
  endfacet
  facet normal -0 0 1
    outer loop
      vertex 6.35 6.35 129
      vertex 89.65 3.35 129
      vertex 86.65 6.35 129
    endloop
  endfacet
  facet normal 0 0 1
    outer loop
      vertex 6.35 6.35 129
      vertex 3.35 3.35 129
      vertex 89.65 3.35 129
    endloop
  endfacet
  facet normal 0 0 1
    outer loop
      vertex 3.35 3.35 129
      vertex 6.35 6.35 129
      vertex 3.35 89.65 129
    endloop
  endfacet
  facet normal 1 -0 0
    outer loop
      vertex 89.65 3.35 129
      vertex 89.65 89.65 115
      vertex 89.65 89.65 129
    endloop
  endfacet
  facet normal 1 0 0
    outer loop
      vertex 89.65 89.65 115
      vertex 89.65 3.35 129
      vertex 89.65 3.35 115
    endloop
  endfacet
  facet normal 0 1 -0
    outer loop
      vertex 89.65 89.65 115
      vertex 3.35 89.65 129
      vertex 89.65 89.65 129
    endloop
  endfacet
  facet normal 0 1 0
    outer loop
      vertex 3.35 89.65 129
      vertex 89.65 89.65 115
      vertex 3.35 89.65 115
    endloop
  endfacet
  facet normal 0 0 -1
    outer loop
      vertex 89.65 3.35 115
      vertex 86.65 6.35 115
      vertex 89.65 89.65 115
    endloop
  endfacet
  facet normal 0 0 -1
    outer loop
      vertex 89.65 3.35 115
      vertex 6.35 6.35 115
      vertex 86.65 6.35 115
    endloop
  endfacet
  facet normal -0 0 -1
    outer loop
      vertex 6.35 6.35 115
      vertex 3.35 3.35 115
      vertex 6.35 86.65 115
    endloop
  endfacet
  facet normal 0 0 -1
    outer loop
      vertex 3.35 3.35 115
      vertex 6.35 6.35 115
      vertex 89.65 3.35 115
    endloop
  endfacet
  facet normal 0 0 -1
    outer loop
      vertex 86.65 86.65 115
      vertex 89.65 89.65 115
      vertex 86.65 6.35 115
    endloop
  endfacet
  facet normal 0 0 -1
    outer loop
      vertex 6.35 86.65 115
      vertex 89.65 89.65 115
      vertex 86.65 86.65 115
    endloop
  endfacet
  facet normal 0 0 -1
    outer loop
      vertex 6.35 86.65 115
      vertex 3.35 89.65 115
      vertex 89.65 89.65 115
    endloop
  endfacet
  facet normal 0 0 -1
    outer loop
      vertex 3.35 89.65 115
      vertex 6.35 86.65 115
      vertex 3.35 3.35 115
    endloop
  endfacet
  facet normal 0 -1 0
    outer loop
      vertex 3.35 3.35 115
      vertex 89.65 3.35 129
      vertex 3.35 3.35 129
    endloop
  endfacet
  facet normal 0 -1 -0
    outer loop
      vertex 89.65 3.35 129
      vertex 3.35 3.35 115
      vertex 89.65 3.35 115
    endloop
  endfacet
  facet normal 1 -0 0
    outer loop
      vertex 6.35 6.35 129
      vertex 6.35 86.65 115
      vertex 6.35 86.65 129
    endloop
  endfacet
  facet normal 1 0 0
    outer loop
      vertex 6.35 86.65 115
      vertex 6.35 6.35 129
      vertex 6.35 6.35 115
    endloop
  endfacet
  facet normal -1 0 0
    outer loop
      vertex 86.65 6.35 115
      vertex 86.65 86.65 129
      vertex 86.65 86.65 115
    endloop
  endfacet
  facet normal -1 -0 0
    outer loop
      vertex 86.65 86.65 129
      vertex 86.65 6.35 115
      vertex 86.65 6.35 129
    endloop
  endfacet
  facet normal 0 1 -0
    outer loop
      vertex 86.65 6.35 115
      vertex 6.35 6.35 129
      vertex 86.65 6.35 129
    endloop
  endfacet
  facet normal 0 1 0
    outer loop
      vertex 6.35 6.35 129
      vertex 86.65 6.35 115
      vertex 6.35 6.35 115
    endloop
  endfacet
  facet normal 0 -1 0
    outer loop
      vertex 6.35 86.65 115
      vertex 86.65 86.65 129
      vertex 6.35 86.65 129
    endloop
  endfacet
  facet normal 0 -1 -0
    outer loop
      vertex 86.65 86.65 129
      vertex 6.35 86.65 115
      vertex 86.65 86.65 115
    endloop
  endfacet
endsolid OpenSCAD_Model
