solid OpenSCAD_Model
  facet normal -1 0 0
    outer loop
      vertex 3.35 3.35 4
      vertex 3.35 229.65 10
      vertex 3.35 229.65 4
    endloop
  endfacet
  facet normal -1 -0 0
    outer loop
      vertex 3.35 229.65 10
      vertex 3.35 3.35 4
      vertex 3.35 3.35 10
    endloop
  endfacet
  facet normal 0 0 1
    outer loop
      vertex 53.85 229.65 10
      vertex 6.35 226.65 10
      vertex 53.85 226.65 10
    endloop
  endfacet
  facet normal 0 0 1
    outer loop
      vertex 6.35 226.65 10
      vertex 3.35 229.65 10
      vertex 6.35 6.35 10
    endloop
  endfacet
  facet normal -0 0 1
    outer loop
      vertex 3.35 229.65 10
      vertex 6.35 226.65 10
      vertex 53.85 229.65 10
    endloop
  endfacet
  facet normal 0 0 1
    outer loop
      vertex 119.65 229.65 10
      vertex 116.65 226.65 10
      vertex 119.65 3.35 10
    endloop
  endfacet
  facet normal -0 0 1
    outer loop
      vertex 69.85 229.65 10
      vertex 116.65 226.65 10
      vertex 119.65 229.65 10
    endloop
  endfacet
  facet normal 0 0 1
    outer loop
      vertex 116.65 226.65 10
      vertex 69.85 229.65 10
      vertex 69.85 226.65 10
    endloop
  endfacet
  facet normal -0 0 1
    outer loop
      vertex 116.65 6.35 10
      vertex 119.65 3.35 10
      vertex 116.65 226.65 10
    endloop
  endfacet
  facet normal -0 0 1
    outer loop
      vertex 6.35 6.35 10
      vertex 119.65 3.35 10
      vertex 116.65 6.35 10
    endloop
  endfacet
  facet normal 0 0 1
    outer loop
      vertex 6.35 6.35 10
      vertex 3.35 3.35 10
      vertex 119.65 3.35 10
    endloop
  endfacet
  facet normal 0 0 1
    outer loop
      vertex 3.35 3.35 10
      vertex 6.35 6.35 10
      vertex 3.35 229.65 10
    endloop
  endfacet
  facet normal 1 -0 0
    outer loop
      vertex 119.65 3.35 10
      vertex 119.65 229.65 4
      vertex 119.65 229.65 10
    endloop
  endfacet
  facet normal 1 0 0
    outer loop
      vertex 119.65 229.65 4
      vertex 119.65 3.35 10
      vertex 119.65 3.35 4
    endloop
  endfacet
  facet normal 0 1 -0
    outer loop
      vertex 119.65 229.65 4
      vertex 69.85 229.65 10
      vertex 119.65 229.65 10
    endloop
  endfacet
  facet normal 0 1 0
    outer loop
      vertex 69.85 229.65 10
      vertex 119.65 229.65 4
      vertex 69.85 229.65 4
    endloop
  endfacet
  facet normal 0 1 -0
    outer loop
      vertex 53.85 229.65 4
      vertex 3.35 229.65 10
      vertex 53.85 229.65 10
    endloop
  endfacet
  facet normal 0 1 0
    outer loop
      vertex 3.35 229.65 10
      vertex 53.85 229.65 4
      vertex 3.35 229.65 4
    endloop
  endfacet
  facet normal 0 0 1
    outer loop
      vertex 123 233 4
      vertex 119.65 229.65 4
      vertex 123 0 4
    endloop
  endfacet
  facet normal 0 0 1
    outer loop
      vertex 123 233 4
      vertex 69.85 229.65 4
      vertex 119.65 229.65 4
    endloop
  endfacet
  facet normal 0 0 1
    outer loop
      vertex 69.85 229.65 4
      vertex 53.85 229.65 4
      vertex 69.85 226.65 4
    endloop
  endfacet
  facet normal 0 0 1
    outer loop
      vertex 123 233 4
      vertex 53.85 229.65 4
      vertex 69.85 229.65 4
    endloop
  endfacet
  facet normal -0 0 1
    outer loop
      vertex 0 233 4
      vertex 53.85 229.65 4
      vertex 123 233 4
    endloop
  endfacet
  facet normal 0 0 1
    outer loop
      vertex 3.35 229.65 4
      vertex 0 233 4
      vertex 3.35 3.35 4
    endloop
  endfacet
  facet normal 0 0 1
    outer loop
      vertex 53.85 229.65 4
      vertex 0 233 4
      vertex 3.35 229.65 4
    endloop
  endfacet
  facet normal -0 0 1
    outer loop
      vertex 119.65 3.35 4
      vertex 123 0 4
      vertex 119.65 229.65 4
    endloop
  endfacet
  facet normal -0 0 1
    outer loop
      vertex 3.35 3.35 4
      vertex 123 0 4
      vertex 119.65 3.35 4
    endloop
  endfacet
  facet normal 0 0 1
    outer loop
      vertex 3.35 3.35 4
      vertex 0 0 4
      vertex 123 0 4
    endloop
  endfacet
  facet normal 0 0 1
    outer loop
      vertex 0 0 4
      vertex 3.35 3.35 4
      vertex 0 233 4
    endloop
  endfacet
  facet normal -0 0 1
    outer loop
      vertex 69.85 226.65 4
      vertex 116.65 6.35 4
      vertex 116.65 226.65 4
    endloop
  endfacet
  facet normal 0 0 1
    outer loop
      vertex 53.85 226.65 4
      vertex 69.85 226.65 4
      vertex 53.85 229.65 4
    endloop
  endfacet
  facet normal 0 0 1
    outer loop
      vertex 69.85 226.65 4
      vertex 53.85 226.65 4
      vertex 116.65 6.35 4
    endloop
  endfacet
  facet normal 0 0 1
    outer loop
      vertex 6.35 6.35 4
      vertex 53.85 226.65 4
      vertex 6.35 226.65 4
    endloop
  endfacet
  facet normal 0 0 1
    outer loop
      vertex 53.85 226.65 4
      vertex 6.35 6.35 4
      vertex 116.65 6.35 4
    endloop
  endfacet
  facet normal 0 -1 0
    outer loop
      vertex 3.35 3.35 4
      vertex 119.65 3.35 10
      vertex 3.35 3.35 10
    endloop
  endfacet
  facet normal 0 -1 -0
    outer loop
      vertex 119.65 3.35 10
      vertex 3.35 3.35 4
      vertex 119.65 3.35 4
    endloop
  endfacet
  facet normal 1 -0 0
    outer loop
      vertex 6.35 6.35 10
      vertex 6.35 226.65 4
      vertex 6.35 226.65 10
    endloop
  endfacet
  facet normal 1 0 0
    outer loop
      vertex 6.35 226.65 4
      vertex 6.35 6.35 10
      vertex 6.35 6.35 4
    endloop
  endfacet
  facet normal -1 0 0
    outer loop
      vertex 116.65 6.35 4
      vertex 116.65 226.65 10
      vertex 116.65 226.65 4
    endloop
  endfacet
  facet normal -1 -0 0
    outer loop
      vertex 116.65 226.65 10
      vertex 116.65 6.35 4
      vertex 116.65 6.35 10
    endloop
  endfacet
  facet normal 0 1 -0
    outer loop
      vertex 116.65 6.35 4
      vertex 6.35 6.35 10
      vertex 116.65 6.35 10
    endloop
  endfacet
  facet normal 0 1 0
    outer loop
      vertex 6.35 6.35 10
      vertex 116.65 6.35 4
      vertex 6.35 6.35 4
    endloop
  endfacet
  facet normal 0 -1 0
    outer loop
      vertex 6.35 226.65 4
      vertex 53.85 226.65 10
      vertex 6.35 226.65 10
    endloop
  endfacet
  facet normal 0 -1 -0
    outer loop
      vertex 53.85 226.65 10
      vertex 6.35 226.65 4
      vertex 53.85 226.65 4
    endloop
  endfacet
  facet normal 0 -1 0
    outer loop
      vertex 69.85 226.65 4
      vertex 116.65 226.65 10
      vertex 69.85 226.65 10
    endloop
  endfacet
  facet normal 0 -1 -0
    outer loop
      vertex 116.65 226.65 10
      vertex 69.85 226.65 4
      vertex 116.65 226.65 4
    endloop
  endfacet
  facet normal 1 -0 0
    outer loop
      vertex 53.85 226.65 10
      vertex 53.85 229.65 4
      vertex 53.85 229.65 10
    endloop
  endfacet
  facet normal 1 0 0
    outer loop
      vertex 53.85 229.65 4
      vertex 53.85 226.65 10
      vertex 53.85 226.65 4
    endloop
  endfacet
  facet normal -1 0 0
    outer loop
      vertex 69.85 226.65 4
      vertex 69.85 229.65 10
      vertex 69.85 229.65 4
    endloop
  endfacet
  facet normal -1 -0 0
    outer loop
      vertex 69.85 229.65 10
      vertex 69.85 226.65 4
      vertex 69.85 226.65 10
    endloop
  endfacet
  facet normal -1 0 0
    outer loop
      vertex 0 0 0
      vertex 0 233 4
      vertex 0 233 0
    endloop
  endfacet
  facet normal -1 -0 0
    outer loop
      vertex 0 233 4
      vertex 0 0 0
      vertex 0 0 4
    endloop
  endfacet
  facet normal 1 -0 0
    outer loop
      vertex 123 0 4
      vertex 123 233 0
      vertex 123 233 4
    endloop
  endfacet
  facet normal 1 0 0
    outer loop
      vertex 123 233 0
      vertex 123 0 4
      vertex 123 0 0
    endloop
  endfacet
  facet normal 0 0 -1
    outer loop
      vertex 0 0 0
      vertex 123 233 0
      vertex 123 0 0
    endloop
  endfacet
  facet normal -0 0 -1
    outer loop
      vertex 123 233 0
      vertex 0 0 0
      vertex 0 233 0
    endloop
  endfacet
  facet normal 0 -1 0
    outer loop
      vertex 0 0 0
      vertex 123 0 4
      vertex 0 0 4
    endloop
  endfacet
  facet normal 0 -1 -0
    outer loop
      vertex 123 0 4
      vertex 0 0 0
      vertex 123 0 0
    endloop
  endfacet
  facet normal 0 1 -0
    outer loop
      vertex 123 233 0
      vertex 0 233 4
      vertex 123 233 4
    endloop
  endfacet
  facet normal 0 1 0
    outer loop
      vertex 0 233 4
      vertex 123 233 0
      vertex 0 233 0
    endloop
  endfacet
endsolid OpenSCAD_Model
