solid OpenSCAD_Model
  facet normal -1 0 0
    outer loop
      vertex 0 0 0
      vertex 0 233 123
      vertex 0 233 0
    endloop
  endfacet
  facet normal -1 -0 0
    outer loop
      vertex 0 233 123
      vertex 0 0 0
      vertex 0 0 123
    endloop
  endfacet
  facet normal 1 -0 0
    outer loop
      vertex 123 0 123
      vertex 123 233 0
      vertex 123 233 123
    endloop
  endfacet
  facet normal 1 0 0
    outer loop
      vertex 123 233 0
      vertex 123 0 123
      vertex 123 0 0
    endloop
  endfacet
  facet normal 0 1 0
    outer loop
      vertex 123 233 123
      vertex 81.5 233 70
      vertex 0 233 123
    endloop
  endfacet
  facet normal 0 1 -0
    outer loop
      vertex 123 233 0
      vertex 81.5 233 70
      vertex 123 233 123
    endloop
  endfacet
  facet normal 0 1 0
    outer loop
      vertex 81.5 233 50
      vertex 123 233 0
      vertex 41.5 233 50
    endloop
  endfacet
  facet normal 0 1 0
    outer loop
      vertex 81.5 233 70
      vertex 123 233 0
      vertex 81.5 233 50
    endloop
  endfacet
  facet normal 0 1 -0
    outer loop
      vertex 41.5 233 70
      vertex 0 233 123
      vertex 81.5 233 70
    endloop
  endfacet
  facet normal 0 1 0
    outer loop
      vertex 0 233 0
      vertex 41.5 233 70
      vertex 41.5 233 50
    endloop
  endfacet
  facet normal 0 1 0
    outer loop
      vertex 41.5 233 70
      vertex 0 233 0
      vertex 0 233 123
    endloop
  endfacet
  facet normal 0 1 0
    outer loop
      vertex 0 233 0
      vertex 41.5 233 50
      vertex 123 233 0
    endloop
  endfacet
  facet normal 0 -1 0
    outer loop
      vertex 102 0 0
      vertex 105 0 20.5
      vertex 102 0 20.5
    endloop
  endfacet
  facet normal 0 -1 -0
    outer loop
      vertex 105 0 20.5
      vertex 102 0 0
      vertex 105 0 0
    endloop
  endfacet
  facet normal 0 -1 0
    outer loop
      vertex 95 0 0
      vertex 98 0 20.5
      vertex 95 0 20.5
    endloop
  endfacet
  facet normal 0 -1 -0
    outer loop
      vertex 98 0 20.5
      vertex 95 0 0
      vertex 98 0 0
    endloop
  endfacet
  facet normal 0 -1 0
    outer loop
      vertex 88 0 0
      vertex 91 0 20.5
      vertex 88 0 20.5
    endloop
  endfacet
  facet normal 0 -1 -0
    outer loop
      vertex 91 0 20.5
      vertex 88 0 0
      vertex 91 0 0
    endloop
  endfacet
  facet normal 0 -1 0
    outer loop
      vertex 81 0 0
      vertex 84 0 20.5
      vertex 81 0 20.5
    endloop
  endfacet
  facet normal 0 -1 -0
    outer loop
      vertex 84 0 20.5
      vertex 81 0 0
      vertex 84 0 0
    endloop
  endfacet
  facet normal 0 -1 0
    outer loop
      vertex 74 0 0
      vertex 77 0 20.5
      vertex 74 0 20.5
    endloop
  endfacet
  facet normal 0 -1 -0
    outer loop
      vertex 77 0 20.5
      vertex 74 0 0
      vertex 77 0 0
    endloop
  endfacet
  facet normal 0 -1 0
    outer loop
      vertex 67 0 0
      vertex 70 0 20.5
      vertex 67 0 20.5
    endloop
  endfacet
  facet normal 0 -1 -0
    outer loop
      vertex 70 0 20.5
      vertex 67 0 0
      vertex 70 0 0
    endloop
  endfacet
  facet normal 0 -1 0
    outer loop
      vertex 60 0 0
      vertex 63 0 20.5
      vertex 60 0 20.5
    endloop
  endfacet
  facet normal 0 -1 -0
    outer loop
      vertex 63 0 20.5
      vertex 60 0 0
      vertex 63 0 0
    endloop
  endfacet
  facet normal 0 -1 0
    outer loop
      vertex 53 0 0
      vertex 56 0 20.5
      vertex 53 0 20.5
    endloop
  endfacet
  facet normal 0 -1 -0
    outer loop
      vertex 56 0 20.5
      vertex 53 0 0
      vertex 56 0 0
    endloop
  endfacet
  facet normal 0 -1 0
    outer loop
      vertex 46 0 0
      vertex 49 0 20.5
      vertex 46 0 20.5
    endloop
  endfacet
  facet normal 0 -1 -0
    outer loop
      vertex 49 0 20.5
      vertex 46 0 0
      vertex 49 0 0
    endloop
  endfacet
  facet normal 0 -1 0
    outer loop
      vertex 39 0 0
      vertex 42 0 20.5
      vertex 39 0 20.5
    endloop
  endfacet
  facet normal 0 -1 -0
    outer loop
      vertex 42 0 20.5
      vertex 39 0 0
      vertex 42 0 0
    endloop
  endfacet
  facet normal 0 -1 0
    outer loop
      vertex 32 0 0
      vertex 35 0 20.5
      vertex 32 0 20.5
    endloop
  endfacet
  facet normal 0 -1 -0
    outer loop
      vertex 35 0 20.5
      vertex 32 0 0
      vertex 35 0 0
    endloop
  endfacet
  facet normal 0 -1 0
    outer loop
      vertex 25 0 0
      vertex 28 0 20.5
      vertex 25 0 20.5
    endloop
  endfacet
  facet normal 0 -1 -0
    outer loop
      vertex 28 0 20.5
      vertex 25 0 0
      vertex 28 0 0
    endloop
  endfacet
  facet normal 0 -1 0
    outer loop
      vertex 18 0 0
      vertex 21 0 20.5
      vertex 18 0 20.5
    endloop
  endfacet
  facet normal 0 -1 -0
    outer loop
      vertex 21 0 20.5
      vertex 18 0 0
      vertex 21 0 0
    endloop
  endfacet
  facet normal 0 -1 0
    outer loop
      vertex 102 0 23.5
      vertex 105 0 87
      vertex 102 0 87
    endloop
  endfacet
  facet normal 0 -1 -0
    outer loop
      vertex 105 0 87
      vertex 102 0 23.5
      vertex 105 0 23.5
    endloop
  endfacet
  facet normal 0 -1 0
    outer loop
      vertex 95 0 23.5
      vertex 98 0 87
      vertex 95 0 87
    endloop
  endfacet
  facet normal 0 -1 -0
    outer loop
      vertex 98 0 87
      vertex 95 0 23.5
      vertex 98 0 23.5
    endloop
  endfacet
  facet normal 0 -1 0
    outer loop
      vertex 88 0 23.5
      vertex 91 0 87
      vertex 88 0 87
    endloop
  endfacet
  facet normal 0 -1 -0
    outer loop
      vertex 91 0 87
      vertex 88 0 23.5
      vertex 91 0 23.5
    endloop
  endfacet
  facet normal 0 -1 0
    outer loop
      vertex 81 0 23.5
      vertex 84 0 87
      vertex 81 0 87
    endloop
  endfacet
  facet normal 0 -1 -0
    outer loop
      vertex 84 0 87
      vertex 81 0 23.5
      vertex 84 0 23.5
    endloop
  endfacet
  facet normal 0 -1 0
    outer loop
      vertex 74 0 23.5
      vertex 77 0 87
      vertex 74 0 87
    endloop
  endfacet
  facet normal 0 -1 -0
    outer loop
      vertex 77 0 87
      vertex 74 0 23.5
      vertex 77 0 23.5
    endloop
  endfacet
  facet normal 0 -1 0
    outer loop
      vertex 67 0 23.5
      vertex 70 0 87
      vertex 67 0 87
    endloop
  endfacet
  facet normal 0 -1 -0
    outer loop
      vertex 70 0 87
      vertex 67 0 23.5
      vertex 70 0 23.5
    endloop
  endfacet
  facet normal 0 -1 0
    outer loop
      vertex 60 0 23.5
      vertex 63 0 87
      vertex 60 0 87
    endloop
  endfacet
  facet normal 0 -1 -0
    outer loop
      vertex 63 0 87
      vertex 60 0 23.5
      vertex 63 0 23.5
    endloop
  endfacet
  facet normal 0 -1 0
    outer loop
      vertex 53 0 23.5
      vertex 56 0 87
      vertex 53 0 87
    endloop
  endfacet
  facet normal 0 -1 -0
    outer loop
      vertex 56 0 87
      vertex 53 0 23.5
      vertex 56 0 23.5
    endloop
  endfacet
  facet normal 0 -1 0
    outer loop
      vertex 46 0 23.5
      vertex 49 0 87
      vertex 46 0 87
    endloop
  endfacet
  facet normal 0 -1 -0
    outer loop
      vertex 49 0 87
      vertex 46 0 23.5
      vertex 49 0 23.5
    endloop
  endfacet
  facet normal 0 -1 0
    outer loop
      vertex 39 0 23.5
      vertex 42 0 87
      vertex 39 0 87
    endloop
  endfacet
  facet normal 0 -1 -0
    outer loop
      vertex 42 0 87
      vertex 39 0 23.5
      vertex 42 0 23.5
    endloop
  endfacet
  facet normal 0 -1 0
    outer loop
      vertex 32 0 23.5
      vertex 35 0 87
      vertex 32 0 87
    endloop
  endfacet
  facet normal 0 -1 -0
    outer loop
      vertex 35 0 87
      vertex 32 0 23.5
      vertex 35 0 23.5
    endloop
  endfacet
  facet normal 0 -1 0
    outer loop
      vertex 25 0 23.5
      vertex 28 0 87
      vertex 25 0 87
    endloop
  endfacet
  facet normal 0 -1 -0
    outer loop
      vertex 28 0 87
      vertex 25 0 23.5
      vertex 28 0 23.5
    endloop
  endfacet
  facet normal 0 -1 0
    outer loop
      vertex 18 0 23.5
      vertex 21 0 87
      vertex 18 0 87
    endloop
  endfacet
  facet normal 0 -1 -0
    outer loop
      vertex 21 0 87
      vertex 18 0 23.5
      vertex 21 0 23.5
    endloop
  endfacet
  facet normal 0 -1 0
    outer loop
      vertex 18 0 87
      vertex 0 0 123
      vertex 14 0 87
    endloop
  endfacet
  facet normal 0 -1 0
    outer loop
      vertex 0 0 0
      vertex 14 0 87
      vertex 0 0 123
    endloop
  endfacet
  facet normal 0 -1 0
    outer loop
      vertex 18 0 20.5
      vertex 18 0 23.5
      vertex 14 0 23.5
    endloop
  endfacet
  facet normal 0 -1 0
    outer loop
      vertex 18 0 23.5
      vertex 18 0 20.5
      vertex 21 0 23.5
    endloop
  endfacet
  facet normal 0 -1 0
    outer loop
      vertex 21 0 23.5
      vertex 21 0 20.5
      vertex 25 0 23.5
    endloop
  endfacet
  facet normal 0 -1 0
    outer loop
      vertex 25 0 20.5
      vertex 25 0 23.5
      vertex 21 0 20.5
    endloop
  endfacet
  facet normal 0 -1 0
    outer loop
      vertex 28 0 20.5
      vertex 28 0 23.5
      vertex 25 0 20.5
    endloop
  endfacet
  facet normal 0 -1 0
    outer loop
      vertex 28 0 23.5
      vertex 28 0 20.5
      vertex 32 0 23.5
    endloop
  endfacet
  facet normal 0 -1 0
    outer loop
      vertex 32 0 23.5
      vertex 32 0 20.5
      vertex 35 0 23.5
    endloop
  endfacet
  facet normal 0 -1 0
    outer loop
      vertex 35 0 20.5
      vertex 35 0 23.5
      vertex 32 0 20.5
    endloop
  endfacet
  facet normal 0 -1 0
    outer loop
      vertex 39 0 20.5
      vertex 39 0 23.5
      vertex 35 0 20.5
    endloop
  endfacet
  facet normal 0 -1 0
    outer loop
      vertex 39 0 23.5
      vertex 39 0 20.5
      vertex 42 0 23.5
    endloop
  endfacet
  facet normal 0 -1 0
    outer loop
      vertex 42 0 23.5
      vertex 42 0 20.5
      vertex 46 0 23.5
    endloop
  endfacet
  facet normal 0 -1 0
    outer loop
      vertex 46 0 20.5
      vertex 46 0 23.5
      vertex 42 0 20.5
    endloop
  endfacet
  facet normal 0 -1 0
    outer loop
      vertex 49 0 20.5
      vertex 49 0 23.5
      vertex 46 0 20.5
    endloop
  endfacet
  facet normal 0 -1 0
    outer loop
      vertex 49 0 23.5
      vertex 49 0 20.5
      vertex 53 0 23.5
    endloop
  endfacet
  facet normal 0 -1 0
    outer loop
      vertex 53 0 23.5
      vertex 53 0 20.5
      vertex 56 0 23.5
    endloop
  endfacet
  facet normal 0 -1 0
    outer loop
      vertex 56 0 20.5
      vertex 56 0 23.5
      vertex 53 0 20.5
    endloop
  endfacet
  facet normal 0 -1 0
    outer loop
      vertex 60 0 20.5
      vertex 60 0 23.5
      vertex 56 0 20.5
    endloop
  endfacet
  facet normal 0 -1 0
    outer loop
      vertex 60 0 23.5
      vertex 60 0 20.5
      vertex 63 0 23.5
    endloop
  endfacet
  facet normal 0 -1 0
    outer loop
      vertex 63 0 23.5
      vertex 63 0 20.5
      vertex 67 0 23.5
    endloop
  endfacet
  facet normal 0 -1 0
    outer loop
      vertex 67 0 20.5
      vertex 67 0 23.5
      vertex 63 0 20.5
    endloop
  endfacet
  facet normal 0 -1 0
    outer loop
      vertex 70 0 20.5
      vertex 70 0 23.5
      vertex 67 0 20.5
    endloop
  endfacet
  facet normal 0 -1 0
    outer loop
      vertex 74 0 20.5
      vertex 74 0 23.5
      vertex 70 0 20.5
    endloop
  endfacet
  facet normal 0 -1 0
    outer loop
      vertex 74 0 23.5
      vertex 74 0 20.5
      vertex 77 0 23.5
    endloop
  endfacet
  facet normal 0 -1 0
    outer loop
      vertex 77 0 23.5
      vertex 77 0 20.5
      vertex 81 0 23.5
    endloop
  endfacet
  facet normal 0 -1 0
    outer loop
      vertex 81 0 20.5
      vertex 81 0 23.5
      vertex 77 0 20.5
    endloop
  endfacet
  facet normal 0 -1 0
    outer loop
      vertex 81 0 23.5
      vertex 81 0 20.5
      vertex 84 0 23.5
    endloop
  endfacet
  facet normal 0 -1 0
    outer loop
      vertex 18 0 20.5
      vertex 14 0 23.5
      vertex 14 0 20.5
    endloop
  endfacet
  facet normal 0 -1 -0
    outer loop
      vertex 14 0 87
      vertex 0 0 0
      vertex 14 0 23.5
    endloop
  endfacet
  facet normal 0 -1 -0
    outer loop
      vertex 14 0 23.5
      vertex 0 0 0
      vertex 14 0 20.5
    endloop
  endfacet
  facet normal 0 -1 -0
    outer loop
      vertex 14 0 20.5
      vertex 0 0 0
      vertex 14 0 0
    endloop
  endfacet
  facet normal 0 -1 0
    outer loop
      vertex 21 0 87
      vertex 0 0 123
      vertex 18 0 87
    endloop
  endfacet
  facet normal 0 -1 0
    outer loop
      vertex 25 0 87
      vertex 0 0 123
      vertex 21 0 87
    endloop
  endfacet
  facet normal 0 -1 0
    outer loop
      vertex 28 0 87
      vertex 0 0 123
      vertex 25 0 87
    endloop
  endfacet
  facet normal 0 -1 0
    outer loop
      vertex 32 0 87
      vertex 0 0 123
      vertex 28 0 87
    endloop
  endfacet
  facet normal 0 -1 0
    outer loop
      vertex 35 0 87
      vertex 0 0 123
      vertex 32 0 87
    endloop
  endfacet
  facet normal 0 -1 0
    outer loop
      vertex 39 0 87
      vertex 0 0 123
      vertex 35 0 87
    endloop
  endfacet
  facet normal 0 -1 0
    outer loop
      vertex 42 0 87
      vertex 0 0 123
      vertex 39 0 87
    endloop
  endfacet
  facet normal 0 -1 0
    outer loop
      vertex 46 0 87
      vertex 0 0 123
      vertex 42 0 87
    endloop
  endfacet
  facet normal 0 -1 0
    outer loop
      vertex 49 0 87
      vertex 0 0 123
      vertex 46 0 87
    endloop
  endfacet
  facet normal 0 -1 0
    outer loop
      vertex 53 0 87
      vertex 0 0 123
      vertex 49 0 87
    endloop
  endfacet
  facet normal 0 -1 0
    outer loop
      vertex 56 0 87
      vertex 0 0 123
      vertex 53 0 87
    endloop
  endfacet
  facet normal 0 -1 0
    outer loop
      vertex 60 0 87
      vertex 0 0 123
      vertex 56 0 87
    endloop
  endfacet
  facet normal 0 -1 0
    outer loop
      vertex 0 0 123
      vertex 60 0 87
      vertex 123 0 123
    endloop
  endfacet
  facet normal 0 -1 0
    outer loop
      vertex 63 0 87
      vertex 123 0 123
      vertex 60 0 87
    endloop
  endfacet
  facet normal 0 -1 0
    outer loop
      vertex 67 0 87
      vertex 123 0 123
      vertex 63 0 87
    endloop
  endfacet
  facet normal 0 -1 0
    outer loop
      vertex 70 0 87
      vertex 123 0 123
      vertex 67 0 87
    endloop
  endfacet
  facet normal 0 -1 0
    outer loop
      vertex 74 0 87
      vertex 123 0 123
      vertex 70 0 87
    endloop
  endfacet
  facet normal 0 -1 0
    outer loop
      vertex 77 0 87
      vertex 123 0 123
      vertex 74 0 87
    endloop
  endfacet
  facet normal 0 -1 0
    outer loop
      vertex 81 0 87
      vertex 123 0 123
      vertex 77 0 87
    endloop
  endfacet
  facet normal 0 -1 0
    outer loop
      vertex 84 0 87
      vertex 123 0 123
      vertex 81 0 87
    endloop
  endfacet
  facet normal 0 -1 0
    outer loop
      vertex 88 0 87
      vertex 123 0 123
      vertex 84 0 87
    endloop
  endfacet
  facet normal 0 -1 0
    outer loop
      vertex 91 0 87
      vertex 123 0 123
      vertex 88 0 87
    endloop
  endfacet
  facet normal 0 -1 0
    outer loop
      vertex 95 0 87
      vertex 123 0 123
      vertex 91 0 87
    endloop
  endfacet
  facet normal 0 -1 0
    outer loop
      vertex 98 0 87
      vertex 123 0 123
      vertex 95 0 87
    endloop
  endfacet
  facet normal 0 -1 0
    outer loop
      vertex 102 0 87
      vertex 123 0 123
      vertex 98 0 87
    endloop
  endfacet
  facet normal 0 -1 0
    outer loop
      vertex 105 0 87
      vertex 123 0 123
      vertex 102 0 87
    endloop
  endfacet
  facet normal 0 -1 0
    outer loop
      vertex 109 0 87
      vertex 123 0 123
      vertex 105 0 87
    endloop
  endfacet
  facet normal 0 -1 0
    outer loop
      vertex 123 0 0
      vertex 109 0 87
      vertex 109 0 23.5
    endloop
  endfacet
  facet normal 0 -1 -0
    outer loop
      vertex 21 0 23.5
      vertex 18 0 20.5
      vertex 21 0 20.5
    endloop
  endfacet
  facet normal 0 -1 0
    outer loop
      vertex 25 0 23.5
      vertex 25 0 20.5
      vertex 28 0 23.5
    endloop
  endfacet
  facet normal 0 -1 0
    outer loop
      vertex 32 0 20.5
      vertex 32 0 23.5
      vertex 28 0 20.5
    endloop
  endfacet
  facet normal 0 -1 0
    outer loop
      vertex 35 0 23.5
      vertex 35 0 20.5
      vertex 39 0 23.5
    endloop
  endfacet
  facet normal 0 -1 0
    outer loop
      vertex 42 0 20.5
      vertex 42 0 23.5
      vertex 39 0 20.5
    endloop
  endfacet
  facet normal 0 -1 0
    outer loop
      vertex 46 0 23.5
      vertex 46 0 20.5
      vertex 49 0 23.5
    endloop
  endfacet
  facet normal 0 -1 0
    outer loop
      vertex 53 0 20.5
      vertex 53 0 23.5
      vertex 49 0 20.5
    endloop
  endfacet
  facet normal 0 -1 0
    outer loop
      vertex 56 0 23.5
      vertex 56 0 20.5
      vertex 60 0 23.5
    endloop
  endfacet
  facet normal 0 -1 0
    outer loop
      vertex 63 0 20.5
      vertex 63 0 23.5
      vertex 60 0 20.5
    endloop
  endfacet
  facet normal 0 -1 0
    outer loop
      vertex 67 0 23.5
      vertex 67 0 20.5
      vertex 70 0 23.5
    endloop
  endfacet
  facet normal 0 -1 0
    outer loop
      vertex 70 0 23.5
      vertex 70 0 20.5
      vertex 74 0 23.5
    endloop
  endfacet
  facet normal 0 -1 0
    outer loop
      vertex 77 0 20.5
      vertex 77 0 23.5
      vertex 74 0 20.5
    endloop
  endfacet
  facet normal 0 -1 0
    outer loop
      vertex 84 0 20.5
      vertex 84 0 23.5
      vertex 81 0 20.5
    endloop
  endfacet
  facet normal 0 -1 0
    outer loop
      vertex 84 0 23.5
      vertex 84 0 20.5
      vertex 88 0 23.5
    endloop
  endfacet
  facet normal 0 -1 0
    outer loop
      vertex 88 0 20.5
      vertex 88 0 23.5
      vertex 84 0 20.5
    endloop
  endfacet
  facet normal 0 -1 0
    outer loop
      vertex 88 0 23.5
      vertex 88 0 20.5
      vertex 91 0 23.5
    endloop
  endfacet
  facet normal 0 -1 0
    outer loop
      vertex 91 0 20.5
      vertex 91 0 23.5
      vertex 88 0 20.5
    endloop
  endfacet
  facet normal 0 -1 0
    outer loop
      vertex 91 0 23.5
      vertex 91 0 20.5
      vertex 95 0 23.5
    endloop
  endfacet
  facet normal 0 -1 0
    outer loop
      vertex 95 0 20.5
      vertex 95 0 23.5
      vertex 91 0 20.5
    endloop
  endfacet
  facet normal 0 -1 0
    outer loop
      vertex 95 0 23.5
      vertex 95 0 20.5
      vertex 98 0 23.5
    endloop
  endfacet
  facet normal 0 -1 0
    outer loop
      vertex 98 0 20.5
      vertex 98 0 23.5
      vertex 95 0 20.5
    endloop
  endfacet
  facet normal 0 -1 0
    outer loop
      vertex 98 0 23.5
      vertex 98 0 20.5
      vertex 102 0 23.5
    endloop
  endfacet
  facet normal 0 -1 0
    outer loop
      vertex 102 0 20.5
      vertex 102 0 23.5
      vertex 98 0 20.5
    endloop
  endfacet
  facet normal 0 -1 0
    outer loop
      vertex 102 0 23.5
      vertex 102 0 20.5
      vertex 105 0 23.5
    endloop
  endfacet
  facet normal 0 -1 0
    outer loop
      vertex 105 0 20.5
      vertex 105 0 23.5
      vertex 102 0 20.5
    endloop
  endfacet
  facet normal 0 -1 0
    outer loop
      vertex 105 0 23.5
      vertex 105 0 20.5
      vertex 109 0 23.5
    endloop
  endfacet
  facet normal 0 -1 0
    outer loop
      vertex 109 0 20.5
      vertex 109 0 23.5
      vertex 105 0 20.5
    endloop
  endfacet
  facet normal 0 -1 0
    outer loop
      vertex 123 0 0
      vertex 109 0 23.5
      vertex 109 0 20.5
    endloop
  endfacet
  facet normal 0 -1 0
    outer loop
      vertex 123 0 0
      vertex 109 0 20.5
      vertex 109 0 0
    endloop
  endfacet
  facet normal 0 -1 0
    outer loop
      vertex 109 0 87
      vertex 123 0 0
      vertex 123 0 123
    endloop
  endfacet
  facet normal 1 -0 0
    outer loop
      vertex 3 3 105
      vertex 3 230 0
      vertex 3 230 105
    endloop
  endfacet
  facet normal 1 0 0
    outer loop
      vertex 3 230 0
      vertex 3 3 105
      vertex 3 3 0
    endloop
  endfacet
  facet normal 0 0 -1
    outer loop
      vertex 3 3 105
      vertex 120 230 105
      vertex 120 3 105
    endloop
  endfacet
  facet normal -0 0 -1
    outer loop
      vertex 120 230 105
      vertex 3 3 105
      vertex 3 230 105
    endloop
  endfacet
  facet normal -1 0 0
    outer loop
      vertex 120 3 0
      vertex 120 230 105
      vertex 120 230 0
    endloop
  endfacet
  facet normal -1 -0 0
    outer loop
      vertex 120 230 105
      vertex 120 3 0
      vertex 120 3 105
    endloop
  endfacet
  facet normal 0 1 0
    outer loop
      vertex 105 3 20.5
      vertex 105 3 23.5
      vertex 109 3 23.5
    endloop
  endfacet
  facet normal 0 1 0
    outer loop
      vertex 105 3 23.5
      vertex 105 3 20.5
      vertex 102 3 23.5
    endloop
  endfacet
  facet normal 0 1 0
    outer loop
      vertex 102 3 23.5
      vertex 102 3 20.5
      vertex 98 3 23.5
    endloop
  endfacet
  facet normal 0 1 0
    outer loop
      vertex 98 3 20.5
      vertex 98 3 23.5
      vertex 102 3 20.5
    endloop
  endfacet
  facet normal 0 1 0
    outer loop
      vertex 95 3 20.5
      vertex 95 3 23.5
      vertex 98 3 20.5
    endloop
  endfacet
  facet normal 0 1 0
    outer loop
      vertex 95 3 23.5
      vertex 95 3 20.5
      vertex 91 3 23.5
    endloop
  endfacet
  facet normal 0 1 0
    outer loop
      vertex 91 3 23.5
      vertex 91 3 20.5
      vertex 88 3 23.5
    endloop
  endfacet
  facet normal 0 1 0
    outer loop
      vertex 88 3 20.5
      vertex 88 3 23.5
      vertex 91 3 20.5
    endloop
  endfacet
  facet normal 0 1 0
    outer loop
      vertex 84 3 20.5
      vertex 84 3 23.5
      vertex 88 3 20.5
    endloop
  endfacet
  facet normal 0 1 0
    outer loop
      vertex 84 3 23.5
      vertex 84 3 20.5
      vertex 81 3 23.5
    endloop
  endfacet
  facet normal 0 1 0
    outer loop
      vertex 81 3 23.5
      vertex 81 3 20.5
      vertex 77 3 23.5
    endloop
  endfacet
  facet normal 0 1 0
    outer loop
      vertex 77 3 20.5
      vertex 77 3 23.5
      vertex 81 3 20.5
    endloop
  endfacet
  facet normal 0 1 0
    outer loop
      vertex 74 3 20.5
      vertex 74 3 23.5
      vertex 77 3 20.5
    endloop
  endfacet
  facet normal 0 1 0
    outer loop
      vertex 74 3 23.5
      vertex 74 3 20.5
      vertex 70 3 23.5
    endloop
  endfacet
  facet normal 0 1 0
    outer loop
      vertex 70 3 23.5
      vertex 70 3 20.5
      vertex 67 3 23.5
    endloop
  endfacet
  facet normal 0 1 0
    outer loop
      vertex 67 3 20.5
      vertex 67 3 23.5
      vertex 70 3 20.5
    endloop
  endfacet
  facet normal 0 1 0
    outer loop
      vertex 63 3 20.5
      vertex 63 3 23.5
      vertex 67 3 20.5
    endloop
  endfacet
  facet normal 0 1 0
    outer loop
      vertex 63 3 23.5
      vertex 63 3 20.5
      vertex 60 3 23.5
    endloop
  endfacet
  facet normal 0 1 0
    outer loop
      vertex 60 3 23.5
      vertex 60 3 20.5
      vertex 56 3 23.5
    endloop
  endfacet
  facet normal 0 1 0
    outer loop
      vertex 56 3 20.5
      vertex 56 3 23.5
      vertex 60 3 20.5
    endloop
  endfacet
  facet normal 0 1 0
    outer loop
      vertex 53 3 20.5
      vertex 53 3 23.5
      vertex 56 3 20.5
    endloop
  endfacet
  facet normal 0 1 0
    outer loop
      vertex 49 3 20.5
      vertex 49 3 23.5
      vertex 53 3 20.5
    endloop
  endfacet
  facet normal 0 1 0
    outer loop
      vertex 49 3 23.5
      vertex 49 3 20.5
      vertex 46 3 23.5
    endloop
  endfacet
  facet normal 0 1 0
    outer loop
      vertex 46 3 23.5
      vertex 46 3 20.5
      vertex 42 3 23.5
    endloop
  endfacet
  facet normal 0 1 0
    outer loop
      vertex 42 3 20.5
      vertex 42 3 23.5
      vertex 46 3 20.5
    endloop
  endfacet
  facet normal 0 1 0
    outer loop
      vertex 42 3 23.5
      vertex 42 3 20.5
      vertex 39 3 23.5
    endloop
  endfacet
  facet normal 0 1 0
    outer loop
      vertex 105 3 20.5
      vertex 109 3 23.5
      vertex 109 3 20.5
    endloop
  endfacet
  facet normal 0 1 0
    outer loop
      vertex 102 3 23.5
      vertex 105 3 20.5
      vertex 102 3 20.5
    endloop
  endfacet
  facet normal 0 1 0
    outer loop
      vertex 98 3 23.5
      vertex 98 3 20.5
      vertex 95 3 23.5
    endloop
  endfacet
  facet normal 0 1 0
    outer loop
      vertex 91 3 20.5
      vertex 91 3 23.5
      vertex 95 3 20.5
    endloop
  endfacet
  facet normal 0 1 0
    outer loop
      vertex 88 3 23.5
      vertex 88 3 20.5
      vertex 84 3 23.5
    endloop
  endfacet
  facet normal 0 1 0
    outer loop
      vertex 81 3 20.5
      vertex 81 3 23.5
      vertex 84 3 20.5
    endloop
  endfacet
  facet normal 0 1 0
    outer loop
      vertex 77 3 23.5
      vertex 77 3 20.5
      vertex 74 3 23.5
    endloop
  endfacet
  facet normal 0 1 0
    outer loop
      vertex 70 3 20.5
      vertex 70 3 23.5
      vertex 74 3 20.5
    endloop
  endfacet
  facet normal 0 1 0
    outer loop
      vertex 67 3 23.5
      vertex 67 3 20.5
      vertex 63 3 23.5
    endloop
  endfacet
  facet normal 0 1 0
    outer loop
      vertex 60 3 20.5
      vertex 60 3 23.5
      vertex 63 3 20.5
    endloop
  endfacet
  facet normal 0 1 0
    outer loop
      vertex 56 3 23.5
      vertex 56 3 20.5
      vertex 53 3 23.5
    endloop
  endfacet
  facet normal 0 1 0
    outer loop
      vertex 53 3 23.5
      vertex 53 3 20.5
      vertex 49 3 23.5
    endloop
  endfacet
  facet normal 0 1 0
    outer loop
      vertex 46 3 20.5
      vertex 46 3 23.5
      vertex 49 3 20.5
    endloop
  endfacet
  facet normal 0 1 0
    outer loop
      vertex 39 3 20.5
      vertex 39 3 23.5
      vertex 42 3 20.5
    endloop
  endfacet
  facet normal 0 1 0
    outer loop
      vertex 39 3 23.5
      vertex 39 3 20.5
      vertex 35 3 23.5
    endloop
  endfacet
  facet normal 0 1 0
    outer loop
      vertex 35 3 20.5
      vertex 35 3 23.5
      vertex 39 3 20.5
    endloop
  endfacet
  facet normal 0 1 0
    outer loop
      vertex 35 3 23.5
      vertex 35 3 20.5
      vertex 32 3 23.5
    endloop
  endfacet
  facet normal 0 1 0
    outer loop
      vertex 32 3 20.5
      vertex 32 3 23.5
      vertex 35 3 20.5
    endloop
  endfacet
  facet normal 0 1 0
    outer loop
      vertex 32 3 23.5
      vertex 32 3 20.5
      vertex 28 3 23.5
    endloop
  endfacet
  facet normal 0 1 0
    outer loop
      vertex 28 3 20.5
      vertex 28 3 23.5
      vertex 32 3 20.5
    endloop
  endfacet
  facet normal 0 1 0
    outer loop
      vertex 28 3 23.5
      vertex 28 3 20.5
      vertex 25 3 23.5
    endloop
  endfacet
  facet normal 0 1 0
    outer loop
      vertex 25 3 20.5
      vertex 25 3 23.5
      vertex 28 3 20.5
    endloop
  endfacet
  facet normal 0 1 0
    outer loop
      vertex 25 3 23.5
      vertex 25 3 20.5
      vertex 21 3 23.5
    endloop
  endfacet
  facet normal 0 1 0
    outer loop
      vertex 21 3 20.5
      vertex 21 3 23.5
      vertex 25 3 20.5
    endloop
  endfacet
  facet normal 0 1 0
    outer loop
      vertex 21 3 23.5
      vertex 21 3 20.5
      vertex 18 3 23.5
    endloop
  endfacet
  facet normal 0 1 0
    outer loop
      vertex 18 3 20.5
      vertex 18 3 23.5
      vertex 21 3 20.5
    endloop
  endfacet
  facet normal 0 1 0
    outer loop
      vertex 18 3 23.5
      vertex 18 3 20.5
      vertex 14 3 23.5
    endloop
  endfacet
  facet normal 0 1 0
    outer loop
      vertex 14 3 23.5
      vertex 18 3 20.5
      vertex 14 3 20.5
    endloop
  endfacet
  facet normal 0 1 -0
    outer loop
      vertex 21 3 23.5
      vertex 18 3 87
      vertex 21 3 87
    endloop
  endfacet
  facet normal 0 1 0
    outer loop
      vertex 18 3 87
      vertex 21 3 23.5
      vertex 18 3 23.5
    endloop
  endfacet
  facet normal 0 1 -0
    outer loop
      vertex 28 3 23.5
      vertex 25 3 87
      vertex 28 3 87
    endloop
  endfacet
  facet normal 0 1 0
    outer loop
      vertex 25 3 87
      vertex 28 3 23.5
      vertex 25 3 23.5
    endloop
  endfacet
  facet normal 0 1 -0
    outer loop
      vertex 35 3 23.5
      vertex 32 3 87
      vertex 35 3 87
    endloop
  endfacet
  facet normal 0 1 0
    outer loop
      vertex 32 3 87
      vertex 35 3 23.5
      vertex 32 3 23.5
    endloop
  endfacet
  facet normal 0 1 -0
    outer loop
      vertex 42 3 23.5
      vertex 39 3 87
      vertex 42 3 87
    endloop
  endfacet
  facet normal 0 1 0
    outer loop
      vertex 39 3 87
      vertex 42 3 23.5
      vertex 39 3 23.5
    endloop
  endfacet
  facet normal 0 1 -0
    outer loop
      vertex 49 3 23.5
      vertex 46 3 87
      vertex 49 3 87
    endloop
  endfacet
  facet normal 0 1 0
    outer loop
      vertex 46 3 87
      vertex 49 3 23.5
      vertex 46 3 23.5
    endloop
  endfacet
  facet normal 0 1 -0
    outer loop
      vertex 56 3 23.5
      vertex 53 3 87
      vertex 56 3 87
    endloop
  endfacet
  facet normal 0 1 0
    outer loop
      vertex 53 3 87
      vertex 56 3 23.5
      vertex 53 3 23.5
    endloop
  endfacet
  facet normal 0 1 -0
    outer loop
      vertex 63 3 23.5
      vertex 60 3 87
      vertex 63 3 87
    endloop
  endfacet
  facet normal 0 1 0
    outer loop
      vertex 60 3 87
      vertex 63 3 23.5
      vertex 60 3 23.5
    endloop
  endfacet
  facet normal 0 1 -0
    outer loop
      vertex 70 3 23.5
      vertex 67 3 87
      vertex 70 3 87
    endloop
  endfacet
  facet normal 0 1 0
    outer loop
      vertex 67 3 87
      vertex 70 3 23.5
      vertex 67 3 23.5
    endloop
  endfacet
  facet normal 0 1 -0
    outer loop
      vertex 77 3 23.5
      vertex 74 3 87
      vertex 77 3 87
    endloop
  endfacet
  facet normal 0 1 0
    outer loop
      vertex 74 3 87
      vertex 77 3 23.5
      vertex 74 3 23.5
    endloop
  endfacet
  facet normal 0 1 -0
    outer loop
      vertex 84 3 23.5
      vertex 81 3 87
      vertex 84 3 87
    endloop
  endfacet
  facet normal 0 1 0
    outer loop
      vertex 81 3 87
      vertex 84 3 23.5
      vertex 81 3 23.5
    endloop
  endfacet
  facet normal 0 1 -0
    outer loop
      vertex 91 3 23.5
      vertex 88 3 87
      vertex 91 3 87
    endloop
  endfacet
  facet normal 0 1 0
    outer loop
      vertex 88 3 87
      vertex 91 3 23.5
      vertex 88 3 23.5
    endloop
  endfacet
  facet normal 0 1 -0
    outer loop
      vertex 98 3 23.5
      vertex 95 3 87
      vertex 98 3 87
    endloop
  endfacet
  facet normal 0 1 0
    outer loop
      vertex 95 3 87
      vertex 98 3 23.5
      vertex 95 3 23.5
    endloop
  endfacet
  facet normal 0 1 -0
    outer loop
      vertex 105 3 23.5
      vertex 102 3 87
      vertex 105 3 87
    endloop
  endfacet
  facet normal 0 1 0
    outer loop
      vertex 102 3 87
      vertex 105 3 23.5
      vertex 102 3 23.5
    endloop
  endfacet
  facet normal 0 1 0
    outer loop
      vertex 105 3 87
      vertex 120 3 105
      vertex 109 3 87
    endloop
  endfacet
  facet normal 0 1 0
    outer loop
      vertex 120 3 105
      vertex 109 3 23.5
      vertex 109 3 87
    endloop
  endfacet
  facet normal 0 1 -0
    outer loop
      vertex 120 3 0
      vertex 109 3 23.5
      vertex 120 3 105
    endloop
  endfacet
  facet normal 0 1 0
    outer loop
      vertex 109 3 23.5
      vertex 120 3 0
      vertex 109 3 20.5
    endloop
  endfacet
  facet normal 0 1 0
    outer loop
      vertex 109 3 20.5
      vertex 120 3 0
      vertex 109 3 0
    endloop
  endfacet
  facet normal 0 1 0
    outer loop
      vertex 102 3 87
      vertex 120 3 105
      vertex 105 3 87
    endloop
  endfacet
  facet normal 0 1 0
    outer loop
      vertex 98 3 87
      vertex 120 3 105
      vertex 102 3 87
    endloop
  endfacet
  facet normal 0 1 0
    outer loop
      vertex 95 3 87
      vertex 120 3 105
      vertex 98 3 87
    endloop
  endfacet
  facet normal 0 1 0
    outer loop
      vertex 91 3 87
      vertex 120 3 105
      vertex 95 3 87
    endloop
  endfacet
  facet normal 0 1 0
    outer loop
      vertex 88 3 87
      vertex 120 3 105
      vertex 91 3 87
    endloop
  endfacet
  facet normal 0 1 0
    outer loop
      vertex 84 3 87
      vertex 120 3 105
      vertex 88 3 87
    endloop
  endfacet
  facet normal 0 1 0
    outer loop
      vertex 81 3 87
      vertex 120 3 105
      vertex 84 3 87
    endloop
  endfacet
  facet normal 0 1 0
    outer loop
      vertex 77 3 87
      vertex 120 3 105
      vertex 81 3 87
    endloop
  endfacet
  facet normal 0 1 0
    outer loop
      vertex 74 3 87
      vertex 120 3 105
      vertex 77 3 87
    endloop
  endfacet
  facet normal 0 1 0
    outer loop
      vertex 70 3 87
      vertex 120 3 105
      vertex 74 3 87
    endloop
  endfacet
  facet normal 0 1 0
    outer loop
      vertex 67 3 87
      vertex 120 3 105
      vertex 70 3 87
    endloop
  endfacet
  facet normal 0 1 0
    outer loop
      vertex 63 3 87
      vertex 120 3 105
      vertex 67 3 87
    endloop
  endfacet
  facet normal 0 1 0
    outer loop
      vertex 120 3 105
      vertex 63 3 87
      vertex 3 3 105
    endloop
  endfacet
  facet normal 0 1 -0
    outer loop
      vertex 60 3 87
      vertex 3 3 105
      vertex 63 3 87
    endloop
  endfacet
  facet normal 0 1 -0
    outer loop
      vertex 56 3 87
      vertex 3 3 105
      vertex 60 3 87
    endloop
  endfacet
  facet normal 0 1 -0
    outer loop
      vertex 53 3 87
      vertex 3 3 105
      vertex 56 3 87
    endloop
  endfacet
  facet normal 0 1 -0
    outer loop
      vertex 49 3 87
      vertex 3 3 105
      vertex 53 3 87
    endloop
  endfacet
  facet normal 0 1 -0
    outer loop
      vertex 46 3 87
      vertex 3 3 105
      vertex 49 3 87
    endloop
  endfacet
  facet normal 0 1 -0
    outer loop
      vertex 42 3 87
      vertex 3 3 105
      vertex 46 3 87
    endloop
  endfacet
  facet normal 0 1 -0
    outer loop
      vertex 39 3 87
      vertex 3 3 105
      vertex 42 3 87
    endloop
  endfacet
  facet normal 0 1 -0
    outer loop
      vertex 35 3 87
      vertex 3 3 105
      vertex 39 3 87
    endloop
  endfacet
  facet normal 0 1 -0
    outer loop
      vertex 32 3 87
      vertex 3 3 105
      vertex 35 3 87
    endloop
  endfacet
  facet normal 0 1 -0
    outer loop
      vertex 28 3 87
      vertex 3 3 105
      vertex 32 3 87
    endloop
  endfacet
  facet normal 0 1 -0
    outer loop
      vertex 25 3 87
      vertex 3 3 105
      vertex 28 3 87
    endloop
  endfacet
  facet normal 0 1 -0
    outer loop
      vertex 21 3 87
      vertex 3 3 105
      vertex 25 3 87
    endloop
  endfacet
  facet normal 0 1 -0
    outer loop
      vertex 18 3 87
      vertex 3 3 105
      vertex 21 3 87
    endloop
  endfacet
  facet normal 0 1 -0
    outer loop
      vertex 14 3 87
      vertex 3 3 105
      vertex 18 3 87
    endloop
  endfacet
  facet normal 0 1 -0
    outer loop
      vertex 14 3 23.5
      vertex 3 3 105
      vertex 14 3 87
    endloop
  endfacet
  facet normal 0 1 0
    outer loop
      vertex 3 3 0
      vertex 14 3 23.5
      vertex 14 3 20.5
    endloop
  endfacet
  facet normal 0 1 0
    outer loop
      vertex 3 3 0
      vertex 14 3 20.5
      vertex 14 3 0
    endloop
  endfacet
  facet normal 0 1 0
    outer loop
      vertex 14 3 23.5
      vertex 3 3 0
      vertex 3 3 105
    endloop
  endfacet
  facet normal 0 1 -0
    outer loop
      vertex 21 3 0
      vertex 18 3 20.5
      vertex 21 3 20.5
    endloop
  endfacet
  facet normal 0 1 0
    outer loop
      vertex 18 3 20.5
      vertex 21 3 0
      vertex 18 3 0
    endloop
  endfacet
  facet normal 0 1 -0
    outer loop
      vertex 28 3 0
      vertex 25 3 20.5
      vertex 28 3 20.5
    endloop
  endfacet
  facet normal 0 1 0
    outer loop
      vertex 25 3 20.5
      vertex 28 3 0
      vertex 25 3 0
    endloop
  endfacet
  facet normal 0 1 -0
    outer loop
      vertex 35 3 0
      vertex 32 3 20.5
      vertex 35 3 20.5
    endloop
  endfacet
  facet normal 0 1 0
    outer loop
      vertex 32 3 20.5
      vertex 35 3 0
      vertex 32 3 0
    endloop
  endfacet
  facet normal 0 1 -0
    outer loop
      vertex 42 3 0
      vertex 39 3 20.5
      vertex 42 3 20.5
    endloop
  endfacet
  facet normal 0 1 0
    outer loop
      vertex 39 3 20.5
      vertex 42 3 0
      vertex 39 3 0
    endloop
  endfacet
  facet normal 0 1 -0
    outer loop
      vertex 49 3 0
      vertex 46 3 20.5
      vertex 49 3 20.5
    endloop
  endfacet
  facet normal 0 1 0
    outer loop
      vertex 46 3 20.5
      vertex 49 3 0
      vertex 46 3 0
    endloop
  endfacet
  facet normal 0 1 -0
    outer loop
      vertex 56 3 0
      vertex 53 3 20.5
      vertex 56 3 20.5
    endloop
  endfacet
  facet normal 0 1 0
    outer loop
      vertex 53 3 20.5
      vertex 56 3 0
      vertex 53 3 0
    endloop
  endfacet
  facet normal 0 1 -0
    outer loop
      vertex 63 3 0
      vertex 60 3 20.5
      vertex 63 3 20.5
    endloop
  endfacet
  facet normal 0 1 0
    outer loop
      vertex 60 3 20.5
      vertex 63 3 0
      vertex 60 3 0
    endloop
  endfacet
  facet normal 0 1 -0
    outer loop
      vertex 70 3 0
      vertex 67 3 20.5
      vertex 70 3 20.5
    endloop
  endfacet
  facet normal 0 1 0
    outer loop
      vertex 67 3 20.5
      vertex 70 3 0
      vertex 67 3 0
    endloop
  endfacet
  facet normal 0 1 -0
    outer loop
      vertex 77 3 0
      vertex 74 3 20.5
      vertex 77 3 20.5
    endloop
  endfacet
  facet normal 0 1 0
    outer loop
      vertex 74 3 20.5
      vertex 77 3 0
      vertex 74 3 0
    endloop
  endfacet
  facet normal 0 1 -0
    outer loop
      vertex 84 3 0
      vertex 81 3 20.5
      vertex 84 3 20.5
    endloop
  endfacet
  facet normal 0 1 0
    outer loop
      vertex 81 3 20.5
      vertex 84 3 0
      vertex 81 3 0
    endloop
  endfacet
  facet normal 0 1 -0
    outer loop
      vertex 91 3 0
      vertex 88 3 20.5
      vertex 91 3 20.5
    endloop
  endfacet
  facet normal 0 1 0
    outer loop
      vertex 88 3 20.5
      vertex 91 3 0
      vertex 88 3 0
    endloop
  endfacet
  facet normal 0 1 -0
    outer loop
      vertex 98 3 0
      vertex 95 3 20.5
      vertex 98 3 20.5
    endloop
  endfacet
  facet normal 0 1 0
    outer loop
      vertex 95 3 20.5
      vertex 98 3 0
      vertex 95 3 0
    endloop
  endfacet
  facet normal 0 1 -0
    outer loop
      vertex 105 3 0
      vertex 102 3 20.5
      vertex 105 3 20.5
    endloop
  endfacet
  facet normal 0 1 0
    outer loop
      vertex 102 3 20.5
      vertex 105 3 0
      vertex 102 3 0
    endloop
  endfacet
  facet normal 0 -1 0
    outer loop
      vertex 3 230 105
      vertex 41.5 230 70
      vertex 120 230 105
    endloop
  endfacet
  facet normal 0 -1 0
    outer loop
      vertex 3 230 105
      vertex 41.5 230 50
      vertex 41.5 230 70
    endloop
  endfacet
  facet normal 0 -1 -0
    outer loop
      vertex 41.5 230 50
      vertex 3 230 0
      vertex 81.5 230 50
    endloop
  endfacet
  facet normal 0 -1 0
    outer loop
      vertex 3 230 0
      vertex 41.5 230 50
      vertex 3 230 105
    endloop
  endfacet
  facet normal 0 -1 0
    outer loop
      vertex 81.5 230 70
      vertex 120 230 105
      vertex 41.5 230 70
    endloop
  endfacet
  facet normal 0 -1 0
    outer loop
      vertex 81.5 230 50
      vertex 120 230 105
      vertex 81.5 230 70
    endloop
  endfacet
  facet normal 0 -1 0
    outer loop
      vertex 81.5 230 50
      vertex 120 230 0
      vertex 120 230 105
    endloop
  endfacet
  facet normal 0 -1 0
    outer loop
      vertex 120 230 0
      vertex 81.5 230 50
      vertex 3 230 0
    endloop
  endfacet
  facet normal 0 0 1
    outer loop
      vertex 123 233 123
      vertex 116 226 123
      vertex 123 0 123
    endloop
  endfacet
  facet normal 0 0 1
    outer loop
      vertex 123 233 123
      vertex 7 226 123
      vertex 116 226 123
    endloop
  endfacet
  facet normal 0 0 1
    outer loop
      vertex 7 226 123
      vertex 0 233 123
      vertex 7 7 123
    endloop
  endfacet
  facet normal -0 0 1
    outer loop
      vertex 0 233 123
      vertex 7 226 123
      vertex 123 233 123
    endloop
  endfacet
  facet normal -0 0 1
    outer loop
      vertex 116 7 123
      vertex 123 0 123
      vertex 116 226 123
    endloop
  endfacet
  facet normal -0 0 1
    outer loop
      vertex 7 7 123
      vertex 123 0 123
      vertex 116 7 123
    endloop
  endfacet
  facet normal 0 0 1
    outer loop
      vertex 7 7 123
      vertex 0 0 123
      vertex 123 0 123
    endloop
  endfacet
  facet normal 0 0 1
    outer loop
      vertex 0 0 123
      vertex 7 7 123
      vertex 0 233 123
    endloop
  endfacet
  facet normal -1 0 0
    outer loop
      vertex 7 7 123
      vertex 7 226 135
      vertex 7 226 123
    endloop
  endfacet
  facet normal -1 -0 0
    outer loop
      vertex 7 226 135
      vertex 7 7 123
      vertex 7 7 135
    endloop
  endfacet
  facet normal 0 0 1
    outer loop
      vertex 116 226 135
      vertex 109 219 135
      vertex 116 7 135
    endloop
  endfacet
  facet normal 0 0 1
    outer loop
      vertex 116 226 135
      vertex 14 219 135
      vertex 109 219 135
    endloop
  endfacet
  facet normal 0 0 1
    outer loop
      vertex 14 219 135
      vertex 7 226 135
      vertex 14 14 135
    endloop
  endfacet
  facet normal -0 0 1
    outer loop
      vertex 7 226 135
      vertex 14 219 135
      vertex 116 226 135
    endloop
  endfacet
  facet normal -0 0 1
    outer loop
      vertex 109 14 135
      vertex 116 7 135
      vertex 109 219 135
    endloop
  endfacet
  facet normal -0 0 1
    outer loop
      vertex 14 14 135
      vertex 116 7 135
      vertex 109 14 135
    endloop
  endfacet
  facet normal 0 0 1
    outer loop
      vertex 14 14 135
      vertex 7 7 135
      vertex 116 7 135
    endloop
  endfacet
  facet normal 0 0 1
    outer loop
      vertex 7 7 135
      vertex 14 14 135
      vertex 7 226 135
    endloop
  endfacet
  facet normal 1 -0 0
    outer loop
      vertex 116 7 135
      vertex 116 226 123
      vertex 116 226 135
    endloop
  endfacet
  facet normal 1 0 0
    outer loop
      vertex 116 226 123
      vertex 116 7 135
      vertex 116 7 123
    endloop
  endfacet
  facet normal 0 1 -0
    outer loop
      vertex 116 226 123
      vertex 7 226 135
      vertex 116 226 135
    endloop
  endfacet
  facet normal 0 1 0
    outer loop
      vertex 7 226 135
      vertex 116 226 123
      vertex 7 226 123
    endloop
  endfacet
  facet normal 0 -1 0
    outer loop
      vertex 7 7 123
      vertex 116 7 135
      vertex 7 7 135
    endloop
  endfacet
  facet normal 0 -1 -0
    outer loop
      vertex 116 7 135
      vertex 7 7 123
      vertex 116 7 123
    endloop
  endfacet
  facet normal -1 0 0
    outer loop
      vertex 14 14 135
      vertex 14 219 147
      vertex 14 219 135
    endloop
  endfacet
  facet normal -1 -0 0
    outer loop
      vertex 14 219 147
      vertex 14 14 135
      vertex 14 14 147
    endloop
  endfacet
  facet normal 0 0 1
    outer loop
      vertex 109 219 147
      vertex 67.4247 116.5 147
      vertex 109 14 147
    endloop
  endfacet
  facet normal -0 0 1
    outer loop
      vertex 65.5 120.5 147
      vertex 67.4247 116.5 147
      vertex 109 219 147
    endloop
  endfacet
  facet normal 0 0 1
    outer loop
      vertex 65.5 120.5 147
      vertex 66.5 116.5 147
      vertex 66.5 117.4 147
    endloop
  endfacet
  facet normal 0 0 1
    outer loop
      vertex 65.5 112.5 147
      vertex 66.5 116.5 147
      vertex 65.5 120.5 147
    endloop
  endfacet
  facet normal 0 0 1
    outer loop
      vertex 67.4247 116.5 147
      vertex 65.5 120.5 147
      vertex 66.5 117.4 147
    endloop
  endfacet
  facet normal 0 0 1
    outer loop
      vertex 109 219 147
      vertex 57.5 120.5 147
      vertex 65.5 120.5 147
    endloop
  endfacet
  facet normal 0 0 1
    outer loop
      vertex 57.5 120.5 147
      vertex 14 219 147
      vertex 57.5 112.5 147
    endloop
  endfacet
  facet normal -0 0 1
    outer loop
      vertex 14 219 147
      vertex 57.5 120.5 147
      vertex 109 219 147
    endloop
  endfacet
  facet normal 0 0 1
    outer loop
      vertex 65.5 112.5 147
      vertex 67.4247 116.5 147
      vertex 66.5 115.6 147
    endloop
  endfacet
  facet normal 0 0 1
    outer loop
      vertex 66.5 116.5 147
      vertex 65.5 112.5 147
      vertex 66.5 115.6 147
    endloop
  endfacet
  facet normal 0 0 1
    outer loop
      vertex 67.4247 116.5 147
      vertex 65.5 112.5 147
      vertex 109 14 147
    endloop
  endfacet
  facet normal -0 0 1
    outer loop
      vertex 57.5 112.5 147
      vertex 109 14 147
      vertex 65.5 112.5 147
    endloop
  endfacet
  facet normal 0 0 1
    outer loop
      vertex 57.5 112.5 147
      vertex 14 14 147
      vertex 109 14 147
    endloop
  endfacet
  facet normal 0 0 1
    outer loop
      vertex 14 14 147
      vertex 57.5 112.5 147
      vertex 14 219 147
    endloop
  endfacet
  facet normal 1 -0 0
    outer loop
      vertex 109 14 147
      vertex 109 219 135
      vertex 109 219 147
    endloop
  endfacet
  facet normal 1 0 0
    outer loop
      vertex 109 219 135
      vertex 109 14 147
      vertex 109 14 135
    endloop
  endfacet
  facet normal 0 -1 0
    outer loop
      vertex 14 14 135
      vertex 109 14 147
      vertex 14 14 147
    endloop
  endfacet
  facet normal 0 -1 -0
    outer loop
      vertex 109 14 147
      vertex 14 14 135
      vertex 109 14 135
    endloop
  endfacet
  facet normal 0 1 -0
    outer loop
      vertex 109 219 135
      vertex 14 219 147
      vertex 109 219 147
    endloop
  endfacet
  facet normal 0 1 0
    outer loop
      vertex 14 219 147
      vertex 109 219 135
      vertex 14 219 135
    endloop
  endfacet
  facet normal -1 0 0
    outer loop
      vertex 57.5 112.5 147
      vertex 57.5 120.5 150
      vertex 57.5 120.5 147
    endloop
  endfacet
  facet normal -1 -0 0
    outer loop
      vertex 57.5 120.5 150
      vertex 57.5 112.5 147
      vertex 57.5 112.5 150
    endloop
  endfacet
  facet normal 0 0 1
    outer loop
      vertex 65.5 120.5 150
      vertex 62.6809 117.681 150
      vertex 65.5 112.5 150
    endloop
  endfacet
  facet normal 0 0 1
    outer loop
      vertex 65.5 120.5 150
      vertex 60.3191 117.681 150
      vertex 62.6809 117.681 150
    endloop
  endfacet
  facet normal 0 0 1
    outer loop
      vertex 60.3191 117.681 150
      vertex 57.5 120.5 150
      vertex 60.3191 115.319 150
    endloop
  endfacet
  facet normal -0 0 1
    outer loop
      vertex 57.5 120.5 150
      vertex 60.3191 117.681 150
      vertex 65.5 120.5 150
    endloop
  endfacet
  facet normal -0 0 1
    outer loop
      vertex 62.6809 115.319 150
      vertex 65.5 112.5 150
      vertex 62.6809 117.681 150
    endloop
  endfacet
  facet normal -0 0 1
    outer loop
      vertex 60.3191 115.319 150
      vertex 65.5 112.5 150
      vertex 62.6809 115.319 150
    endloop
  endfacet
  facet normal 0 0 1
    outer loop
      vertex 60.3191 115.319 150
      vertex 57.5 112.5 150
      vertex 65.5 112.5 150
    endloop
  endfacet
  facet normal 0 0 1
    outer loop
      vertex 57.5 112.5 150
      vertex 60.3191 115.319 150
      vertex 57.5 120.5 150
    endloop
  endfacet
  facet normal 1 -0 0
    outer loop
      vertex 65.5 112.5 150
      vertex 65.5 120.5 147
      vertex 65.5 120.5 150
    endloop
  endfacet
  facet normal 1 0 0
    outer loop
      vertex 65.5 120.5 147
      vertex 65.5 112.5 150
      vertex 65.5 112.5 147
    endloop
  endfacet
  facet normal 0 -1 0
    outer loop
      vertex 57.5 112.5 147
      vertex 65.5 112.5 150
      vertex 57.5 112.5 150
    endloop
  endfacet
  facet normal 0 -1 -0
    outer loop
      vertex 65.5 112.5 150
      vertex 57.5 112.5 147
      vertex 65.5 112.5 147
    endloop
  endfacet
  facet normal 0 1 -0
    outer loop
      vertex 65.5 120.5 147
      vertex 57.5 120.5 150
      vertex 65.5 120.5 150
    endloop
  endfacet
  facet normal 0 1 0
    outer loop
      vertex 57.5 120.5 150
      vertex 65.5 120.5 147
      vertex 57.5 120.5 147
    endloop
  endfacet
  facet normal -0.999531 0 0.0306228
    outer loop
      vertex 60.8002 117.2 165.7
      vertex 61.1464 116.146 177
      vertex 61.1464 116.854 177
    endloop
  endfacet
  facet normal -0.999531 0 0.0306228
    outer loop
      vertex 61.1464 116.146 177
      vertex 60.8002 117.2 165.7
      vertex 60.8002 115.8 165.7
    endloop
  endfacet
  facet normal -0.999531 0 0.030629
    outer loop
      vertex 60.3191 117.681 150
      vertex 60.7573 115.8 164.3
      vertex 60.7573 117.2 164.3
    endloop
  endfacet
  facet normal -0.99953 -0.000294474 0.0306389
    outer loop
      vertex 60.7573 115.8 164.3
      vertex 60.3191 115.319 150
      vertex 60.8 115.8 165.693
    endloop
  endfacet
  facet normal -0.999531 0 0.030629
    outer loop
      vertex 60.3191 115.319 150
      vertex 60.7573 115.8 164.3
      vertex 60.3191 117.681 150
    endloop
  endfacet
  facet normal -0.99953 0.000294474 0.0306389
    outer loop
      vertex 60.3191 117.681 150
      vertex 60.7573 117.2 164.3
      vertex 60.8 117.2 165.693
    endloop
  endfacet
  facet normal -0 0 1
    outer loop
      vertex 61.1464 116.854 177
      vertex 61.8536 116.146 177
      vertex 61.8536 116.854 177
    endloop
  endfacet
  facet normal 0 0 1
    outer loop
      vertex 61.8536 116.146 177
      vertex 61.1464 116.854 177
      vertex 61.1464 116.146 177
    endloop
  endfacet
  facet normal 0 0.999532 0.0306051
    outer loop
      vertex 62.1998 117.2 165.7
      vertex 61.1464 116.854 177
      vertex 61.8536 116.854 177
    endloop
  endfacet
  facet normal 0 0.999532 0.0306051
    outer loop
      vertex 61.1464 116.854 177
      vertex 62.1998 117.2 165.7
      vertex 60.8002 117.2 165.7
    endloop
  endfacet
  facet normal 0 0.999531 0.030615
    outer loop
      vertex 62.2 117.243 164.3
      vertex 62.6809 117.681 150
      vertex 60.8 117.243 164.3
    endloop
  endfacet
  facet normal 0.00711099 0.999499 0.0308532
    outer loop
      vertex 62.6809 117.681 150
      vertex 62.2 117.243 164.3
      vertex 62.2 117.2 165.693
    endloop
  endfacet
  facet normal -0.00711099 0.999499 0.0308532
    outer loop
      vertex 60.8 117.243 164.3
      vertex 60.3191 117.681 150
      vertex 60.8 117.2 165.693
    endloop
  endfacet
  facet normal -0 0.999531 0.030615
    outer loop
      vertex 60.3191 117.681 150
      vertex 60.8 117.243 164.3
      vertex 62.6809 117.681 150
    endloop
  endfacet
  facet normal 0 -0.999532 0.0306051
    outer loop
      vertex 60.8002 115.8 165.7
      vertex 61.8536 116.146 177
      vertex 61.1464 116.146 177
    endloop
  endfacet
  facet normal 0 -0.999532 0.0306051
    outer loop
      vertex 61.8536 116.146 177
      vertex 60.8002 115.8 165.7
      vertex 62.1998 115.8 165.7
    endloop
  endfacet
  facet normal 0 -0.999531 0.030615
    outer loop
      vertex 60.8 115.757 164.3
      vertex 60.3191 115.319 150
      vertex 62.2 115.757 164.3
    endloop
  endfacet
  facet normal -0.00711099 -0.999499 0.0308532
    outer loop
      vertex 60.3191 115.319 150
      vertex 60.8 115.757 164.3
      vertex 60.8 115.8 165.693
    endloop
  endfacet
  facet normal 0.00711099 -0.999499 0.0308532
    outer loop
      vertex 62.2 115.757 164.3
      vertex 62.6809 115.319 150
      vertex 62.2 115.8 165.693
    endloop
  endfacet
  facet normal 0 -0.999531 0.030615
    outer loop
      vertex 62.6809 115.319 150
      vertex 62.2 115.757 164.3
      vertex 60.3191 115.319 150
    endloop
  endfacet
  facet normal 0.999531 -0 0.0306228
    outer loop
      vertex 61.8536 116.146 177
      vertex 62.1998 117.2 165.7
      vertex 61.8536 116.854 177
    endloop
  endfacet
  facet normal 0.999531 0 0.0306228
    outer loop
      vertex 62.1998 117.2 165.7
      vertex 61.8536 116.146 177
      vertex 62.1998 115.8 165.7
    endloop
  endfacet
  facet normal 0.99953 0.000294474 0.0306389
    outer loop
      vertex 62.2427 117.2 164.3
      vertex 62.6809 117.681 150
      vertex 62.2 117.2 165.693
    endloop
  endfacet
  facet normal 0.999531 -0 0.030629
    outer loop
      vertex 62.2427 115.8 164.3
      vertex 62.6809 117.681 150
      vertex 62.2427 117.2 164.3
    endloop
  endfacet
  facet normal 0.999531 0 0.030629
    outer loop
      vertex 62.6809 117.681 150
      vertex 62.2427 115.8 164.3
      vertex 62.6809 115.319 150
    endloop
  endfacet
  facet normal 0.99953 -0.000294474 0.0306389
    outer loop
      vertex 62.2 115.8 165.693
      vertex 62.6809 115.319 150
      vertex 62.2427 115.8 164.3
    endloop
  endfacet
  facet normal -1 0 0
    outer loop
      vertex 54.5 115.8 164.3
      vertex 54.5 117.2 165.7
      vertex 54.5 117.2 164.3
    endloop
  endfacet
  facet normal -1 -0 0
    outer loop
      vertex 54.5 117.2 165.7
      vertex 54.5 115.8 164.3
      vertex 54.5 115.8 165.7
    endloop
  endfacet
  facet normal -0 0 1
    outer loop
      vertex 54.5 117.2 165.7
      vertex 60.8 115.8 165.7
      vertex 60.8 117.2 165.7
    endloop
  endfacet
  facet normal 0 0 1
    outer loop
      vertex 60.8 115.8 165.7
      vertex 54.5 117.2 165.7
      vertex 54.5 115.8 165.7
    endloop
  endfacet
  facet normal 0 0 1
    outer loop
      vertex 60.8 117.2 165.7
      vertex 62.2 117.2 165.7
      vertex 62.2 123.5 165.7
    endloop
  endfacet
  facet normal 0 0 1
    outer loop
      vertex 62.2 117.2 165.7
      vertex 62.1998 117.2 165.7
      vertex 62.2 115.8 165.7
    endloop
  endfacet
  facet normal 0 0 1
    outer loop
      vertex 62.1998 115.8 165.7
      vertex 62.2 115.8 165.7
      vertex 62.1998 117.2 165.7
    endloop
  endfacet
  facet normal 0 0 0
    outer loop
      vertex 62.2 117.2 165.7
      vertex 60.8 117.2 165.7
      vertex 62.1998 117.2 165.7
    endloop
  endfacet
  facet normal 0 0 0
    outer loop
      vertex 62.1998 117.2 165.7
      vertex 60.8 117.2 165.7
      vertex 60.8002 117.2 165.7
    endloop
  endfacet
  facet normal 0 0 1
    outer loop
      vertex 60.8 117.2 165.7
      vertex 62.2 123.5 165.7
      vertex 60.8 123.5 165.7
    endloop
  endfacet
  facet normal -0 0 1
    outer loop
      vertex 62.2 117.2 165.7
      vertex 68.5 115.8 165.7
      vertex 68.5 117.2 165.7
    endloop
  endfacet
  facet normal 0 0 1
    outer loop
      vertex 68.5 115.8 165.7
      vertex 62.2 117.2 165.7
      vertex 62.2 115.8 165.7
    endloop
  endfacet
  facet normal 0 0 0
    outer loop
      vertex 60.8 115.8 165.7
      vertex 62.2 115.8 165.7
      vertex 62.1998 115.8 165.7
    endloop
  endfacet
  facet normal 0 0 0
    outer loop
      vertex 60.8 115.8 165.7
      vertex 62.1998 115.8 165.7
      vertex 60.8002 115.8 165.7
    endloop
  endfacet
  facet normal 0 0 1
    outer loop
      vertex 60.8002 117.2 165.7
      vertex 60.8 117.2 165.7
      vertex 60.8002 115.8 165.7
    endloop
  endfacet
  facet normal 0 0 1
    outer loop
      vertex 60.8 115.8 165.7
      vertex 60.8002 115.8 165.7
      vertex 60.8 117.2 165.7
    endloop
  endfacet
  facet normal 0 0 1
    outer loop
      vertex 62.2 115.8 165.7
      vertex 60.8 115.8 165.7
      vertex 62.2 109.5 165.7
    endloop
  endfacet
  facet normal 0 0 1
    outer loop
      vertex 62.2 109.5 165.7
      vertex 60.8 115.8 165.7
      vertex 60.8 109.5 165.7
    endloop
  endfacet
  facet normal 1 -0 0
    outer loop
      vertex 68.5 115.8 165.7
      vertex 68.5 117.2 164.3
      vertex 68.5 117.2 165.7
    endloop
  endfacet
  facet normal 1 0 0
    outer loop
      vertex 68.5 117.2 164.3
      vertex 68.5 115.8 165.7
      vertex 68.5 115.8 164.3
    endloop
  endfacet
  facet normal 0 1 -0
    outer loop
      vertex 60.8 117.2 165.693
      vertex 54.5 117.2 165.7
      vertex 60.8 117.2 165.7
    endloop
  endfacet
  facet normal 0 1 -0
    outer loop
      vertex 60.7573 117.2 164.3
      vertex 54.5 117.2 165.7
      vertex 60.8 117.2 165.693
    endloop
  endfacet
  facet normal 0 1 0
    outer loop
      vertex 54.5 117.2 165.7
      vertex 60.7573 117.2 164.3
      vertex 54.5 117.2 164.3
    endloop
  endfacet
  facet normal 0 1 0
    outer loop
      vertex 68.5 117.2 165.7
      vertex 62.2 117.2 165.693
      vertex 62.2 117.2 165.7
    endloop
  endfacet
  facet normal 0 1 0
    outer loop
      vertex 62.2427 117.2 164.3
      vertex 68.5 117.2 165.7
      vertex 68.5 117.2 164.3
    endloop
  endfacet
  facet normal 0 1 0
    outer loop
      vertex 68.5 117.2 165.7
      vertex 62.2427 117.2 164.3
      vertex 62.2 117.2 165.693
    endloop
  endfacet
  facet normal 0 0 -1
    outer loop
      vertex 54.5 115.8 164.3
      vertex 60.7573 117.2 164.3
      vertex 60.7573 115.8 164.3
    endloop
  endfacet
  facet normal -0 0 -1
    outer loop
      vertex 60.7573 117.2 164.3
      vertex 54.5 115.8 164.3
      vertex 54.5 117.2 164.3
    endloop
  endfacet
  facet normal 0 0 -1
    outer loop
      vertex 62.2427 115.8 164.3
      vertex 68.5 117.2 164.3
      vertex 68.5 115.8 164.3
    endloop
  endfacet
  facet normal -0 0 -1
    outer loop
      vertex 68.5 117.2 164.3
      vertex 62.2427 115.8 164.3
      vertex 62.2427 117.2 164.3
    endloop
  endfacet
  facet normal 0 -1 0
    outer loop
      vertex 54.5 115.8 165.7
      vertex 60.8 115.8 165.693
      vertex 60.8 115.8 165.7
    endloop
  endfacet
  facet normal 0 -1 0
    outer loop
      vertex 60.7573 115.8 164.3
      vertex 54.5 115.8 165.7
      vertex 54.5 115.8 164.3
    endloop
  endfacet
  facet normal 0 -1 0
    outer loop
      vertex 54.5 115.8 165.7
      vertex 60.7573 115.8 164.3
      vertex 60.8 115.8 165.693
    endloop
  endfacet
  facet normal 0 -1 0
    outer loop
      vertex 62.2 115.8 165.693
      vertex 68.5 115.8 165.7
      vertex 62.2 115.8 165.7
    endloop
  endfacet
  facet normal 0 -1 0
    outer loop
      vertex 62.2427 115.8 164.3
      vertex 68.5 115.8 165.7
      vertex 62.2 115.8 165.693
    endloop
  endfacet
  facet normal 0 -1 -0
    outer loop
      vertex 68.5 115.8 165.7
      vertex 62.2427 115.8 164.3
      vertex 68.5 115.8 164.3
    endloop
  endfacet
  facet normal -1 0 0
    outer loop
      vertex 60.8 109.5 165.7
      vertex 60.8 115.8 165.693
      vertex 60.8 115.757 164.3
    endloop
  endfacet
  facet normal -1 0 0
    outer loop
      vertex 60.8 109.5 165.7
      vertex 60.8 115.757 164.3
      vertex 60.8 109.5 164.3
    endloop
  endfacet
  facet normal -1 0 0
    outer loop
      vertex 60.8 115.8 165.693
      vertex 60.8 109.5 165.7
      vertex 60.8 115.8 165.7
    endloop
  endfacet
  facet normal -1 0 0
    outer loop
      vertex 60.8 117.243 164.3
      vertex 60.8 123.5 165.7
      vertex 60.8 123.5 164.3
    endloop
  endfacet
  facet normal -1 0 0
    outer loop
      vertex 60.8 117.2 165.693
      vertex 60.8 123.5 165.7
      vertex 60.8 117.243 164.3
    endloop
  endfacet
  facet normal -1 -0 0
    outer loop
      vertex 60.8 123.5 165.7
      vertex 60.8 117.2 165.693
      vertex 60.8 117.2 165.7
    endloop
  endfacet
  facet normal 1 -0 0
    outer loop
      vertex 62.2 109.5 165.7
      vertex 62.2 115.8 165.693
      vertex 62.2 115.8 165.7
    endloop
  endfacet
  facet normal 1 0 0
    outer loop
      vertex 62.2 115.8 165.693
      vertex 62.2 109.5 165.7
      vertex 62.2 115.757 164.3
    endloop
  endfacet
  facet normal 1 0 0
    outer loop
      vertex 62.2 115.757 164.3
      vertex 62.2 109.5 165.7
      vertex 62.2 109.5 164.3
    endloop
  endfacet
  facet normal 1 0 0
    outer loop
      vertex 62.2 123.5 165.7
      vertex 62.2 117.243 164.3
      vertex 62.2 123.5 164.3
    endloop
  endfacet
  facet normal 1 0 0
    outer loop
      vertex 62.2 117.2 165.693
      vertex 62.2 123.5 165.7
      vertex 62.2 117.2 165.7
    endloop
  endfacet
  facet normal 1 0 0
    outer loop
      vertex 62.2 123.5 165.7
      vertex 62.2 117.2 165.693
      vertex 62.2 117.243 164.3
    endloop
  endfacet
  facet normal 0 1 -0
    outer loop
      vertex 62.2 123.5 164.3
      vertex 60.8 123.5 165.7
      vertex 62.2 123.5 165.7
    endloop
  endfacet
  facet normal 0 1 0
    outer loop
      vertex 60.8 123.5 165.7
      vertex 62.2 123.5 164.3
      vertex 60.8 123.5 164.3
    endloop
  endfacet
  facet normal 0 0 -1
    outer loop
      vertex 60.8 109.5 164.3
      vertex 62.2 115.757 164.3
      vertex 62.2 109.5 164.3
    endloop
  endfacet
  facet normal -0 0 -1
    outer loop
      vertex 62.2 115.757 164.3
      vertex 60.8 109.5 164.3
      vertex 60.8 115.757 164.3
    endloop
  endfacet
  facet normal 0 0 -1
    outer loop
      vertex 60.8 117.243 164.3
      vertex 62.2 123.5 164.3
      vertex 62.2 117.243 164.3
    endloop
  endfacet
  facet normal -0 0 -1
    outer loop
      vertex 62.2 123.5 164.3
      vertex 60.8 117.243 164.3
      vertex 60.8 123.5 164.3
    endloop
  endfacet
  facet normal 0 -1 0
    outer loop
      vertex 60.8 109.5 164.3
      vertex 62.2 109.5 165.7
      vertex 60.8 109.5 165.7
    endloop
  endfacet
  facet normal 0 -1 -0
    outer loop
      vertex 62.2 109.5 165.7
      vertex 60.8 109.5 164.3
      vertex 62.2 109.5 164.3
    endloop
  endfacet
  facet normal 0.687902 0.706781 -0.165083
    outer loop
      vertex 67.4247 116.5 147
      vertex 66.5 117.4 147
      vertex 71.1024 116.5 162.325
    endloop
  endfacet
  facet normal -0.670888 0.706746 0.224543
    outer loop
      vertex 66.5 117.4 147
      vertex 65.6349 116.5 147.248
      vertex 70.9102 116.7 162.38
    endloop
  endfacet
  facet normal 0.275118 0 0.961411
    outer loop
      vertex 70.9102 116.7 162.38
      vertex 70.9102 116.3 162.38
      vertex 71.1024 116.5 162.325
    endloop
  endfacet
  facet normal -0.275572 0 -0.96128
    outer loop
      vertex 66.5 116.5 147
      vertex 65.6349 116.5 147.248
      vertex 66.5 117.4 147
    endloop
  endfacet
  facet normal -0.670859 -0.706777 0.224532
    outer loop
      vertex 70.7179 116.5 162.435
      vertex 65.6349 116.5 147.248
      vertex 70.9102 116.3 162.38
    endloop
  endfacet
  facet normal 0.688048 0.706626 -0.165136
    outer loop
      vertex 71.1024 116.5 162.325
      vertex 66.5 117.4 147
      vertex 70.9102 116.7 162.38
    endloop
  endfacet
  facet normal -0.275572 0 -0.96128
    outer loop
      vertex 66.5 115.6 147
      vertex 65.6349 116.5 147.248
      vertex 66.5 116.5 147
    endloop
  endfacet
  facet normal 0.687902 -0.706781 -0.165083
    outer loop
      vertex 71.1024 116.5 162.325
      vertex 66.5 115.6 147
      vertex 67.4247 116.5 147
    endloop
  endfacet
  facet normal -0.670888 -0.706746 0.224543
    outer loop
      vertex 70.9102 116.3 162.38
      vertex 65.6349 116.5 147.248
      vertex 66.5 115.6 147
    endloop
  endfacet
  facet normal 0.688048 -0.706626 -0.165136
    outer loop
      vertex 70.9102 116.3 162.38
      vertex 66.5 115.6 147
      vertex 71.1024 116.5 162.325
    endloop
  endfacet
  facet normal 0.274985 0 0.961448
    outer loop
      vertex 70.9102 116.7 162.38
      vertex 70.7179 116.5 162.435
      vertex 70.9102 116.3 162.38
    endloop
  endfacet
  facet normal -0.670859 0.706777 0.224532
    outer loop
      vertex 70.9102 116.7 162.38
      vertex 65.6349 116.5 147.248
      vertex 70.7179 116.5 162.435
    endloop
  endfacet
  facet normal 1 -0 0
    outer loop
      vertex 14 0 20.5
      vertex 14 3 0
      vertex 14 3 20.5
    endloop
  endfacet
  facet normal 1 0 0
    outer loop
      vertex 14 3 0
      vertex 14 0 20.5
      vertex 14 0 0
    endloop
  endfacet
  facet normal 1 -0 0
    outer loop
      vertex 14 0 87
      vertex 14 3 23.5
      vertex 14 3 87
    endloop
  endfacet
  facet normal 1 0 0
    outer loop
      vertex 14 3 23.5
      vertex 14 0 87
      vertex 14 0 23.5
    endloop
  endfacet
  facet normal 0 0 -1
    outer loop
      vertex 14 0 87
      vertex 18 3 87
      vertex 18 0 87
    endloop
  endfacet
  facet normal -0 0 -1
    outer loop
      vertex 18 3 87
      vertex 14 0 87
      vertex 14 3 87
    endloop
  endfacet
  facet normal -1 0 0
    outer loop
      vertex 18 0 23.5
      vertex 18 3 87
      vertex 18 3 23.5
    endloop
  endfacet
  facet normal -1 -0 0
    outer loop
      vertex 18 3 87
      vertex 18 0 23.5
      vertex 18 0 87
    endloop
  endfacet
  facet normal -1 0 0
    outer loop
      vertex 18 0 0
      vertex 18 3 20.5
      vertex 18 3 0
    endloop
  endfacet
  facet normal -1 -0 0
    outer loop
      vertex 18 3 20.5
      vertex 18 0 0
      vertex 18 0 20.5
    endloop
  endfacet
  facet normal 1 -0 0
    outer loop
      vertex 21 0 87
      vertex 21 3 23.5
      vertex 21 3 87
    endloop
  endfacet
  facet normal 1 0 0
    outer loop
      vertex 21 3 23.5
      vertex 21 0 87
      vertex 21 0 23.5
    endloop
  endfacet
  facet normal 1 -0 0
    outer loop
      vertex 21 0 20.5
      vertex 21 3 0
      vertex 21 3 20.5
    endloop
  endfacet
  facet normal 1 0 0
    outer loop
      vertex 21 3 0
      vertex 21 0 20.5
      vertex 21 0 0
    endloop
  endfacet
  facet normal 0 0 -1
    outer loop
      vertex 21 0 87
      vertex 25 3 87
      vertex 25 0 87
    endloop
  endfacet
  facet normal -0 0 -1
    outer loop
      vertex 25 3 87
      vertex 21 0 87
      vertex 21 3 87
    endloop
  endfacet
  facet normal -1 0 0
    outer loop
      vertex 25 0 23.5
      vertex 25 3 87
      vertex 25 3 23.5
    endloop
  endfacet
  facet normal -1 -0 0
    outer loop
      vertex 25 3 87
      vertex 25 0 23.5
      vertex 25 0 87
    endloop
  endfacet
  facet normal -1 0 0
    outer loop
      vertex 25 0 0
      vertex 25 3 20.5
      vertex 25 3 0
    endloop
  endfacet
  facet normal -1 -0 0
    outer loop
      vertex 25 3 20.5
      vertex 25 0 0
      vertex 25 0 20.5
    endloop
  endfacet
  facet normal 1 -0 0
    outer loop
      vertex 28 0 87
      vertex 28 3 23.5
      vertex 28 3 87
    endloop
  endfacet
  facet normal 1 0 0
    outer loop
      vertex 28 3 23.5
      vertex 28 0 87
      vertex 28 0 23.5
    endloop
  endfacet
  facet normal 1 -0 0
    outer loop
      vertex 28 0 20.5
      vertex 28 3 0
      vertex 28 3 20.5
    endloop
  endfacet
  facet normal 1 0 0
    outer loop
      vertex 28 3 0
      vertex 28 0 20.5
      vertex 28 0 0
    endloop
  endfacet
  facet normal 0 0 -1
    outer loop
      vertex 28 0 87
      vertex 32 3 87
      vertex 32 0 87
    endloop
  endfacet
  facet normal -0 0 -1
    outer loop
      vertex 32 3 87
      vertex 28 0 87
      vertex 28 3 87
    endloop
  endfacet
  facet normal -1 0 0
    outer loop
      vertex 32 0 23.5
      vertex 32 3 87
      vertex 32 3 23.5
    endloop
  endfacet
  facet normal -1 -0 0
    outer loop
      vertex 32 3 87
      vertex 32 0 23.5
      vertex 32 0 87
    endloop
  endfacet
  facet normal -1 0 0
    outer loop
      vertex 32 0 0
      vertex 32 3 20.5
      vertex 32 3 0
    endloop
  endfacet
  facet normal -1 -0 0
    outer loop
      vertex 32 3 20.5
      vertex 32 0 0
      vertex 32 0 20.5
    endloop
  endfacet
  facet normal 1 -0 0
    outer loop
      vertex 35 0 87
      vertex 35 3 23.5
      vertex 35 3 87
    endloop
  endfacet
  facet normal 1 0 0
    outer loop
      vertex 35 3 23.5
      vertex 35 0 87
      vertex 35 0 23.5
    endloop
  endfacet
  facet normal 1 -0 0
    outer loop
      vertex 35 0 20.5
      vertex 35 3 0
      vertex 35 3 20.5
    endloop
  endfacet
  facet normal 1 0 0
    outer loop
      vertex 35 3 0
      vertex 35 0 20.5
      vertex 35 0 0
    endloop
  endfacet
  facet normal 0 0 -1
    outer loop
      vertex 35 0 87
      vertex 39 3 87
      vertex 39 0 87
    endloop
  endfacet
  facet normal -0 0 -1
    outer loop
      vertex 39 3 87
      vertex 35 0 87
      vertex 35 3 87
    endloop
  endfacet
  facet normal -1 0 0
    outer loop
      vertex 39 0 23.5
      vertex 39 3 87
      vertex 39 3 23.5
    endloop
  endfacet
  facet normal -1 -0 0
    outer loop
      vertex 39 3 87
      vertex 39 0 23.5
      vertex 39 0 87
    endloop
  endfacet
  facet normal -1 0 0
    outer loop
      vertex 39 0 0
      vertex 39 3 20.5
      vertex 39 3 0
    endloop
  endfacet
  facet normal -1 -0 0
    outer loop
      vertex 39 3 20.5
      vertex 39 0 0
      vertex 39 0 20.5
    endloop
  endfacet
  facet normal 1 -0 0
    outer loop
      vertex 42 0 87
      vertex 42 3 23.5
      vertex 42 3 87
    endloop
  endfacet
  facet normal 1 0 0
    outer loop
      vertex 42 3 23.5
      vertex 42 0 87
      vertex 42 0 23.5
    endloop
  endfacet
  facet normal 1 -0 0
    outer loop
      vertex 42 0 20.5
      vertex 42 3 0
      vertex 42 3 20.5
    endloop
  endfacet
  facet normal 1 0 0
    outer loop
      vertex 42 3 0
      vertex 42 0 20.5
      vertex 42 0 0
    endloop
  endfacet
  facet normal 0 0 -1
    outer loop
      vertex 42 0 87
      vertex 46 3 87
      vertex 46 0 87
    endloop
  endfacet
  facet normal -0 0 -1
    outer loop
      vertex 46 3 87
      vertex 42 0 87
      vertex 42 3 87
    endloop
  endfacet
  facet normal -1 0 0
    outer loop
      vertex 46 0 23.5
      vertex 46 3 87
      vertex 46 3 23.5
    endloop
  endfacet
  facet normal -1 -0 0
    outer loop
      vertex 46 3 87
      vertex 46 0 23.5
      vertex 46 0 87
    endloop
  endfacet
  facet normal -1 0 0
    outer loop
      vertex 46 0 0
      vertex 46 3 20.5
      vertex 46 3 0
    endloop
  endfacet
  facet normal -1 -0 0
    outer loop
      vertex 46 3 20.5
      vertex 46 0 0
      vertex 46 0 20.5
    endloop
  endfacet
  facet normal 1 -0 0
    outer loop
      vertex 49 0 87
      vertex 49 3 23.5
      vertex 49 3 87
    endloop
  endfacet
  facet normal 1 0 0
    outer loop
      vertex 49 3 23.5
      vertex 49 0 87
      vertex 49 0 23.5
    endloop
  endfacet
  facet normal 1 -0 0
    outer loop
      vertex 49 0 20.5
      vertex 49 3 0
      vertex 49 3 20.5
    endloop
  endfacet
  facet normal 1 0 0
    outer loop
      vertex 49 3 0
      vertex 49 0 20.5
      vertex 49 0 0
    endloop
  endfacet
  facet normal 0 0 -1
    outer loop
      vertex 49 0 87
      vertex 53 3 87
      vertex 53 0 87
    endloop
  endfacet
  facet normal -0 0 -1
    outer loop
      vertex 53 3 87
      vertex 49 0 87
      vertex 49 3 87
    endloop
  endfacet
  facet normal -1 0 0
    outer loop
      vertex 53 0 23.5
      vertex 53 3 87
      vertex 53 3 23.5
    endloop
  endfacet
  facet normal -1 -0 0
    outer loop
      vertex 53 3 87
      vertex 53 0 23.5
      vertex 53 0 87
    endloop
  endfacet
  facet normal -1 0 0
    outer loop
      vertex 53 0 0
      vertex 53 3 20.5
      vertex 53 3 0
    endloop
  endfacet
  facet normal -1 -0 0
    outer loop
      vertex 53 3 20.5
      vertex 53 0 0
      vertex 53 0 20.5
    endloop
  endfacet
  facet normal 1 -0 0
    outer loop
      vertex 56 0 87
      vertex 56 3 23.5
      vertex 56 3 87
    endloop
  endfacet
  facet normal 1 0 0
    outer loop
      vertex 56 3 23.5
      vertex 56 0 87
      vertex 56 0 23.5
    endloop
  endfacet
  facet normal 1 -0 0
    outer loop
      vertex 56 0 20.5
      vertex 56 3 0
      vertex 56 3 20.5
    endloop
  endfacet
  facet normal 1 0 0
    outer loop
      vertex 56 3 0
      vertex 56 0 20.5
      vertex 56 0 0
    endloop
  endfacet
  facet normal 0 0 -1
    outer loop
      vertex 56 0 87
      vertex 60 3 87
      vertex 60 0 87
    endloop
  endfacet
  facet normal -0 0 -1
    outer loop
      vertex 60 3 87
      vertex 56 0 87
      vertex 56 3 87
    endloop
  endfacet
  facet normal -1 0 0
    outer loop
      vertex 60 0 23.5
      vertex 60 3 87
      vertex 60 3 23.5
    endloop
  endfacet
  facet normal -1 -0 0
    outer loop
      vertex 60 3 87
      vertex 60 0 23.5
      vertex 60 0 87
    endloop
  endfacet
  facet normal -1 0 0
    outer loop
      vertex 60 0 0
      vertex 60 3 20.5
      vertex 60 3 0
    endloop
  endfacet
  facet normal -1 -0 0
    outer loop
      vertex 60 3 20.5
      vertex 60 0 0
      vertex 60 0 20.5
    endloop
  endfacet
  facet normal 1 -0 0
    outer loop
      vertex 63 0 87
      vertex 63 3 23.5
      vertex 63 3 87
    endloop
  endfacet
  facet normal 1 0 0
    outer loop
      vertex 63 3 23.5
      vertex 63 0 87
      vertex 63 0 23.5
    endloop
  endfacet
  facet normal 1 -0 0
    outer loop
      vertex 63 0 20.5
      vertex 63 3 0
      vertex 63 3 20.5
    endloop
  endfacet
  facet normal 1 0 0
    outer loop
      vertex 63 3 0
      vertex 63 0 20.5
      vertex 63 0 0
    endloop
  endfacet
  facet normal 0 0 -1
    outer loop
      vertex 63 0 87
      vertex 67 3 87
      vertex 67 0 87
    endloop
  endfacet
  facet normal -0 0 -1
    outer loop
      vertex 67 3 87
      vertex 63 0 87
      vertex 63 3 87
    endloop
  endfacet
  facet normal -1 0 0
    outer loop
      vertex 67 0 23.5
      vertex 67 3 87
      vertex 67 3 23.5
    endloop
  endfacet
  facet normal -1 -0 0
    outer loop
      vertex 67 3 87
      vertex 67 0 23.5
      vertex 67 0 87
    endloop
  endfacet
  facet normal -1 0 0
    outer loop
      vertex 67 0 0
      vertex 67 3 20.5
      vertex 67 3 0
    endloop
  endfacet
  facet normal -1 -0 0
    outer loop
      vertex 67 3 20.5
      vertex 67 0 0
      vertex 67 0 20.5
    endloop
  endfacet
  facet normal 1 -0 0
    outer loop
      vertex 70 0 87
      vertex 70 3 23.5
      vertex 70 3 87
    endloop
  endfacet
  facet normal 1 0 0
    outer loop
      vertex 70 3 23.5
      vertex 70 0 87
      vertex 70 0 23.5
    endloop
  endfacet
  facet normal 1 -0 0
    outer loop
      vertex 70 0 20.5
      vertex 70 3 0
      vertex 70 3 20.5
    endloop
  endfacet
  facet normal 1 0 0
    outer loop
      vertex 70 3 0
      vertex 70 0 20.5
      vertex 70 0 0
    endloop
  endfacet
  facet normal 0 0 -1
    outer loop
      vertex 70 0 87
      vertex 74 3 87
      vertex 74 0 87
    endloop
  endfacet
  facet normal -0 0 -1
    outer loop
      vertex 74 3 87
      vertex 70 0 87
      vertex 70 3 87
    endloop
  endfacet
  facet normal -1 0 0
    outer loop
      vertex 74 0 23.5
      vertex 74 3 87
      vertex 74 3 23.5
    endloop
  endfacet
  facet normal -1 -0 0
    outer loop
      vertex 74 3 87
      vertex 74 0 23.5
      vertex 74 0 87
    endloop
  endfacet
  facet normal -1 0 0
    outer loop
      vertex 74 0 0
      vertex 74 3 20.5
      vertex 74 3 0
    endloop
  endfacet
  facet normal -1 -0 0
    outer loop
      vertex 74 3 20.5
      vertex 74 0 0
      vertex 74 0 20.5
    endloop
  endfacet
  facet normal 1 -0 0
    outer loop
      vertex 77 0 87
      vertex 77 3 23.5
      vertex 77 3 87
    endloop
  endfacet
  facet normal 1 0 0
    outer loop
      vertex 77 3 23.5
      vertex 77 0 87
      vertex 77 0 23.5
    endloop
  endfacet
  facet normal 1 -0 0
    outer loop
      vertex 77 0 20.5
      vertex 77 3 0
      vertex 77 3 20.5
    endloop
  endfacet
  facet normal 1 0 0
    outer loop
      vertex 77 3 0
      vertex 77 0 20.5
      vertex 77 0 0
    endloop
  endfacet
  facet normal 0 0 -1
    outer loop
      vertex 77 0 87
      vertex 81 3 87
      vertex 81 0 87
    endloop
  endfacet
  facet normal -0 0 -1
    outer loop
      vertex 81 3 87
      vertex 77 0 87
      vertex 77 3 87
    endloop
  endfacet
  facet normal -1 0 0
    outer loop
      vertex 81 0 23.5
      vertex 81 3 87
      vertex 81 3 23.5
    endloop
  endfacet
  facet normal -1 -0 0
    outer loop
      vertex 81 3 87
      vertex 81 0 23.5
      vertex 81 0 87
    endloop
  endfacet
  facet normal -1 0 0
    outer loop
      vertex 81 0 0
      vertex 81 3 20.5
      vertex 81 3 0
    endloop
  endfacet
  facet normal -1 -0 0
    outer loop
      vertex 81 3 20.5
      vertex 81 0 0
      vertex 81 0 20.5
    endloop
  endfacet
  facet normal 1 -0 0
    outer loop
      vertex 84 0 87
      vertex 84 3 23.5
      vertex 84 3 87
    endloop
  endfacet
  facet normal 1 0 0
    outer loop
      vertex 84 3 23.5
      vertex 84 0 87
      vertex 84 0 23.5
    endloop
  endfacet
  facet normal 1 -0 0
    outer loop
      vertex 84 0 20.5
      vertex 84 3 0
      vertex 84 3 20.5
    endloop
  endfacet
  facet normal 1 0 0
    outer loop
      vertex 84 3 0
      vertex 84 0 20.5
      vertex 84 0 0
    endloop
  endfacet
  facet normal 0 0 -1
    outer loop
      vertex 84 0 87
      vertex 88 3 87
      vertex 88 0 87
    endloop
  endfacet
  facet normal -0 0 -1
    outer loop
      vertex 88 3 87
      vertex 84 0 87
      vertex 84 3 87
    endloop
  endfacet
  facet normal -1 0 0
    outer loop
      vertex 88 0 23.5
      vertex 88 3 87
      vertex 88 3 23.5
    endloop
  endfacet
  facet normal -1 -0 0
    outer loop
      vertex 88 3 87
      vertex 88 0 23.5
      vertex 88 0 87
    endloop
  endfacet
  facet normal -1 0 0
    outer loop
      vertex 88 0 0
      vertex 88 3 20.5
      vertex 88 3 0
    endloop
  endfacet
  facet normal -1 -0 0
    outer loop
      vertex 88 3 20.5
      vertex 88 0 0
      vertex 88 0 20.5
    endloop
  endfacet
  facet normal 1 -0 0
    outer loop
      vertex 91 0 87
      vertex 91 3 23.5
      vertex 91 3 87
    endloop
  endfacet
  facet normal 1 0 0
    outer loop
      vertex 91 3 23.5
      vertex 91 0 87
      vertex 91 0 23.5
    endloop
  endfacet
  facet normal 1 -0 0
    outer loop
      vertex 91 0 20.5
      vertex 91 3 0
      vertex 91 3 20.5
    endloop
  endfacet
  facet normal 1 0 0
    outer loop
      vertex 91 3 0
      vertex 91 0 20.5
      vertex 91 0 0
    endloop
  endfacet
  facet normal 0 0 -1
    outer loop
      vertex 91 0 87
      vertex 95 3 87
      vertex 95 0 87
    endloop
  endfacet
  facet normal -0 0 -1
    outer loop
      vertex 95 3 87
      vertex 91 0 87
      vertex 91 3 87
    endloop
  endfacet
  facet normal -1 0 0
    outer loop
      vertex 95 0 23.5
      vertex 95 3 87
      vertex 95 3 23.5
    endloop
  endfacet
  facet normal -1 -0 0
    outer loop
      vertex 95 3 87
      vertex 95 0 23.5
      vertex 95 0 87
    endloop
  endfacet
  facet normal -1 0 0
    outer loop
      vertex 95 0 0
      vertex 95 3 20.5
      vertex 95 3 0
    endloop
  endfacet
  facet normal -1 -0 0
    outer loop
      vertex 95 3 20.5
      vertex 95 0 0
      vertex 95 0 20.5
    endloop
  endfacet
  facet normal 1 -0 0
    outer loop
      vertex 98 0 87
      vertex 98 3 23.5
      vertex 98 3 87
    endloop
  endfacet
  facet normal 1 0 0
    outer loop
      vertex 98 3 23.5
      vertex 98 0 87
      vertex 98 0 23.5
    endloop
  endfacet
  facet normal 1 -0 0
    outer loop
      vertex 98 0 20.5
      vertex 98 3 0
      vertex 98 3 20.5
    endloop
  endfacet
  facet normal 1 0 0
    outer loop
      vertex 98 3 0
      vertex 98 0 20.5
      vertex 98 0 0
    endloop
  endfacet
  facet normal 0 0 -1
    outer loop
      vertex 98 0 87
      vertex 102 3 87
      vertex 102 0 87
    endloop
  endfacet
  facet normal -0 0 -1
    outer loop
      vertex 102 3 87
      vertex 98 0 87
      vertex 98 3 87
    endloop
  endfacet
  facet normal -1 0 0
    outer loop
      vertex 102 0 23.5
      vertex 102 3 87
      vertex 102 3 23.5
    endloop
  endfacet
  facet normal -1 -0 0
    outer loop
      vertex 102 3 87
      vertex 102 0 23.5
      vertex 102 0 87
    endloop
  endfacet
  facet normal -1 0 0
    outer loop
      vertex 102 0 0
      vertex 102 3 20.5
      vertex 102 3 0
    endloop
  endfacet
  facet normal -1 -0 0
    outer loop
      vertex 102 3 20.5
      vertex 102 0 0
      vertex 102 0 20.5
    endloop
  endfacet
  facet normal 1 -0 0
    outer loop
      vertex 105 0 87
      vertex 105 3 23.5
      vertex 105 3 87
    endloop
  endfacet
  facet normal 1 0 0
    outer loop
      vertex 105 3 23.5
      vertex 105 0 87
      vertex 105 0 23.5
    endloop
  endfacet
  facet normal 1 -0 0
    outer loop
      vertex 105 0 20.5
      vertex 105 3 0
      vertex 105 3 20.5
    endloop
  endfacet
  facet normal 1 0 0
    outer loop
      vertex 105 3 0
      vertex 105 0 20.5
      vertex 105 0 0
    endloop
  endfacet
  facet normal 0 0 -1
    outer loop
      vertex 105 0 87
      vertex 109 3 87
      vertex 109 0 87
    endloop
  endfacet
  facet normal -0 0 -1
    outer loop
      vertex 109 3 87
      vertex 105 0 87
      vertex 105 3 87
    endloop
  endfacet
  facet normal -1 0 0
    outer loop
      vertex 109 0 23.5
      vertex 109 3 87
      vertex 109 3 23.5
    endloop
  endfacet
  facet normal -1 -0 0
    outer loop
      vertex 109 3 87
      vertex 109 0 23.5
      vertex 109 0 87
    endloop
  endfacet
  facet normal -1 0 0
    outer loop
      vertex 109 0 0
      vertex 109 3 20.5
      vertex 109 3 0
    endloop
  endfacet
  facet normal -1 -0 0
    outer loop
      vertex 109 3 20.5
      vertex 109 0 0
      vertex 109 0 20.5
    endloop
  endfacet
  facet normal 1 -0 0
    outer loop
      vertex 41.5 230 70
      vertex 41.5 233 50
      vertex 41.5 233 70
    endloop
  endfacet
  facet normal 1 0 0
    outer loop
      vertex 41.5 233 50
      vertex 41.5 230 70
      vertex 41.5 230 50
    endloop
  endfacet
  facet normal 0 0 -1
    outer loop
      vertex 41.5 230 70
      vertex 81.5 233 70
      vertex 81.5 230 70
    endloop
  endfacet
  facet normal -0 0 -1
    outer loop
      vertex 81.5 233 70
      vertex 41.5 230 70
      vertex 41.5 233 70
    endloop
  endfacet
  facet normal -1 0 0
    outer loop
      vertex 81.5 230 50
      vertex 81.5 233 70
      vertex 81.5 233 50
    endloop
  endfacet
  facet normal -1 -0 0
    outer loop
      vertex 81.5 233 70
      vertex 81.5 230 50
      vertex 81.5 230 70
    endloop
  endfacet
  facet normal -0 0 1
    outer loop
      vertex 41.5 233 50
      vertex 81.5 230 50
      vertex 81.5 233 50
    endloop
  endfacet
  facet normal 0 0 1
    outer loop
      vertex 81.5 230 50
      vertex 41.5 233 50
      vertex 41.5 230 50
    endloop
  endfacet
  facet normal -0 0 1
    outer loop
      vertex 105 3 23.5
      vertex 109 0 23.5
      vertex 109 3 23.5
    endloop
  endfacet
  facet normal 0 0 1
    outer loop
      vertex 109 0 23.5
      vertex 105 3 23.5
      vertex 105 0 23.5
    endloop
  endfacet
  facet normal -0 0 1
    outer loop
      vertex 14 3 23.5
      vertex 18 0 23.5
      vertex 18 3 23.5
    endloop
  endfacet
  facet normal 0 0 1
    outer loop
      vertex 18 0 23.5
      vertex 14 3 23.5
      vertex 14 0 23.5
    endloop
  endfacet
  facet normal -0 0 1
    outer loop
      vertex 21 3 23.5
      vertex 25 0 23.5
      vertex 25 3 23.5
    endloop
  endfacet
  facet normal 0 0 1
    outer loop
      vertex 25 0 23.5
      vertex 21 3 23.5
      vertex 21 0 23.5
    endloop
  endfacet
  facet normal -0 0 1
    outer loop
      vertex 28 3 23.5
      vertex 32 0 23.5
      vertex 32 3 23.5
    endloop
  endfacet
  facet normal 0 0 1
    outer loop
      vertex 32 0 23.5
      vertex 28 3 23.5
      vertex 28 0 23.5
    endloop
  endfacet
  facet normal -0 0 1
    outer loop
      vertex 35 3 23.5
      vertex 39 0 23.5
      vertex 39 3 23.5
    endloop
  endfacet
  facet normal 0 0 1
    outer loop
      vertex 39 0 23.5
      vertex 35 3 23.5
      vertex 35 0 23.5
    endloop
  endfacet
  facet normal -0 0 1
    outer loop
      vertex 42 3 23.5
      vertex 46 0 23.5
      vertex 46 3 23.5
    endloop
  endfacet
  facet normal 0 0 1
    outer loop
      vertex 46 0 23.5
      vertex 42 3 23.5
      vertex 42 0 23.5
    endloop
  endfacet
  facet normal -0 0 1
    outer loop
      vertex 49 3 23.5
      vertex 53 0 23.5
      vertex 53 3 23.5
    endloop
  endfacet
  facet normal 0 0 1
    outer loop
      vertex 53 0 23.5
      vertex 49 3 23.5
      vertex 49 0 23.5
    endloop
  endfacet
  facet normal -0 0 1
    outer loop
      vertex 56 3 23.5
      vertex 60 0 23.5
      vertex 60 3 23.5
    endloop
  endfacet
  facet normal 0 0 1
    outer loop
      vertex 60 0 23.5
      vertex 56 3 23.5
      vertex 56 0 23.5
    endloop
  endfacet
  facet normal -0 0 1
    outer loop
      vertex 63 3 23.5
      vertex 67 0 23.5
      vertex 67 3 23.5
    endloop
  endfacet
  facet normal 0 0 1
    outer loop
      vertex 67 0 23.5
      vertex 63 3 23.5
      vertex 63 0 23.5
    endloop
  endfacet
  facet normal -0 0 1
    outer loop
      vertex 70 3 23.5
      vertex 74 0 23.5
      vertex 74 3 23.5
    endloop
  endfacet
  facet normal 0 0 1
    outer loop
      vertex 74 0 23.5
      vertex 70 3 23.5
      vertex 70 0 23.5
    endloop
  endfacet
  facet normal -0 0 1
    outer loop
      vertex 77 3 23.5
      vertex 81 0 23.5
      vertex 81 3 23.5
    endloop
  endfacet
  facet normal 0 0 1
    outer loop
      vertex 81 0 23.5
      vertex 77 3 23.5
      vertex 77 0 23.5
    endloop
  endfacet
  facet normal -0 0 1
    outer loop
      vertex 84 3 23.5
      vertex 88 0 23.5
      vertex 88 3 23.5
    endloop
  endfacet
  facet normal 0 0 1
    outer loop
      vertex 88 0 23.5
      vertex 84 3 23.5
      vertex 84 0 23.5
    endloop
  endfacet
  facet normal -0 0 1
    outer loop
      vertex 91 3 23.5
      vertex 95 0 23.5
      vertex 95 3 23.5
    endloop
  endfacet
  facet normal 0 0 1
    outer loop
      vertex 95 0 23.5
      vertex 91 3 23.5
      vertex 91 0 23.5
    endloop
  endfacet
  facet normal -0 0 1
    outer loop
      vertex 98 3 23.5
      vertex 102 0 23.5
      vertex 102 3 23.5
    endloop
  endfacet
  facet normal 0 0 1
    outer loop
      vertex 102 0 23.5
      vertex 98 3 23.5
      vertex 98 0 23.5
    endloop
  endfacet
  facet normal 0 0 -1
    outer loop
      vertex 14 0 20.5
      vertex 18 3 20.5
      vertex 18 0 20.5
    endloop
  endfacet
  facet normal -0 0 -1
    outer loop
      vertex 18 3 20.5
      vertex 14 0 20.5
      vertex 14 3 20.5
    endloop
  endfacet
  facet normal 0 0 -1
    outer loop
      vertex 105 0 20.5
      vertex 109 3 20.5
      vertex 109 0 20.5
    endloop
  endfacet
  facet normal -0 0 -1
    outer loop
      vertex 109 3 20.5
      vertex 105 0 20.5
      vertex 105 3 20.5
    endloop
  endfacet
  facet normal 0 0 -1
    outer loop
      vertex 21 0 20.5
      vertex 25 3 20.5
      vertex 25 0 20.5
    endloop
  endfacet
  facet normal -0 0 -1
    outer loop
      vertex 25 3 20.5
      vertex 21 0 20.5
      vertex 21 3 20.5
    endloop
  endfacet
  facet normal 0 0 -1
    outer loop
      vertex 28 0 20.5
      vertex 32 3 20.5
      vertex 32 0 20.5
    endloop
  endfacet
  facet normal -0 0 -1
    outer loop
      vertex 32 3 20.5
      vertex 28 0 20.5
      vertex 28 3 20.5
    endloop
  endfacet
  facet normal 0 0 -1
    outer loop
      vertex 35 0 20.5
      vertex 39 3 20.5
      vertex 39 0 20.5
    endloop
  endfacet
  facet normal -0 0 -1
    outer loop
      vertex 39 3 20.5
      vertex 35 0 20.5
      vertex 35 3 20.5
    endloop
  endfacet
  facet normal 0 0 -1
    outer loop
      vertex 42 0 20.5
      vertex 46 3 20.5
      vertex 46 0 20.5
    endloop
  endfacet
  facet normal -0 0 -1
    outer loop
      vertex 46 3 20.5
      vertex 42 0 20.5
      vertex 42 3 20.5
    endloop
  endfacet
  facet normal 0 0 -1
    outer loop
      vertex 49 0 20.5
      vertex 53 3 20.5
      vertex 53 0 20.5
    endloop
  endfacet
  facet normal -0 0 -1
    outer loop
      vertex 53 3 20.5
      vertex 49 0 20.5
      vertex 49 3 20.5
    endloop
  endfacet
  facet normal 0 0 -1
    outer loop
      vertex 56 0 20.5
      vertex 60 3 20.5
      vertex 60 0 20.5
    endloop
  endfacet
  facet normal -0 0 -1
    outer loop
      vertex 60 3 20.5
      vertex 56 0 20.5
      vertex 56 3 20.5
    endloop
  endfacet
  facet normal 0 0 -1
    outer loop
      vertex 63 0 20.5
      vertex 67 3 20.5
      vertex 67 0 20.5
    endloop
  endfacet
  facet normal -0 0 -1
    outer loop
      vertex 67 3 20.5
      vertex 63 0 20.5
      vertex 63 3 20.5
    endloop
  endfacet
  facet normal 0 0 -1
    outer loop
      vertex 70 0 20.5
      vertex 74 3 20.5
      vertex 74 0 20.5
    endloop
  endfacet
  facet normal -0 0 -1
    outer loop
      vertex 74 3 20.5
      vertex 70 0 20.5
      vertex 70 3 20.5
    endloop
  endfacet
  facet normal 0 0 -1
    outer loop
      vertex 77 0 20.5
      vertex 81 3 20.5
      vertex 81 0 20.5
    endloop
  endfacet
  facet normal -0 0 -1
    outer loop
      vertex 81 3 20.5
      vertex 77 0 20.5
      vertex 77 3 20.5
    endloop
  endfacet
  facet normal 0 0 -1
    outer loop
      vertex 84 0 20.5
      vertex 88 3 20.5
      vertex 88 0 20.5
    endloop
  endfacet
  facet normal -0 0 -1
    outer loop
      vertex 88 3 20.5
      vertex 84 0 20.5
      vertex 84 3 20.5
    endloop
  endfacet
  facet normal 0 0 -1
    outer loop
      vertex 91 0 20.5
      vertex 95 3 20.5
      vertex 95 0 20.5
    endloop
  endfacet
  facet normal -0 0 -1
    outer loop
      vertex 95 3 20.5
      vertex 91 0 20.5
      vertex 91 3 20.5
    endloop
  endfacet
  facet normal 0 0 -1
    outer loop
      vertex 98 0 20.5
      vertex 102 3 20.5
      vertex 102 0 20.5
    endloop
  endfacet
  facet normal -0 0 -1
    outer loop
      vertex 102 3 20.5
      vertex 98 0 20.5
      vertex 98 3 20.5
    endloop
  endfacet
  facet normal 0 0 -1
    outer loop
      vertex 14 0 0
      vertex 3 3 0
      vertex 14 3 0
    endloop
  endfacet
  facet normal -0 0 -1
    outer loop
      vertex 3 3 0
      vertex 0 0 0
      vertex 3 230 0
    endloop
  endfacet
  facet normal 0 0 -1
    outer loop
      vertex 0 0 0
      vertex 3 3 0
      vertex 14 0 0
    endloop
  endfacet
  facet normal 0 0 -1
    outer loop
      vertex 123 0 0
      vertex 120 3 0
      vertex 123 233 0
    endloop
  endfacet
  facet normal 0 0 -1
    outer loop
      vertex 109 0 0
      vertex 120 3 0
      vertex 123 0 0
    endloop
  endfacet
  facet normal -0 0 -1
    outer loop
      vertex 120 3 0
      vertex 109 0 0
      vertex 109 3 0
    endloop
  endfacet
  facet normal 0 0 -1
    outer loop
      vertex 120 230 0
      vertex 123 233 0
      vertex 120 3 0
    endloop
  endfacet
  facet normal 0 0 -1
    outer loop
      vertex 3 230 0
      vertex 123 233 0
      vertex 120 230 0
    endloop
  endfacet
  facet normal 0 0 -1
    outer loop
      vertex 3 230 0
      vertex 0 233 0
      vertex 123 233 0
    endloop
  endfacet
  facet normal 0 0 -1
    outer loop
      vertex 0 233 0
      vertex 3 230 0
      vertex 0 0 0
    endloop
  endfacet
  facet normal 0 0 -1
    outer loop
      vertex 18 0 0
      vertex 21 3 0
      vertex 21 0 0
    endloop
  endfacet
  facet normal -0 0 -1
    outer loop
      vertex 21 3 0
      vertex 18 0 0
      vertex 18 3 0
    endloop
  endfacet
  facet normal 0 0 -1
    outer loop
      vertex 25 0 0
      vertex 28 3 0
      vertex 28 0 0
    endloop
  endfacet
  facet normal -0 0 -1
    outer loop
      vertex 28 3 0
      vertex 25 0 0
      vertex 25 3 0
    endloop
  endfacet
  facet normal 0 0 -1
    outer loop
      vertex 32 0 0
      vertex 35 3 0
      vertex 35 0 0
    endloop
  endfacet
  facet normal -0 0 -1
    outer loop
      vertex 35 3 0
      vertex 32 0 0
      vertex 32 3 0
    endloop
  endfacet
  facet normal 0 0 -1
    outer loop
      vertex 39 0 0
      vertex 42 3 0
      vertex 42 0 0
    endloop
  endfacet
  facet normal -0 0 -1
    outer loop
      vertex 42 3 0
      vertex 39 0 0
      vertex 39 3 0
    endloop
  endfacet
  facet normal 0 0 -1
    outer loop
      vertex 46 0 0
      vertex 49 3 0
      vertex 49 0 0
    endloop
  endfacet
  facet normal -0 0 -1
    outer loop
      vertex 49 3 0
      vertex 46 0 0
      vertex 46 3 0
    endloop
  endfacet
  facet normal 0 0 -1
    outer loop
      vertex 53 0 0
      vertex 56 3 0
      vertex 56 0 0
    endloop
  endfacet
  facet normal -0 0 -1
    outer loop
      vertex 56 3 0
      vertex 53 0 0
      vertex 53 3 0
    endloop
  endfacet
  facet normal 0 0 -1
    outer loop
      vertex 60 0 0
      vertex 63 3 0
      vertex 63 0 0
    endloop
  endfacet
  facet normal -0 0 -1
    outer loop
      vertex 63 3 0
      vertex 60 0 0
      vertex 60 3 0
    endloop
  endfacet
  facet normal 0 0 -1
    outer loop
      vertex 67 0 0
      vertex 70 3 0
      vertex 70 0 0
    endloop
  endfacet
  facet normal -0 0 -1
    outer loop
      vertex 70 3 0
      vertex 67 0 0
      vertex 67 3 0
    endloop
  endfacet
  facet normal 0 0 -1
    outer loop
      vertex 74 0 0
      vertex 77 3 0
      vertex 77 0 0
    endloop
  endfacet
  facet normal -0 0 -1
    outer loop
      vertex 77 3 0
      vertex 74 0 0
      vertex 74 3 0
    endloop
  endfacet
  facet normal 0 0 -1
    outer loop
      vertex 81 0 0
      vertex 84 3 0
      vertex 84 0 0
    endloop
  endfacet
  facet normal -0 0 -1
    outer loop
      vertex 84 3 0
      vertex 81 0 0
      vertex 81 3 0
    endloop
  endfacet
  facet normal 0 0 -1
    outer loop
      vertex 88 0 0
      vertex 91 3 0
      vertex 91 0 0
    endloop
  endfacet
  facet normal -0 0 -1
    outer loop
      vertex 91 3 0
      vertex 88 0 0
      vertex 88 3 0
    endloop
  endfacet
  facet normal 0 0 -1
    outer loop
      vertex 95 0 0
      vertex 98 3 0
      vertex 98 0 0
    endloop
  endfacet
  facet normal -0 0 -1
    outer loop
      vertex 98 3 0
      vertex 95 0 0
      vertex 95 3 0
    endloop
  endfacet
  facet normal 0 0 -1
    outer loop
      vertex 102 0 0
      vertex 105 3 0
      vertex 105 0 0
    endloop
  endfacet
  facet normal -0 0 -1
    outer loop
      vertex 105 3 0
      vertex 102 0 0
      vertex 102 3 0
    endloop
  endfacet
endsolid OpenSCAD_Model
